<?xml version="1.0" encoding="utf-8" standalone="no"?>
<!DOCTYPE svg PUBLIC "-//W3C//DTD SVG 1.1//EN"
  "http://www.w3.org/Graphics/SVG/1.1/DTD/svg11.dtd">
<!-- Created with matplotlib (https://matplotlib.org/) -->
<svg height="382.569375pt" version="1.1" viewBox="0 0 408.831875 382.569375" width="408.831875pt" xmlns="http://www.w3.org/2000/svg" xmlns:xlink="http://www.w3.org/1999/xlink">
 <metadata>
  <rdf:RDF xmlns:cc="http://creativecommons.org/ns#" xmlns:dc="http://purl.org/dc/elements/1.1/" xmlns:rdf="http://www.w3.org/1999/02/22-rdf-syntax-ns#">
   <cc:Work>
    <dc:type rdf:resource="http://purl.org/dc/dcmitype/StillImage"/>
    <dc:date>2023-07-07T15:57:41.393996</dc:date>
    <dc:format>image/svg+xml</dc:format>
    <dc:creator>
     <cc:Agent>
      <dc:title>Matplotlib v3.3.4, https://matplotlib.org/</dc:title>
     </cc:Agent>
    </dc:creator>
   </cc:Work>
  </rdf:RDF>
 </metadata>
 <defs>
  <style type="text/css">*{stroke-linecap:butt;stroke-linejoin:round;}</style>
 </defs>
 <g id="figure_1">
  <g id="patch_1">
   <path d="M 0 382.569375 
L 408.831875 382.569375 
L 408.831875 0 
L 0 0 
z
" style="fill:none;"/>
  </g>
  <g id="axes_1">
   <g id="patch_2">
    <path d="M 66.831875 333.36 
L 401.631875 333.36 
L 401.631875 7.2 
L 66.831875 7.2 
z
" style="fill:#ffffff;"/>
   </g>
   <g id="patch_3">
    <path clip-path="url(#pf9f355a927)" d="M 295.812425 318.534545 
L 347.955342 318.534545 
L 347.955342 220.930793 
L 295.812425 220.930793 
z
" style="fill:#dcdcdc;stroke:#000000;stroke-linejoin:miter;stroke-width:2;"/>
   </g>
   <g id="matplotlib.axis_1">
    <g id="xtick_1">
     <g id="line2d_1">
      <defs>
       <path d="M 0 0 
L 0 3.5 
" id="md822296459" style="stroke:#000000;stroke-width:0.8;"/>
      </defs>
      <g>
       <use style="stroke:#000000;stroke-width:0.8;" x="79.690649" xlink:href="#md822296459" y="333.36"/>
      </g>
     </g>
     <g id="text_1">
      <!-- 0.90 -->
      <g transform="translate(64.104711 350.997813)scale(0.14 -0.14)">
       <defs>
        <path d="M 31.78125 66.40625 
Q 24.171875 66.40625 20.328125 58.90625 
Q 16.5 51.421875 16.5 36.375 
Q 16.5 21.390625 20.328125 13.890625 
Q 24.171875 6.390625 31.78125 6.390625 
Q 39.453125 6.390625 43.28125 13.890625 
Q 47.125 21.390625 47.125 36.375 
Q 47.125 51.421875 43.28125 58.90625 
Q 39.453125 66.40625 31.78125 66.40625 
z
M 31.78125 74.21875 
Q 44.046875 74.21875 50.515625 64.515625 
Q 56.984375 54.828125 56.984375 36.375 
Q 56.984375 17.96875 50.515625 8.265625 
Q 44.046875 -1.421875 31.78125 -1.421875 
Q 19.53125 -1.421875 13.0625 8.265625 
Q 6.59375 17.96875 6.59375 36.375 
Q 6.59375 54.828125 13.0625 64.515625 
Q 19.53125 74.21875 31.78125 74.21875 
z
" id="DejaVuSans-48"/>
        <path d="M 10.6875 12.40625 
L 21 12.40625 
L 21 0 
L 10.6875 0 
z
" id="DejaVuSans-46"/>
        <path d="M 10.984375 1.515625 
L 10.984375 10.5 
Q 14.703125 8.734375 18.5 7.8125 
Q 22.3125 6.890625 25.984375 6.890625 
Q 35.75 6.890625 40.890625 13.453125 
Q 46.046875 20.015625 46.78125 33.40625 
Q 43.953125 29.203125 39.59375 26.953125 
Q 35.25 24.703125 29.984375 24.703125 
Q 19.046875 24.703125 12.671875 31.3125 
Q 6.296875 37.9375 6.296875 49.421875 
Q 6.296875 60.640625 12.9375 67.421875 
Q 19.578125 74.21875 30.609375 74.21875 
Q 43.265625 74.21875 49.921875 64.515625 
Q 56.59375 54.828125 56.59375 36.375 
Q 56.59375 19.140625 48.40625 8.859375 
Q 40.234375 -1.421875 26.421875 -1.421875 
Q 22.703125 -1.421875 18.890625 -0.6875 
Q 15.09375 0.046875 10.984375 1.515625 
z
M 30.609375 32.421875 
Q 37.25 32.421875 41.125 36.953125 
Q 45.015625 41.5 45.015625 49.421875 
Q 45.015625 57.28125 41.125 61.84375 
Q 37.25 66.40625 30.609375 66.40625 
Q 23.96875 66.40625 20.09375 61.84375 
Q 16.21875 57.28125 16.21875 49.421875 
Q 16.21875 41.5 20.09375 36.953125 
Q 23.96875 32.421875 30.609375 32.421875 
z
" id="DejaVuSans-57"/>
       </defs>
       <use xlink:href="#DejaVuSans-48"/>
       <use x="63.623047" xlink:href="#DejaVuSans-46"/>
       <use x="95.410156" xlink:href="#DejaVuSans-57"/>
       <use x="159.033203" xlink:href="#DejaVuSans-48"/>
      </g>
     </g>
    </g>
    <g id="xtick_2">
     <g id="line2d_2">
      <g>
       <use style="stroke:#000000;stroke-width:0.8;" x="126.878809" xlink:href="#md822296459" y="333.36"/>
      </g>
     </g>
     <g id="text_2">
      <!-- 0.92 -->
      <g transform="translate(111.292872 350.997813)scale(0.14 -0.14)">
       <defs>
        <path d="M 19.1875 8.296875 
L 53.609375 8.296875 
L 53.609375 0 
L 7.328125 0 
L 7.328125 8.296875 
Q 12.9375 14.109375 22.625 23.890625 
Q 32.328125 33.6875 34.8125 36.53125 
Q 39.546875 41.84375 41.421875 45.53125 
Q 43.3125 49.21875 43.3125 52.78125 
Q 43.3125 58.59375 39.234375 62.25 
Q 35.15625 65.921875 28.609375 65.921875 
Q 23.96875 65.921875 18.8125 64.3125 
Q 13.671875 62.703125 7.8125 59.421875 
L 7.8125 69.390625 
Q 13.765625 71.78125 18.9375 73 
Q 24.125 74.21875 28.421875 74.21875 
Q 39.75 74.21875 46.484375 68.546875 
Q 53.21875 62.890625 53.21875 53.421875 
Q 53.21875 48.921875 51.53125 44.890625 
Q 49.859375 40.875 45.40625 35.40625 
Q 44.1875 33.984375 37.640625 27.21875 
Q 31.109375 20.453125 19.1875 8.296875 
z
" id="DejaVuSans-50"/>
       </defs>
       <use xlink:href="#DejaVuSans-48"/>
       <use x="63.623047" xlink:href="#DejaVuSans-46"/>
       <use x="95.410156" xlink:href="#DejaVuSans-57"/>
       <use x="159.033203" xlink:href="#DejaVuSans-50"/>
      </g>
     </g>
    </g>
    <g id="xtick_3">
     <g id="line2d_3">
      <g>
       <use style="stroke:#000000;stroke-width:0.8;" x="174.06697" xlink:href="#md822296459" y="333.36"/>
      </g>
     </g>
     <g id="text_3">
      <!-- 0.94 -->
      <g transform="translate(158.481033 350.997813)scale(0.14 -0.14)">
       <defs>
        <path d="M 37.796875 64.3125 
L 12.890625 25.390625 
L 37.796875 25.390625 
z
M 35.203125 72.90625 
L 47.609375 72.90625 
L 47.609375 25.390625 
L 58.015625 25.390625 
L 58.015625 17.1875 
L 47.609375 17.1875 
L 47.609375 0 
L 37.796875 0 
L 37.796875 17.1875 
L 4.890625 17.1875 
L 4.890625 26.703125 
z
" id="DejaVuSans-52"/>
       </defs>
       <use xlink:href="#DejaVuSans-48"/>
       <use x="63.623047" xlink:href="#DejaVuSans-46"/>
       <use x="95.410156" xlink:href="#DejaVuSans-57"/>
       <use x="159.033203" xlink:href="#DejaVuSans-52"/>
      </g>
     </g>
    </g>
    <g id="xtick_4">
     <g id="line2d_4">
      <g>
       <use style="stroke:#000000;stroke-width:0.8;" x="221.255131" xlink:href="#md822296459" y="333.36"/>
      </g>
     </g>
     <g id="text_4">
      <!-- 0.96 -->
      <g transform="translate(205.669193 350.997813)scale(0.14 -0.14)">
       <defs>
        <path d="M 33.015625 40.375 
Q 26.375 40.375 22.484375 35.828125 
Q 18.609375 31.296875 18.609375 23.390625 
Q 18.609375 15.53125 22.484375 10.953125 
Q 26.375 6.390625 33.015625 6.390625 
Q 39.65625 6.390625 43.53125 10.953125 
Q 47.40625 15.53125 47.40625 23.390625 
Q 47.40625 31.296875 43.53125 35.828125 
Q 39.65625 40.375 33.015625 40.375 
z
M 52.59375 71.296875 
L 52.59375 62.3125 
Q 48.875 64.0625 45.09375 64.984375 
Q 41.3125 65.921875 37.59375 65.921875 
Q 27.828125 65.921875 22.671875 59.328125 
Q 17.53125 52.734375 16.796875 39.40625 
Q 19.671875 43.65625 24.015625 45.921875 
Q 28.375 48.1875 33.59375 48.1875 
Q 44.578125 48.1875 50.953125 41.515625 
Q 57.328125 34.859375 57.328125 23.390625 
Q 57.328125 12.15625 50.6875 5.359375 
Q 44.046875 -1.421875 33.015625 -1.421875 
Q 20.359375 -1.421875 13.671875 8.265625 
Q 6.984375 17.96875 6.984375 36.375 
Q 6.984375 53.65625 15.1875 63.9375 
Q 23.390625 74.21875 37.203125 74.21875 
Q 40.921875 74.21875 44.703125 73.484375 
Q 48.484375 72.75 52.59375 71.296875 
z
" id="DejaVuSans-54"/>
       </defs>
       <use xlink:href="#DejaVuSans-48"/>
       <use x="63.623047" xlink:href="#DejaVuSans-46"/>
       <use x="95.410156" xlink:href="#DejaVuSans-57"/>
       <use x="159.033203" xlink:href="#DejaVuSans-54"/>
      </g>
     </g>
    </g>
    <g id="xtick_5">
     <g id="line2d_5">
      <g>
       <use style="stroke:#000000;stroke-width:0.8;" x="268.443291" xlink:href="#md822296459" y="333.36"/>
      </g>
     </g>
     <g id="text_5">
      <!-- 0.98 -->
      <g transform="translate(252.857354 350.997813)scale(0.14 -0.14)">
       <defs>
        <path d="M 31.78125 34.625 
Q 24.75 34.625 20.71875 30.859375 
Q 16.703125 27.09375 16.703125 20.515625 
Q 16.703125 13.921875 20.71875 10.15625 
Q 24.75 6.390625 31.78125 6.390625 
Q 38.8125 6.390625 42.859375 10.171875 
Q 46.921875 13.96875 46.921875 20.515625 
Q 46.921875 27.09375 42.890625 30.859375 
Q 38.875 34.625 31.78125 34.625 
z
M 21.921875 38.8125 
Q 15.578125 40.375 12.03125 44.71875 
Q 8.5 49.078125 8.5 55.328125 
Q 8.5 64.0625 14.71875 69.140625 
Q 20.953125 74.21875 31.78125 74.21875 
Q 42.671875 74.21875 48.875 69.140625 
Q 55.078125 64.0625 55.078125 55.328125 
Q 55.078125 49.078125 51.53125 44.71875 
Q 48 40.375 41.703125 38.8125 
Q 48.828125 37.15625 52.796875 32.3125 
Q 56.78125 27.484375 56.78125 20.515625 
Q 56.78125 9.90625 50.3125 4.234375 
Q 43.84375 -1.421875 31.78125 -1.421875 
Q 19.734375 -1.421875 13.25 4.234375 
Q 6.78125 9.90625 6.78125 20.515625 
Q 6.78125 27.484375 10.78125 32.3125 
Q 14.796875 37.15625 21.921875 38.8125 
z
M 18.3125 54.390625 
Q 18.3125 48.734375 21.84375 45.5625 
Q 25.390625 42.390625 31.78125 42.390625 
Q 38.140625 42.390625 41.71875 45.5625 
Q 45.3125 48.734375 45.3125 54.390625 
Q 45.3125 60.0625 41.71875 63.234375 
Q 38.140625 66.40625 31.78125 66.40625 
Q 25.390625 66.40625 21.84375 63.234375 
Q 18.3125 60.0625 18.3125 54.390625 
z
" id="DejaVuSans-56"/>
       </defs>
       <use xlink:href="#DejaVuSans-48"/>
       <use x="63.623047" xlink:href="#DejaVuSans-46"/>
       <use x="95.410156" xlink:href="#DejaVuSans-57"/>
       <use x="159.033203" xlink:href="#DejaVuSans-56"/>
      </g>
     </g>
    </g>
    <g id="xtick_6">
     <g id="line2d_6">
      <g>
       <use style="stroke:#000000;stroke-width:0.8;" x="315.631452" xlink:href="#md822296459" y="333.36"/>
      </g>
     </g>
     <g id="text_6">
      <!-- 1.00 -->
      <g transform="translate(300.045515 350.997813)scale(0.14 -0.14)">
       <defs>
        <path d="M 12.40625 8.296875 
L 28.515625 8.296875 
L 28.515625 63.921875 
L 10.984375 60.40625 
L 10.984375 69.390625 
L 28.421875 72.90625 
L 38.28125 72.90625 
L 38.28125 8.296875 
L 54.390625 8.296875 
L 54.390625 0 
L 12.40625 0 
z
" id="DejaVuSans-49"/>
       </defs>
       <use xlink:href="#DejaVuSans-49"/>
       <use x="63.623047" xlink:href="#DejaVuSans-46"/>
       <use x="95.410156" xlink:href="#DejaVuSans-48"/>
       <use x="159.033203" xlink:href="#DejaVuSans-48"/>
      </g>
     </g>
    </g>
    <g id="xtick_7">
     <g id="line2d_7">
      <g>
       <use style="stroke:#000000;stroke-width:0.8;" x="362.819613" xlink:href="#md822296459" y="333.36"/>
      </g>
     </g>
     <g id="text_7">
      <!-- 1.02 -->
      <g transform="translate(347.233675 350.997813)scale(0.14 -0.14)">
       <use xlink:href="#DejaVuSans-49"/>
       <use x="63.623047" xlink:href="#DejaVuSans-46"/>
       <use x="95.410156" xlink:href="#DejaVuSans-48"/>
       <use x="159.033203" xlink:href="#DejaVuSans-50"/>
      </g>
     </g>
    </g>
    <g id="text_8">
     <!-- $\mu_d$ multiplier -->
     <g transform="translate(178.431875 371.589375)scale(0.18 -0.18)">
      <defs>
       <path d="M -1.3125 -20.796875 
L 13.375 54.6875 
L 22.40625 54.6875 
L 15.765625 20.65625 
Q 15.578125 19.625 15.421875 18.359375 
Q 15.28125 17.09375 15.28125 15.828125 
Q 15.28125 11.28125 18.140625 8.828125 
Q 21 6.390625 26.3125 6.390625 
Q 33.546875 6.390625 37.984375 10.484375 
Q 42.4375 14.59375 44 22.796875 
L 50.203125 54.6875 
L 59.1875 54.6875 
L 51.03125 12.640625 
Q 50.828125 11.71875 50.75 11.03125 
Q 50.6875 10.359375 50.6875 9.8125 
Q 50.6875 8.296875 51.296875 7.59375 
Q 51.90625 6.890625 53.21875 6.890625 
Q 53.71875 6.890625 54.5625 7.125 
Q 55.421875 7.375 56.984375 8.015625 
L 55.609375 0.78125 
Q 53.46875 -0.296875 51.515625 -0.859375 
Q 49.5625 -1.421875 47.703125 -1.421875 
Q 44.484375 -1.421875 42.65625 0.625 
Q 40.828125 2.6875 40.828125 6.296875 
Q 38.09375 2.390625 34.296875 0.484375 
Q 30.515625 -1.421875 25.390625 -1.421875 
Q 20.84375 -1.421875 17.453125 0.671875 
Q 14.0625 2.78125 12.984375 6.203125 
L 7.71875 -20.796875 
z
" id="DejaVuSans-Oblique-956"/>
       <path d="M 41.796875 8.203125 
Q 38.1875 3.46875 33.25 1.015625 
Q 28.328125 -1.421875 22.3125 -1.421875 
Q 14.109375 -1.421875 9.34375 4.171875 
Q 4.59375 9.765625 4.59375 19.484375 
Q 4.59375 27.59375 7.46875 34.9375 
Q 10.359375 42.28125 15.828125 48.09375 
Q 19.4375 51.953125 23.96875 53.96875 
Q 28.515625 56 33.5 56 
Q 38.765625 56 42.796875 53.453125 
Q 46.828125 50.921875 49.03125 46.1875 
L 54.890625 75.984375 
L 63.921875 75.984375 
L 49.125 0 
L 40.09375 0 
z
M 13.921875 21.09375 
Q 13.921875 14.015625 17.109375 10.0625 
Q 20.3125 6.109375 25.984375 6.109375 
Q 30.171875 6.109375 33.765625 8.125 
Q 37.359375 10.15625 40.09375 14.109375 
Q 42.96875 18.21875 44.625 23.578125 
Q 46.296875 28.953125 46.296875 34.1875 
Q 46.296875 40.96875 43.09375 44.765625 
Q 39.890625 48.578125 34.28125 48.578125 
Q 30.03125 48.578125 26.359375 46.578125 
Q 22.703125 44.578125 20.125 40.828125 
Q 17.28125 36.765625 15.59375 31.390625 
Q 13.921875 26.03125 13.921875 21.09375 
z
" id="DejaVuSans-Oblique-100"/>
       <path id="DejaVuSans-32"/>
       <path d="M 52 44.1875 
Q 55.375 50.25 60.0625 53.125 
Q 64.75 56 71.09375 56 
Q 79.640625 56 84.28125 50.015625 
Q 88.921875 44.046875 88.921875 33.015625 
L 88.921875 0 
L 79.890625 0 
L 79.890625 32.71875 
Q 79.890625 40.578125 77.09375 44.375 
Q 74.3125 48.1875 68.609375 48.1875 
Q 61.625 48.1875 57.5625 43.546875 
Q 53.515625 38.921875 53.515625 30.90625 
L 53.515625 0 
L 44.484375 0 
L 44.484375 32.71875 
Q 44.484375 40.625 41.703125 44.40625 
Q 38.921875 48.1875 33.109375 48.1875 
Q 26.21875 48.1875 22.15625 43.53125 
Q 18.109375 38.875 18.109375 30.90625 
L 18.109375 0 
L 9.078125 0 
L 9.078125 54.6875 
L 18.109375 54.6875 
L 18.109375 46.1875 
Q 21.1875 51.21875 25.484375 53.609375 
Q 29.78125 56 35.6875 56 
Q 41.65625 56 45.828125 52.96875 
Q 50 49.953125 52 44.1875 
z
" id="DejaVuSans-109"/>
       <path d="M 8.5 21.578125 
L 8.5 54.6875 
L 17.484375 54.6875 
L 17.484375 21.921875 
Q 17.484375 14.15625 20.5 10.265625 
Q 23.53125 6.390625 29.59375 6.390625 
Q 36.859375 6.390625 41.078125 11.03125 
Q 45.3125 15.671875 45.3125 23.6875 
L 45.3125 54.6875 
L 54.296875 54.6875 
L 54.296875 0 
L 45.3125 0 
L 45.3125 8.40625 
Q 42.046875 3.421875 37.71875 1 
Q 33.40625 -1.421875 27.6875 -1.421875 
Q 18.265625 -1.421875 13.375 4.4375 
Q 8.5 10.296875 8.5 21.578125 
z
M 31.109375 56 
z
" id="DejaVuSans-117"/>
       <path d="M 9.421875 75.984375 
L 18.40625 75.984375 
L 18.40625 0 
L 9.421875 0 
z
" id="DejaVuSans-108"/>
       <path d="M 18.3125 70.21875 
L 18.3125 54.6875 
L 36.8125 54.6875 
L 36.8125 47.703125 
L 18.3125 47.703125 
L 18.3125 18.015625 
Q 18.3125 11.328125 20.140625 9.421875 
Q 21.96875 7.515625 27.59375 7.515625 
L 36.8125 7.515625 
L 36.8125 0 
L 27.59375 0 
Q 17.1875 0 13.234375 3.875 
Q 9.28125 7.765625 9.28125 18.015625 
L 9.28125 47.703125 
L 2.6875 47.703125 
L 2.6875 54.6875 
L 9.28125 54.6875 
L 9.28125 70.21875 
z
" id="DejaVuSans-116"/>
       <path d="M 9.421875 54.6875 
L 18.40625 54.6875 
L 18.40625 0 
L 9.421875 0 
z
M 9.421875 75.984375 
L 18.40625 75.984375 
L 18.40625 64.59375 
L 9.421875 64.59375 
z
" id="DejaVuSans-105"/>
       <path d="M 18.109375 8.203125 
L 18.109375 -20.796875 
L 9.078125 -20.796875 
L 9.078125 54.6875 
L 18.109375 54.6875 
L 18.109375 46.390625 
Q 20.953125 51.265625 25.265625 53.625 
Q 29.59375 56 35.59375 56 
Q 45.5625 56 51.78125 48.09375 
Q 58.015625 40.1875 58.015625 27.296875 
Q 58.015625 14.40625 51.78125 6.484375 
Q 45.5625 -1.421875 35.59375 -1.421875 
Q 29.59375 -1.421875 25.265625 0.953125 
Q 20.953125 3.328125 18.109375 8.203125 
z
M 48.6875 27.296875 
Q 48.6875 37.203125 44.609375 42.84375 
Q 40.53125 48.484375 33.40625 48.484375 
Q 26.265625 48.484375 22.1875 42.84375 
Q 18.109375 37.203125 18.109375 27.296875 
Q 18.109375 17.390625 22.1875 11.75 
Q 26.265625 6.109375 33.40625 6.109375 
Q 40.53125 6.109375 44.609375 11.75 
Q 48.6875 17.390625 48.6875 27.296875 
z
" id="DejaVuSans-112"/>
       <path d="M 56.203125 29.59375 
L 56.203125 25.203125 
L 14.890625 25.203125 
Q 15.484375 15.921875 20.484375 11.0625 
Q 25.484375 6.203125 34.421875 6.203125 
Q 39.59375 6.203125 44.453125 7.46875 
Q 49.3125 8.734375 54.109375 11.28125 
L 54.109375 2.78125 
Q 49.265625 0.734375 44.1875 -0.34375 
Q 39.109375 -1.421875 33.890625 -1.421875 
Q 20.796875 -1.421875 13.15625 6.1875 
Q 5.515625 13.8125 5.515625 26.8125 
Q 5.515625 40.234375 12.765625 48.109375 
Q 20.015625 56 32.328125 56 
Q 43.359375 56 49.78125 48.890625 
Q 56.203125 41.796875 56.203125 29.59375 
z
M 47.21875 32.234375 
Q 47.125 39.59375 43.09375 43.984375 
Q 39.0625 48.390625 32.421875 48.390625 
Q 24.90625 48.390625 20.390625 44.140625 
Q 15.875 39.890625 15.1875 32.171875 
z
" id="DejaVuSans-101"/>
       <path d="M 41.109375 46.296875 
Q 39.59375 47.171875 37.8125 47.578125 
Q 36.03125 48 33.890625 48 
Q 26.265625 48 22.1875 43.046875 
Q 18.109375 38.09375 18.109375 28.8125 
L 18.109375 0 
L 9.078125 0 
L 9.078125 54.6875 
L 18.109375 54.6875 
L 18.109375 46.1875 
Q 20.953125 51.171875 25.484375 53.578125 
Q 30.03125 56 36.53125 56 
Q 37.453125 56 38.578125 55.875 
Q 39.703125 55.765625 41.0625 55.515625 
z
" id="DejaVuSans-114"/>
      </defs>
      <use transform="translate(0 0.015625)" xlink:href="#DejaVuSans-Oblique-956"/>
      <use transform="translate(63.623047 -16.390625)scale(0.7)" xlink:href="#DejaVuSans-Oblique-100"/>
      <use transform="translate(110.791016 0.015625)" xlink:href="#DejaVuSans-32"/>
      <use transform="translate(142.578125 0.015625)" xlink:href="#DejaVuSans-109"/>
      <use transform="translate(239.990234 0.015625)" xlink:href="#DejaVuSans-117"/>
      <use transform="translate(303.369141 0.015625)" xlink:href="#DejaVuSans-108"/>
      <use transform="translate(331.152344 0.015625)" xlink:href="#DejaVuSans-116"/>
      <use transform="translate(370.361328 0.015625)" xlink:href="#DejaVuSans-105"/>
      <use transform="translate(398.144531 0.015625)" xlink:href="#DejaVuSans-112"/>
      <use transform="translate(461.621094 0.015625)" xlink:href="#DejaVuSans-108"/>
      <use transform="translate(489.404297 0.015625)" xlink:href="#DejaVuSans-105"/>
      <use transform="translate(517.1875 0.015625)" xlink:href="#DejaVuSans-101"/>
      <use transform="translate(578.710938 0.015625)" xlink:href="#DejaVuSans-114"/>
     </g>
    </g>
   </g>
   <g id="matplotlib.axis_2">
    <g id="ytick_1">
     <g id="line2d_8">
      <defs>
       <path d="M 0 0 
L -3.5 0 
" id="m0f7aef077b" style="stroke:#000000;stroke-width:0.8;"/>
      </defs>
      <g>
       <use style="stroke:#000000;stroke-width:0.8;" x="66.831875" xlink:href="#m0f7aef077b" y="320.391397"/>
      </g>
     </g>
     <g id="text_9">
      <!-- 0.75 -->
      <g transform="translate(28.66 325.710304)scale(0.14 -0.14)">
       <defs>
        <path d="M 8.203125 72.90625 
L 55.078125 72.90625 
L 55.078125 68.703125 
L 28.609375 0 
L 18.3125 0 
L 43.21875 64.59375 
L 8.203125 64.59375 
z
" id="DejaVuSans-55"/>
        <path d="M 10.796875 72.90625 
L 49.515625 72.90625 
L 49.515625 64.59375 
L 19.828125 64.59375 
L 19.828125 46.734375 
Q 21.96875 47.46875 24.109375 47.828125 
Q 26.265625 48.1875 28.421875 48.1875 
Q 40.625 48.1875 47.75 41.5 
Q 54.890625 34.8125 54.890625 23.390625 
Q 54.890625 11.625 47.5625 5.09375 
Q 40.234375 -1.421875 26.90625 -1.421875 
Q 22.3125 -1.421875 17.546875 -0.640625 
Q 12.796875 0.140625 7.71875 1.703125 
L 7.71875 11.625 
Q 12.109375 9.234375 16.796875 8.0625 
Q 21.484375 6.890625 26.703125 6.890625 
Q 35.15625 6.890625 40.078125 11.328125 
Q 45.015625 15.765625 45.015625 23.390625 
Q 45.015625 31 40.078125 35.4375 
Q 35.15625 39.890625 26.703125 39.890625 
Q 22.75 39.890625 18.8125 39.015625 
Q 14.890625 38.140625 10.796875 36.28125 
z
" id="DejaVuSans-53"/>
       </defs>
       <use xlink:href="#DejaVuSans-48"/>
       <use x="63.623047" xlink:href="#DejaVuSans-46"/>
       <use x="95.410156" xlink:href="#DejaVuSans-55"/>
       <use x="159.033203" xlink:href="#DejaVuSans-53"/>
      </g>
     </g>
    </g>
    <g id="ytick_2">
     <g id="line2d_9">
      <g>
       <use style="stroke:#000000;stroke-width:0.8;" x="66.831875" xlink:href="#m0f7aef077b" y="280.715075"/>
      </g>
     </g>
     <g id="text_10">
      <!-- 1.00 -->
      <g transform="translate(28.66 286.033981)scale(0.14 -0.14)">
       <use xlink:href="#DejaVuSans-49"/>
       <use x="63.623047" xlink:href="#DejaVuSans-46"/>
       <use x="95.410156" xlink:href="#DejaVuSans-48"/>
       <use x="159.033203" xlink:href="#DejaVuSans-48"/>
      </g>
     </g>
    </g>
    <g id="ytick_3">
     <g id="line2d_10">
      <g>
       <use style="stroke:#000000;stroke-width:0.8;" x="66.831875" xlink:href="#m0f7aef077b" y="241.038753"/>
      </g>
     </g>
     <g id="text_11">
      <!-- 1.25 -->
      <g transform="translate(28.66 246.357659)scale(0.14 -0.14)">
       <use xlink:href="#DejaVuSans-49"/>
       <use x="63.623047" xlink:href="#DejaVuSans-46"/>
       <use x="95.410156" xlink:href="#DejaVuSans-50"/>
       <use x="159.033203" xlink:href="#DejaVuSans-53"/>
      </g>
     </g>
    </g>
    <g id="ytick_4">
     <g id="line2d_11">
      <g>
       <use style="stroke:#000000;stroke-width:0.8;" x="66.831875" xlink:href="#m0f7aef077b" y="201.362431"/>
      </g>
     </g>
     <g id="text_12">
      <!-- 1.50 -->
      <g transform="translate(28.66 206.681337)scale(0.14 -0.14)">
       <use xlink:href="#DejaVuSans-49"/>
       <use x="63.623047" xlink:href="#DejaVuSans-46"/>
       <use x="95.410156" xlink:href="#DejaVuSans-53"/>
       <use x="159.033203" xlink:href="#DejaVuSans-48"/>
      </g>
     </g>
    </g>
    <g id="ytick_5">
     <g id="line2d_12">
      <g>
       <use style="stroke:#000000;stroke-width:0.8;" x="66.831875" xlink:href="#m0f7aef077b" y="161.686109"/>
      </g>
     </g>
     <g id="text_13">
      <!-- 1.75 -->
      <g transform="translate(28.66 167.005015)scale(0.14 -0.14)">
       <use xlink:href="#DejaVuSans-49"/>
       <use x="63.623047" xlink:href="#DejaVuSans-46"/>
       <use x="95.410156" xlink:href="#DejaVuSans-55"/>
       <use x="159.033203" xlink:href="#DejaVuSans-53"/>
      </g>
     </g>
    </g>
    <g id="ytick_6">
     <g id="line2d_13">
      <g>
       <use style="stroke:#000000;stroke-width:0.8;" x="66.831875" xlink:href="#m0f7aef077b" y="122.009786"/>
      </g>
     </g>
     <g id="text_14">
      <!-- 2.00 -->
      <g transform="translate(28.66 127.328693)scale(0.14 -0.14)">
       <use xlink:href="#DejaVuSans-50"/>
       <use x="63.623047" xlink:href="#DejaVuSans-46"/>
       <use x="95.410156" xlink:href="#DejaVuSans-48"/>
       <use x="159.033203" xlink:href="#DejaVuSans-48"/>
      </g>
     </g>
    </g>
    <g id="ytick_7">
     <g id="line2d_14">
      <g>
       <use style="stroke:#000000;stroke-width:0.8;" x="66.831875" xlink:href="#m0f7aef077b" y="82.333464"/>
      </g>
     </g>
     <g id="text_15">
      <!-- 2.25 -->
      <g transform="translate(28.66 87.652371)scale(0.14 -0.14)">
       <use xlink:href="#DejaVuSans-50"/>
       <use x="63.623047" xlink:href="#DejaVuSans-46"/>
       <use x="95.410156" xlink:href="#DejaVuSans-50"/>
       <use x="159.033203" xlink:href="#DejaVuSans-53"/>
      </g>
     </g>
    </g>
    <g id="ytick_8">
     <g id="line2d_15">
      <g>
       <use style="stroke:#000000;stroke-width:0.8;" x="66.831875" xlink:href="#m0f7aef077b" y="42.657142"/>
      </g>
     </g>
     <g id="text_16">
      <!-- 2.50 -->
      <g transform="translate(28.66 47.976048)scale(0.14 -0.14)">
       <use xlink:href="#DejaVuSans-50"/>
       <use x="63.623047" xlink:href="#DejaVuSans-46"/>
       <use x="95.410156" xlink:href="#DejaVuSans-53"/>
       <use x="159.033203" xlink:href="#DejaVuSans-48"/>
      </g>
     </g>
    </g>
    <g id="text_17">
     <!-- $\sigma_d$ multiplier -->
     <g transform="translate(20.88 226.08)rotate(-90)scale(0.18 -0.18)">
      <defs>
       <path d="M 34.671875 47.5625 
Q 27.25 47.5625 22.21875 42.1875 
Q 16.890625 36.578125 15.140625 27.296875 
Q 13.1875 17.484375 16.3125 11.8125 
Q 19.390625 6.203125 26.65625 6.203125 
Q 33.84375 6.203125 39.109375 11.859375 
Q 44.4375 17.53125 46.34375 27.296875 
Q 48.046875 36.234375 45.015625 42.1875 
Q 42.1875 47.5625 34.671875 47.5625 
z
M 36.078125 54.734375 
L 65.921875 54.6875 
L 64.15625 45.703125 
L 54.109375 45.703125 
Q 57.90625 38.09375 55.859375 27.296875 
Q 53.21875 13.875 45.0625 6.25 
Q 36.859375 -1.421875 25.140625 -1.421875 
Q 13.375 -1.421875 8.203125 6.25 
Q 3.03125 13.875 5.671875 27.296875 
Q 8.25 40.765625 16.40625 48.390625 
Q 23.1875 54.734375 36.078125 54.734375 
z
" id="DejaVuSans-Oblique-963"/>
      </defs>
      <use transform="translate(0 0.015625)" xlink:href="#DejaVuSans-Oblique-963"/>
      <use transform="translate(63.378906 -16.390625)scale(0.7)" xlink:href="#DejaVuSans-Oblique-100"/>
      <use transform="translate(110.546875 0.015625)" xlink:href="#DejaVuSans-32"/>
      <use transform="translate(142.333984 0.015625)" xlink:href="#DejaVuSans-109"/>
      <use transform="translate(239.746094 0.015625)" xlink:href="#DejaVuSans-117"/>
      <use transform="translate(303.125 0.015625)" xlink:href="#DejaVuSans-108"/>
      <use transform="translate(330.908203 0.015625)" xlink:href="#DejaVuSans-116"/>
      <use transform="translate(370.117188 0.015625)" xlink:href="#DejaVuSans-105"/>
      <use transform="translate(397.900391 0.015625)" xlink:href="#DejaVuSans-112"/>
      <use transform="translate(461.376953 0.015625)" xlink:href="#DejaVuSans-108"/>
      <use transform="translate(489.160156 0.015625)" xlink:href="#DejaVuSans-105"/>
      <use transform="translate(516.943359 0.015625)" xlink:href="#DejaVuSans-101"/>
      <use transform="translate(578.466797 0.015625)" xlink:href="#DejaVuSans-114"/>
     </g>
    </g>
   </g>
   <g id="PathCollection_1">
    <defs>
     <path d="M 0 3 
C 0.795609 3 1.55874 2.683901 2.12132 2.12132 
C 2.683901 1.55874 3 0.795609 3 0 
C 3 -0.795609 2.683901 -1.55874 2.12132 -2.12132 
C 1.55874 -2.683901 0.795609 -3 0 -3 
C -0.795609 -3 -1.55874 -2.683901 -2.12132 -2.12132 
C -2.683901 -1.55874 -3 -0.795609 -3 0 
C -3 0.795609 -2.683901 1.55874 -2.12132 2.12132 
C -1.55874 2.683901 -0.795609 3 0 3 
z
" id="mf76157bb59" style="stroke:#808080;"/>
    </defs>
    <g clip-path="url(#pf9f355a927)">
     <use style="fill:#808080;stroke:#808080;" x="339.225533" xlink:href="#mf76157bb59" y="244.212859"/>
     <use style="fill:#808080;stroke:#808080;" x="277.880924" xlink:href="#mf76157bb59" y="264.844546"/>
     <use style="fill:#808080;stroke:#808080;" x="294.39678" xlink:href="#mf76157bb59" y="44.244195"/>
     <use style="fill:#808080;stroke:#808080;" x="221.255131" xlink:href="#mf76157bb59" y="275.953916"/>
     <use style="fill:#808080;stroke:#808080;" x="261.365067" xlink:href="#mf76157bb59" y="37.895983"/>
     <use style="fill:#808080;stroke:#808080;" x="362.819613" xlink:href="#mf76157bb59" y="241.038753"/>
     <use style="fill:#808080;stroke:#808080;" x="339.225533" xlink:href="#mf76157bb59" y="50.592407"/>
     <use style="fill:#808080;stroke:#808080;" x="282.59974" xlink:href="#mf76157bb59" y="53.766512"/>
     <use style="fill:#808080;stroke:#808080;" x="91.487689" xlink:href="#mf76157bb59" y="255.322229"/>
     <use style="fill:#808080;stroke:#808080;" x="315.631452" xlink:href="#mf76157bb59" y="300.235826"/>
     <use style="fill:#808080;stroke:#808080;" x="362.819613" xlink:href="#mf76157bb59" y="247.386965"/>
     <use style="fill:#808080;stroke:#808080;" x="169.348154" xlink:href="#mf76157bb59" y="109.313363"/>
     <use style="fill:#808080;stroke:#808080;" x="157.551114" xlink:href="#mf76157bb59" y="64.875882"/>
     <use style="fill:#808080;stroke:#808080;" x="261.365067" xlink:href="#mf76157bb59" y="36.308931"/>
     <use style="fill:#808080;stroke:#808080;" x="218.895723" xlink:href="#mf76157bb59" y="160.099056"/>
     <use style="fill:#808080;stroke:#808080;" x="96.206505" xlink:href="#mf76157bb59" y="156.92495"/>
     <use style="fill:#808080;stroke:#808080;" x="141.035258" xlink:href="#mf76157bb59" y="114.074522"/>
     <use style="fill:#808080;stroke:#808080;" x="273.162108" xlink:href="#mf76157bb59" y="289.285161"/>
     <use style="fill:#808080;stroke:#808080;" x="133.957034" xlink:href="#mf76157bb59" y="228.34233"/>
     <use style="fill:#808080;stroke:#808080;" x="131.597626" xlink:href="#mf76157bb59" y="123.596839"/>
     <use style="fill:#808080;stroke:#808080;" x="214.176907" xlink:href="#mf76157bb59" y="193.427166"/>
     <use style="fill:#808080;stroke:#808080;" x="308.553228" xlink:href="#mf76157bb59" y="115.661575"/>
     <use style="fill:#808080;stroke:#808080;" x="110.362953" xlink:href="#mf76157bb59" y="91.855782"/>
     <use style="fill:#808080;stroke:#808080;" x="174.06697" xlink:href="#mf76157bb59" y="88.681676"/>
     <use style="fill:#808080;stroke:#808080;" x="244.849211" xlink:href="#mf76157bb59" y="287.539403"/>
     <use style="fill:#808080;stroke:#808080;" x="86.768873" xlink:href="#mf76157bb59" y="61.701777"/>
     <use style="fill:#808080;stroke:#808080;" x="138.67585" xlink:href="#mf76157bb59" y="281.349896"/>
     <use style="fill:#808080;stroke:#808080;" x="315.631452" xlink:href="#mf76157bb59" y="71.224094"/>
     <use style="fill:#808080;stroke:#808080;" x="339.225533" xlink:href="#mf76157bb59" y="79.159358"/>
     <use style="fill:#808080;stroke:#808080;" x="89.128281" xlink:href="#mf76157bb59" y="269.605705"/>
     <use style="fill:#808080;stroke:#808080;" x="249.568027" xlink:href="#mf76157bb59" y="22.025455"/>
     <use style="fill:#808080;stroke:#808080;" x="200.020459" xlink:href="#mf76157bb59" y="209.297695"/>
     <use style="fill:#808080;stroke:#808080;" x="174.06697" xlink:href="#mf76157bb59" y="175.969585"/>
     <use style="fill:#808080;stroke:#808080;" x="289.677964" xlink:href="#mf76157bb59" y="182.317796"/>
     <use style="fill:#808080;stroke:#808080;" x="247.208619" xlink:href="#mf76157bb59" y="152.163791"/>
     <use style="fill:#808080;stroke:#808080;" x="273.162108" xlink:href="#mf76157bb59" y="274.366864"/>
     <use style="fill:#808080;stroke:#808080;" x="108.003545" xlink:href="#mf76157bb59" y="133.119157"/>
     <use style="fill:#808080;stroke:#808080;" x="315.631452" xlink:href="#mf76157bb59" y="206.123589"/>
     <use style="fill:#808080;stroke:#808080;" x="310.912636" xlink:href="#mf76157bb59" y="129.945051"/>
     <use style="fill:#808080;stroke:#808080;" x="192.942234" xlink:href="#mf76157bb59" y="179.14369"/>
     <use style="fill:#808080;stroke:#808080;" x="150.47289" xlink:href="#mf76157bb59" y="252.148123"/>
     <use style="fill:#808080;stroke:#808080;" x="84.409465" xlink:href="#mf76157bb59" y="128.357998"/>
     <use style="fill:#808080;stroke:#808080;" x="386.413693" xlink:href="#mf76157bb59" y="117.248628"/>
     <use style="fill:#808080;stroke:#808080;" x="115.081769" xlink:href="#mf76157bb59" y="147.402633"/>
     <use style="fill:#808080;stroke:#808080;" x="192.942234" xlink:href="#mf76157bb59" y="169.621373"/>
     <use style="fill:#808080;stroke:#808080;" x="362.819613" xlink:href="#mf76157bb59" y="199.775378"/>
     <use style="fill:#808080;stroke:#808080;" x="235.411579" xlink:href="#mf76157bb59" y="31.547772"/>
     <use style="fill:#808080;stroke:#808080;" x="216.536315" xlink:href="#mf76157bb59" y="155.337897"/>
     <use style="fill:#808080;stroke:#808080;" x="315.631452" xlink:href="#mf76157bb59" y="77.572306"/>
     <use style="fill:#808080;stroke:#808080;" x="339.225533" xlink:href="#mf76157bb59" y="225.168224"/>
     <use style="fill:#808080;stroke:#808080;" x="152.832298" xlink:href="#mf76157bb59" y="102.965152"/>
     <use style="fill:#808080;stroke:#808080;" x="230.692763" xlink:href="#mf76157bb59" y="218.820013"/>
     <use style="fill:#808080;stroke:#808080;" x="204.739275" xlink:href="#mf76157bb59" y="236.277594"/>
     <use style="fill:#808080;stroke:#808080;" x="169.348154" xlink:href="#mf76157bb59" y="172.795479"/>
     <use style="fill:#808080;stroke:#808080;" x="223.614539" xlink:href="#mf76157bb59" y="42.657142"/>
     <use style="fill:#808080;stroke:#808080;" x="119.800585" xlink:href="#mf76157bb59" y="101.378099"/>
     <use style="fill:#808080;stroke:#808080;" x="82.050057" xlink:href="#mf76157bb59" y="188.666008"/>
     <use style="fill:#808080;stroke:#808080;" x="159.910522" xlink:href="#mf76157bb59" y="29.960719"/>
     <use style="fill:#808080;stroke:#808080;" x="233.052171" xlink:href="#mf76157bb59" y="223.581171"/>
     <use style="fill:#808080;stroke:#808080;" x="124.519401" xlink:href="#mf76157bb59" y="137.880315"/>
     <use style="fill:#808080;stroke:#808080;" x="292.037372" xlink:href="#mf76157bb59" y="268.018652"/>
     <use style="fill:#808080;stroke:#808080;" x="103.284729" xlink:href="#mf76157bb59" y="26.786613"/>
     <use style="fill:#808080;stroke:#808080;" x="386.413693" xlink:href="#mf76157bb59" y="144.228527"/>
     <use style="fill:#808080;stroke:#808080;" x="362.819613" xlink:href="#mf76157bb59" y="202.949484"/>
     <use style="fill:#808080;stroke:#808080;" x="296.756188" xlink:href="#mf76157bb59" y="185.491902"/>
     <use style="fill:#808080;stroke:#808080;" x="237.770987" xlink:href="#mf76157bb59" y="314.201891"/>
     <use style="fill:#808080;stroke:#808080;" x="98.565913" xlink:href="#mf76157bb59" y="58.527671"/>
     <use style="fill:#808080;stroke:#808080;" x="129.238217" xlink:href="#mf76157bb59" y="166.447267"/>
     <use style="fill:#808080;stroke:#808080;" x="188.223418" xlink:href="#mf76157bb59" y="164.860214"/>
     <use style="fill:#808080;stroke:#808080;" x="339.225533" xlink:href="#mf76157bb59" y="292.141856"/>
     <use style="fill:#808080;stroke:#808080;" x="315.631452" xlink:href="#mf76157bb59" y="248.974017"/>
     <use style="fill:#808080;stroke:#808080;" x="339.225533" xlink:href="#mf76157bb59" y="304.996984"/>
     <use style="fill:#808080;stroke:#808080;" x="183.504602" xlink:href="#mf76157bb59" y="296.903015"/>
     <use style="fill:#808080;stroke:#808080;" x="254.286843" xlink:href="#mf76157bb59" y="263.257493"/>
     <use style="fill:#808080;stroke:#808080;" x="362.819613" xlink:href="#mf76157bb59" y="83.920517"/>
     <use style="fill:#808080;stroke:#808080;" x="209.458091" xlink:href="#mf76157bb59" y="237.864647"/>
     <use style="fill:#808080;stroke:#808080;" x="251.927435" xlink:href="#mf76157bb59" y="218.820013"/>
     <use style="fill:#808080;stroke:#808080;" x="211.817499" xlink:href="#mf76157bb59" y="210.884748"/>
     <use style="fill:#808080;stroke:#808080;" x="183.504602" xlink:href="#mf76157bb59" y="145.81558"/>
     <use style="fill:#808080;stroke:#808080;" x="386.413693" xlink:href="#mf76157bb59" y="49.005354"/>
     <use style="fill:#808080;stroke:#808080;" x="301.475004" xlink:href="#mf76157bb59" y="196.601272"/>
     <use style="fill:#808080;stroke:#808080;" x="287.318556" xlink:href="#mf76157bb59" y="72.811147"/>
     <use style="fill:#808080;stroke:#808080;" x="339.225533" xlink:href="#mf76157bb59" y="306.266627"/>
     <use style="fill:#808080;stroke:#808080;" x="136.316442" xlink:href="#mf76157bb59" y="215.645907"/>
     <use style="fill:#808080;stroke:#808080;" x="266.083883" xlink:href="#mf76157bb59" y="123.596839"/>
     <use style="fill:#808080;stroke:#808080;" x="280.240332" xlink:href="#mf76157bb59" y="295.950783"/>
     <use style="fill:#808080;stroke:#808080;" x="117.441177" xlink:href="#mf76157bb59" y="311.027785"/>
     <use style="fill:#808080;stroke:#808080;" x="339.225533" xlink:href="#mf76157bb59" y="283.57177"/>
     <use style="fill:#808080;stroke:#808080;" x="362.819613" xlink:href="#mf76157bb59" y="134.70621"/>
     <use style="fill:#808080;stroke:#808080;" x="150.47289" xlink:href="#mf76157bb59" y="107.72631"/>
     <use style="fill:#808080;stroke:#808080;" x="197.66105" xlink:href="#mf76157bb59" y="56.940618"/>
     <use style="fill:#808080;stroke:#808080;" x="240.130395" xlink:href="#mf76157bb59" y="98.203993"/>
     <use style="fill:#808080;stroke:#808080;" x="362.819613" xlink:href="#mf76157bb59" y="68.049988"/>
     <use style="fill:#808080;stroke:#808080;" x="386.413693" xlink:href="#mf76157bb59" y="87.094623"/>
     <use style="fill:#808080;stroke:#808080;" x="181.145194" xlink:href="#mf76157bb59" y="233.103489"/>
     <use style="fill:#808080;stroke:#808080;" x="105.644137" xlink:href="#mf76157bb59" y="95.029887"/>
     <use style="fill:#808080;stroke:#808080;" x="145.754074" xlink:href="#mf76157bb59" y="260.083388"/>
     <use style="fill:#808080;stroke:#808080;" x="268.443291" xlink:href="#mf76157bb59" y="317.852113"/>
     <use style="fill:#808080;stroke:#808080;" x="162.26993" xlink:href="#mf76157bb59" y="190.253061"/>
     <use style="fill:#808080;stroke:#808080;" x="303.834412" xlink:href="#mf76157bb59" y="316.741176"/>
    </g>
   </g>
   <g id="patch_4">
    <path d="M 66.831875 333.36 
L 66.831875 7.2 
" style="fill:none;stroke:#000000;stroke-linecap:square;stroke-linejoin:miter;stroke-width:0.8;"/>
   </g>
   <g id="patch_5">
    <path d="M 401.631875 333.36 
L 401.631875 7.2 
" style="fill:none;stroke:#000000;stroke-linecap:square;stroke-linejoin:miter;stroke-width:0.8;"/>
   </g>
   <g id="patch_6">
    <path d="M 66.831875 333.36 
L 401.631875 333.36 
" style="fill:none;stroke:#000000;stroke-linecap:square;stroke-linejoin:miter;stroke-width:0.8;"/>
   </g>
   <g id="patch_7">
    <path d="M 66.831875 7.2 
L 401.631875 7.2 
" style="fill:none;stroke:#000000;stroke-linecap:square;stroke-linejoin:miter;stroke-width:0.8;"/>
   </g>
   <g id="PathCollection_2">
    <defs>
     <path d="M 0 3.535534 
C 0.937635 3.535534 1.836992 3.163008 2.5 2.5 
C 3.163008 1.836992 3.535534 0.937635 3.535534 0 
C 3.535534 -0.937635 3.163008 -1.836992 2.5 -2.5 
C 1.836992 -3.163008 0.937635 -3.535534 0 -3.535534 
C -0.937635 -3.535534 -1.836992 -3.163008 -2.5 -2.5 
C -3.163008 -1.836992 -3.535534 -0.937635 -3.535534 0 
C -3.535534 0.937635 -3.163008 1.836992 -2.5 2.5 
C -1.836992 3.163008 -0.937635 3.535534 0 3.535534 
z
" id="m7f2a023166" style="stroke:#ffa500;"/>
    </defs>
    <g clip-path="url(#pf9f355a927)">
     <use style="fill:#ffa500;stroke:#ffa500;" x="330.870577" xlink:href="#m7f2a023166" y="303.597494"/>
     <use style="fill:#ffa500;stroke:#ffa500;" x="318.386258" xlink:href="#m7f2a023166" y="318.528345"/>
     <use style="fill:#ffa500;stroke:#ffa500;" x="332.815868" xlink:href="#m7f2a023166" y="294.934593"/>
     <use style="fill:#ffa500;stroke:#ffa500;" x="329.627891" xlink:href="#m7f2a023166" y="303.798051"/>
     <use style="fill:#ffa500;stroke:#ffa500;" x="330.515164" xlink:href="#m7f2a023166" y="303.725446"/>
     <use style="fill:#ffa500;stroke:#ffa500;" x="326.690564" xlink:href="#m7f2a023166" y="310.395686"/>
     <use style="fill:#ffa500;stroke:#ffa500;" x="328.568772" xlink:href="#m7f2a023166" y="307.842853"/>
     <use style="fill:#ffa500;stroke:#ffa500;" x="329.028234" xlink:href="#m7f2a023166" y="304.680061"/>
     <use style="fill:#ffa500;stroke:#ffa500;" x="329.695585" xlink:href="#m7f2a023166" y="306.340334"/>
     <use style="fill:#ffa500;stroke:#ffa500;" x="331.065162" xlink:href="#m7f2a023166" y="286.456728"/>
     <use style="fill:#ffa500;stroke:#ffa500;" x="315.431212" xlink:href="#m7f2a023166" y="297.623837"/>
     <use style="fill:#ffa500;stroke:#ffa500;" x="340.366414" xlink:href="#m7f2a023166" y="274.489775"/>
     <use style="fill:#ffa500;stroke:#ffa500;" x="341.013027" xlink:href="#m7f2a023166" y="274.764401"/>
     <use style="fill:#ffa500;stroke:#ffa500;" x="333.827227" xlink:href="#m7f2a023166" y="276.063713"/>
     <use style="fill:#ffa500;stroke:#ffa500;" x="333.052288" xlink:href="#m7f2a023166" y="279.475424"/>
     <use style="fill:#ffa500;stroke:#ffa500;" x="337.864409" xlink:href="#m7f2a023166" y="267.090882"/>
     <use style="fill:#ffa500;stroke:#ffa500;" x="326.003913" xlink:href="#m7f2a023166" y="258.599341"/>
     <use style="fill:#ffa500;stroke:#ffa500;" x="334.004524" xlink:href="#m7f2a023166" y="237.364504"/>
     <use style="fill:#ffa500;stroke:#ffa500;" x="336.431724" xlink:href="#m7f2a023166" y="237.317292"/>
     <use style="fill:#ffa500;stroke:#ffa500;" x="340.503692" xlink:href="#m7f2a023166" y="275.0961"/>
     <use style="fill:#ffa500;stroke:#ffa500;" x="338.150816" xlink:href="#m7f2a023166" y="241.265396"/>
     <use style="fill:#ffa500;stroke:#ffa500;" x="327.12049" xlink:href="#m7f2a023166" y="263.085285"/>
     <use style="fill:#ffa500;stroke:#ffa500;" x="338.462304" xlink:href="#m7f2a023166" y="248.800448"/>
     <use style="fill:#ffa500;stroke:#ffa500;" x="343.141803" xlink:href="#m7f2a023166" y="248.912903"/>
     <use style="fill:#ffa500;stroke:#ffa500;" x="338.271024" xlink:href="#m7f2a023166" y="278.887892"/>
     <use style="fill:#ffa500;stroke:#ffa500;" x="309.417513" xlink:href="#m7f2a023166" y="296.090393"/>
     <use style="fill:#ffa500;stroke:#ffa500;" x="342.922509" xlink:href="#m7f2a023166" y="258.309561"/>
     <use style="fill:#ffa500;stroke:#ffa500;" x="339.618404" xlink:href="#m7f2a023166" y="274.471681"/>
     <use style="fill:#ffa500;stroke:#ffa500;" x="343.485503" xlink:href="#m7f2a023166" y="254.343851"/>
     <use style="fill:#ffa500;stroke:#ffa500;" x="343.023259" xlink:href="#m7f2a023166" y="248.351677"/>
     <use style="fill:#ffa500;stroke:#ffa500;" x="347.32081" xlink:href="#m7f2a023166" y="243.07028"/>
     <use style="fill:#ffa500;stroke:#ffa500;" x="311.908104" xlink:href="#m7f2a023166" y="301.171232"/>
     <use style="fill:#ffa500;stroke:#ffa500;" x="347.877966" xlink:href="#m7f2a023166" y="245.41262"/>
     <use style="fill:#ffa500;stroke:#ffa500;" x="346.037138" xlink:href="#m7f2a023166" y="251.345692"/>
     <use style="fill:#ffa500;stroke:#ffa500;" x="337.605269" xlink:href="#m7f2a023166" y="240.949625"/>
     <use style="fill:#ffa500;stroke:#ffa500;" x="344.415108" xlink:href="#m7f2a023166" y="232.105608"/>
     <use style="fill:#ffa500;stroke:#ffa500;" x="341.644938" xlink:href="#m7f2a023166" y="228.862711"/>
     <use style="fill:#ffa500;stroke:#ffa500;" x="342.752211" xlink:href="#m7f2a023166" y="231.940954"/>
     <use style="fill:#ffa500;stroke:#ffa500;" x="342.498461" xlink:href="#m7f2a023166" y="228.961205"/>
     <use style="fill:#ffa500;stroke:#ffa500;" x="340.035215" xlink:href="#m7f2a023166" y="231.336091"/>
     <use style="fill:#ffa500;stroke:#ffa500;" x="338.759969" xlink:href="#m7f2a023166" y="232.251664"/>
     <use style="fill:#ffa500;stroke:#ffa500;" x="344.381055" xlink:href="#m7f2a023166" y="228.800823"/>
     <use style="fill:#ffa500;stroke:#ffa500;" x="343.046013" xlink:href="#m7f2a023166" y="228.323516"/>
     <use style="fill:#ffa500;stroke:#ffa500;" x="333.980263" xlink:href="#m7f2a023166" y="261.274032"/>
     <use style="fill:#ffa500;stroke:#ffa500;" x="340.680507" xlink:href="#m7f2a023166" y="220.926842"/>
     <use style="fill:#ffa500;stroke:#ffa500;" x="295.877104" xlink:href="#m7f2a023166" y="303.844204"/>
    </g>
   </g>
   <g id="PathCollection_3">
    <defs>
     <path d="M 0 5 
C 1.326016 5 2.597899 4.473168 3.535534 3.535534 
C 4.473168 2.597899 5 1.326016 5 0 
C 5 -1.326016 4.473168 -2.597899 3.535534 -3.535534 
C 2.597899 -4.473168 1.326016 -5 0 -5 
C -1.326016 -5 -2.597899 -4.473168 -3.535534 -3.535534 
C -4.473168 -2.597899 -5 -1.326016 -5 0 
C -5 1.326016 -4.473168 2.597899 -3.535534 3.535534 
C -2.597899 4.473168 -1.326016 5 0 5 
z
" id="m96860979d9" style="stroke:#000000;"/>
    </defs>
    <g clip-path="url(#pf9f355a927)">
     <use style="stroke:#000000;" x="315.631452" xlink:href="#m96860979d9" y="280.715075"/>
    </g>
   </g>
  </g>
 </g>
 <defs>
  <clipPath id="pf9f355a927">
   <rect height="326.16" width="334.8" x="66.831875" y="7.2"/>
  </clipPath>
 </defs>
</svg>
