<?xml version="1.0" encoding="utf-8" standalone="no"?>
<!DOCTYPE svg PUBLIC "-//W3C//DTD SVG 1.1//EN"
  "http://www.w3.org/Graphics/SVG/1.1/DTD/svg11.dtd">
<svg xmlns:xlink="http://www.w3.org/1999/xlink" width="399.924375pt" height="389.049375pt" viewBox="0 0 399.924375 389.049375" xmlns="http://www.w3.org/2000/svg" version="1.1">
 <metadata>
  <rdf:RDF xmlns:dc="http://purl.org/dc/elements/1.1/" xmlns:cc="http://creativecommons.org/ns#" xmlns:rdf="http://www.w3.org/1999/02/22-rdf-syntax-ns#">
   <cc:Work>
    <dc:type rdf:resource="http://purl.org/dc/dcmitype/StillImage"/>
    <dc:date>2023-12-21T13:49:11.428999</dc:date>
    <dc:format>image/svg+xml</dc:format>
    <dc:creator>
     <cc:Agent>
      <dc:title>Matplotlib v3.8.2, https://matplotlib.org/</dc:title>
     </cc:Agent>
    </dc:creator>
   </cc:Work>
  </rdf:RDF>
 </metadata>
 <defs>
  <style type="text/css">*{stroke-linejoin: round; stroke-linecap: butt}</style>
 </defs>
 <g id="figure_1">
  <g id="patch_1">
   <path d="M 0 389.049375 
L 399.924375 389.049375 
L 399.924375 0 
L 0 0 
z
" style="fill: #ffffff"/>
  </g>
  <g id="axes_1">
   <g id="patch_2">
    <path d="M 57.924375 339.84 
L 392.724375 339.84 
L 392.724375 7.2 
L 57.924375 7.2 
z
" style="fill: #ffffff"/>
   </g>
   <g id="patch_3">
    <path d="M 57.924375 324.72 
L 57.924375 193.06535 
L 392.724375 193.06535 
L 392.724375 324.72 
z
" clip-path="url(#p1375242e40)" style="fill: #f5f5f5; stroke: #000000; stroke-width: 2; stroke-linejoin: miter"/>
   </g>
   <g id="patch_4">
    <path d="M 299.891179 339.84 
L 299.891179 7.2 
L 338.970466 7.2 
L 338.970466 339.84 
z
" clip-path="url(#p1375242e40)" style="fill: #f5f5f5; stroke: #000000; stroke-width: 2; stroke-linejoin: miter"/>
   </g>
   <g id="patch_5">
    <path d="M 299.891179 324.72 
L 338.970466 324.72 
L 338.970466 193.06535 
L 299.891179 193.06535 
z
" clip-path="url(#p1375242e40)" style="fill: #dcdcdc; stroke: #000000; stroke-width: 2; stroke-linejoin: miter"/>
   </g>
   <g id="matplotlib.axis_1">
    <g id="xtick_1">
     <g id="line2d_1">
      <defs>
       <path id="m34292c5698" d="M 0 0 
L 0 3.5 
" style="stroke: #000000; stroke-width: 0.8"/>
      </defs>
      <g>
       <use xlink:href="#m34292c5698" x="70.783149" y="339.84" style="stroke: #000000; stroke-width: 0.8"/>
      </g>
     </g>
     <g id="text_1">
      <!-- 0.90 -->
      <g transform="translate(55.197211 357.477813) scale(0.14 -0.14)">
       <defs>
        <path id="DejaVuSans-30" d="M 2034 4250 
Q 1547 4250 1301 3770 
Q 1056 3291 1056 2328 
Q 1056 1369 1301 889 
Q 1547 409 2034 409 
Q 2525 409 2770 889 
Q 3016 1369 3016 2328 
Q 3016 3291 2770 3770 
Q 2525 4250 2034 4250 
z
M 2034 4750 
Q 2819 4750 3233 4129 
Q 3647 3509 3647 2328 
Q 3647 1150 3233 529 
Q 2819 -91 2034 -91 
Q 1250 -91 836 529 
Q 422 1150 422 2328 
Q 422 3509 836 4129 
Q 1250 4750 2034 4750 
z
" transform="scale(0.015625)"/>
        <path id="DejaVuSans-2e" d="M 684 794 
L 1344 794 
L 1344 0 
L 684 0 
L 684 794 
z
" transform="scale(0.015625)"/>
        <path id="DejaVuSans-39" d="M 703 97 
L 703 672 
Q 941 559 1184 500 
Q 1428 441 1663 441 
Q 2288 441 2617 861 
Q 2947 1281 2994 2138 
Q 2813 1869 2534 1725 
Q 2256 1581 1919 1581 
Q 1219 1581 811 2004 
Q 403 2428 403 3163 
Q 403 3881 828 4315 
Q 1253 4750 1959 4750 
Q 2769 4750 3195 4129 
Q 3622 3509 3622 2328 
Q 3622 1225 3098 567 
Q 2575 -91 1691 -91 
Q 1453 -91 1209 -44 
Q 966 3 703 97 
z
M 1959 2075 
Q 2384 2075 2632 2365 
Q 2881 2656 2881 3163 
Q 2881 3666 2632 3958 
Q 2384 4250 1959 4250 
Q 1534 4250 1286 3958 
Q 1038 3666 1038 3163 
Q 1038 2656 1286 2365 
Q 1534 2075 1959 2075 
z
" transform="scale(0.015625)"/>
       </defs>
       <use xlink:href="#DejaVuSans-30"/>
       <use xlink:href="#DejaVuSans-2e" x="63.623047"/>
       <use xlink:href="#DejaVuSans-39" x="95.410156"/>
       <use xlink:href="#DejaVuSans-30" x="159.033203"/>
      </g>
     </g>
    </g>
    <g id="xtick_2">
     <g id="line2d_2">
      <g>
       <use xlink:href="#m34292c5698" x="117.971309" y="339.84" style="stroke: #000000; stroke-width: 0.8"/>
      </g>
     </g>
     <g id="text_2">
      <!-- 0.92 -->
      <g transform="translate(102.385372 357.477813) scale(0.14 -0.14)">
       <defs>
        <path id="DejaVuSans-32" d="M 1228 531 
L 3431 531 
L 3431 0 
L 469 0 
L 469 531 
Q 828 903 1448 1529 
Q 2069 2156 2228 2338 
Q 2531 2678 2651 2914 
Q 2772 3150 2772 3378 
Q 2772 3750 2511 3984 
Q 2250 4219 1831 4219 
Q 1534 4219 1204 4116 
Q 875 4013 500 3803 
L 500 4441 
Q 881 4594 1212 4672 
Q 1544 4750 1819 4750 
Q 2544 4750 2975 4387 
Q 3406 4025 3406 3419 
Q 3406 3131 3298 2873 
Q 3191 2616 2906 2266 
Q 2828 2175 2409 1742 
Q 1991 1309 1228 531 
z
" transform="scale(0.015625)"/>
       </defs>
       <use xlink:href="#DejaVuSans-30"/>
       <use xlink:href="#DejaVuSans-2e" x="63.623047"/>
       <use xlink:href="#DejaVuSans-39" x="95.410156"/>
       <use xlink:href="#DejaVuSans-32" x="159.033203"/>
      </g>
     </g>
    </g>
    <g id="xtick_3">
     <g id="line2d_3">
      <g>
       <use xlink:href="#m34292c5698" x="165.15947" y="339.84" style="stroke: #000000; stroke-width: 0.8"/>
      </g>
     </g>
     <g id="text_3">
      <!-- 0.94 -->
      <g transform="translate(149.573533 357.477813) scale(0.14 -0.14)">
       <defs>
        <path id="DejaVuSans-34" d="M 2419 4116 
L 825 1625 
L 2419 1625 
L 2419 4116 
z
M 2253 4666 
L 3047 4666 
L 3047 1625 
L 3713 1625 
L 3713 1100 
L 3047 1100 
L 3047 0 
L 2419 0 
L 2419 1100 
L 313 1100 
L 313 1709 
L 2253 4666 
z
" transform="scale(0.015625)"/>
       </defs>
       <use xlink:href="#DejaVuSans-30"/>
       <use xlink:href="#DejaVuSans-2e" x="63.623047"/>
       <use xlink:href="#DejaVuSans-39" x="95.410156"/>
       <use xlink:href="#DejaVuSans-34" x="159.033203"/>
      </g>
     </g>
    </g>
    <g id="xtick_4">
     <g id="line2d_4">
      <g>
       <use xlink:href="#m34292c5698" x="212.347631" y="339.84" style="stroke: #000000; stroke-width: 0.8"/>
      </g>
     </g>
     <g id="text_4">
      <!-- 0.96 -->
      <g transform="translate(196.761693 357.477813) scale(0.14 -0.14)">
       <defs>
        <path id="DejaVuSans-36" d="M 2113 2584 
Q 1688 2584 1439 2293 
Q 1191 2003 1191 1497 
Q 1191 994 1439 701 
Q 1688 409 2113 409 
Q 2538 409 2786 701 
Q 3034 994 3034 1497 
Q 3034 2003 2786 2293 
Q 2538 2584 2113 2584 
z
M 3366 4563 
L 3366 3988 
Q 3128 4100 2886 4159 
Q 2644 4219 2406 4219 
Q 1781 4219 1451 3797 
Q 1122 3375 1075 2522 
Q 1259 2794 1537 2939 
Q 1816 3084 2150 3084 
Q 2853 3084 3261 2657 
Q 3669 2231 3669 1497 
Q 3669 778 3244 343 
Q 2819 -91 2113 -91 
Q 1303 -91 875 529 
Q 447 1150 447 2328 
Q 447 3434 972 4092 
Q 1497 4750 2381 4750 
Q 2619 4750 2861 4703 
Q 3103 4656 3366 4563 
z
" transform="scale(0.015625)"/>
       </defs>
       <use xlink:href="#DejaVuSans-30"/>
       <use xlink:href="#DejaVuSans-2e" x="63.623047"/>
       <use xlink:href="#DejaVuSans-39" x="95.410156"/>
       <use xlink:href="#DejaVuSans-36" x="159.033203"/>
      </g>
     </g>
    </g>
    <g id="xtick_5">
     <g id="line2d_5">
      <g>
       <use xlink:href="#m34292c5698" x="259.535791" y="339.84" style="stroke: #000000; stroke-width: 0.8"/>
      </g>
     </g>
     <g id="text_5">
      <!-- 0.98 -->
      <g transform="translate(243.949854 357.477813) scale(0.14 -0.14)">
       <defs>
        <path id="DejaVuSans-38" d="M 2034 2216 
Q 1584 2216 1326 1975 
Q 1069 1734 1069 1313 
Q 1069 891 1326 650 
Q 1584 409 2034 409 
Q 2484 409 2743 651 
Q 3003 894 3003 1313 
Q 3003 1734 2745 1975 
Q 2488 2216 2034 2216 
z
M 1403 2484 
Q 997 2584 770 2862 
Q 544 3141 544 3541 
Q 544 4100 942 4425 
Q 1341 4750 2034 4750 
Q 2731 4750 3128 4425 
Q 3525 4100 3525 3541 
Q 3525 3141 3298 2862 
Q 3072 2584 2669 2484 
Q 3125 2378 3379 2068 
Q 3634 1759 3634 1313 
Q 3634 634 3220 271 
Q 2806 -91 2034 -91 
Q 1263 -91 848 271 
Q 434 634 434 1313 
Q 434 1759 690 2068 
Q 947 2378 1403 2484 
z
M 1172 3481 
Q 1172 3119 1398 2916 
Q 1625 2713 2034 2713 
Q 2441 2713 2670 2916 
Q 2900 3119 2900 3481 
Q 2900 3844 2670 4047 
Q 2441 4250 2034 4250 
Q 1625 4250 1398 4047 
Q 1172 3844 1172 3481 
z
" transform="scale(0.015625)"/>
       </defs>
       <use xlink:href="#DejaVuSans-30"/>
       <use xlink:href="#DejaVuSans-2e" x="63.623047"/>
       <use xlink:href="#DejaVuSans-39" x="95.410156"/>
       <use xlink:href="#DejaVuSans-38" x="159.033203"/>
      </g>
     </g>
    </g>
    <g id="xtick_6">
     <g id="line2d_6">
      <g>
       <use xlink:href="#m34292c5698" x="306.723952" y="339.84" style="stroke: #000000; stroke-width: 0.8"/>
      </g>
     </g>
     <g id="text_6">
      <!-- 1.00 -->
      <g transform="translate(291.138015 357.477813) scale(0.14 -0.14)">
       <defs>
        <path id="DejaVuSans-31" d="M 794 531 
L 1825 531 
L 1825 4091 
L 703 3866 
L 703 4441 
L 1819 4666 
L 2450 4666 
L 2450 531 
L 3481 531 
L 3481 0 
L 794 0 
L 794 531 
z
" transform="scale(0.015625)"/>
       </defs>
       <use xlink:href="#DejaVuSans-31"/>
       <use xlink:href="#DejaVuSans-2e" x="63.623047"/>
       <use xlink:href="#DejaVuSans-30" x="95.410156"/>
       <use xlink:href="#DejaVuSans-30" x="159.033203"/>
      </g>
     </g>
    </g>
    <g id="xtick_7">
     <g id="line2d_7">
      <g>
       <use xlink:href="#m34292c5698" x="353.912113" y="339.84" style="stroke: #000000; stroke-width: 0.8"/>
      </g>
     </g>
     <g id="text_7">
      <!-- 1.02 -->
      <g transform="translate(338.326175 357.477813) scale(0.14 -0.14)">
       <use xlink:href="#DejaVuSans-31"/>
       <use xlink:href="#DejaVuSans-2e" x="63.623047"/>
       <use xlink:href="#DejaVuSans-30" x="95.410156"/>
       <use xlink:href="#DejaVuSans-32" x="159.033203"/>
      </g>
     </g>
    </g>
    <g id="text_8">
     <!-- $\mu_d$ multiplier -->
     <g transform="translate(169.524375 378.069375) scale(0.18 -0.18)">
      <defs>
       <path id="DejaVuSans-Oblique-3bc" d="M -84 -1331 
L 856 3500 
L 1434 3500 
L 1009 1322 
Q 997 1256 987 1175 
Q 978 1094 978 1013 
Q 978 722 1161 565 
Q 1344 409 1684 409 
Q 2147 409 2431 671 
Q 2716 934 2816 1459 
L 3213 3500 
L 3788 3500 
L 3266 809 
Q 3253 750 3248 706 
Q 3244 663 3244 628 
Q 3244 531 3283 486 
Q 3322 441 3406 441 
Q 3438 441 3492 456 
Q 3547 472 3647 513 
L 3559 50 
Q 3422 -19 3297 -55 
Q 3172 -91 3053 -91 
Q 2847 -91 2730 40 
Q 2613 172 2613 403 
Q 2438 153 2195 31 
Q 1953 -91 1625 -91 
Q 1334 -91 1117 43 
Q 900 178 831 397 
L 494 -1331 
L -84 -1331 
z
" transform="scale(0.015625)"/>
       <path id="DejaVuSans-Oblique-64" d="M 2675 525 
Q 2444 222 2128 65 
Q 1813 -91 1428 -91 
Q 903 -91 598 267 
Q 294 625 294 1247 
Q 294 1766 478 2236 
Q 663 2706 1013 3078 
Q 1244 3325 1534 3454 
Q 1825 3584 2144 3584 
Q 2481 3584 2739 3421 
Q 2997 3259 3138 2956 
L 3513 4863 
L 4091 4863 
L 3144 0 
L 2566 0 
L 2675 525 
z
M 891 1350 
Q 891 897 1095 644 
Q 1300 391 1663 391 
Q 1931 391 2161 520 
Q 2391 650 2566 903 
Q 2750 1166 2856 1509 
Q 2963 1853 2963 2188 
Q 2963 2622 2758 2865 
Q 2553 3109 2194 3109 
Q 1922 3109 1687 2981 
Q 1453 2853 1288 2613 
Q 1106 2353 998 2009 
Q 891 1666 891 1350 
z
" transform="scale(0.015625)"/>
       <path id="DejaVuSans-20" transform="scale(0.015625)"/>
       <path id="DejaVuSans-6d" d="M 3328 2828 
Q 3544 3216 3844 3400 
Q 4144 3584 4550 3584 
Q 5097 3584 5394 3201 
Q 5691 2819 5691 2113 
L 5691 0 
L 5113 0 
L 5113 2094 
Q 5113 2597 4934 2840 
Q 4756 3084 4391 3084 
Q 3944 3084 3684 2787 
Q 3425 2491 3425 1978 
L 3425 0 
L 2847 0 
L 2847 2094 
Q 2847 2600 2669 2842 
Q 2491 3084 2119 3084 
Q 1678 3084 1418 2786 
Q 1159 2488 1159 1978 
L 1159 0 
L 581 0 
L 581 3500 
L 1159 3500 
L 1159 2956 
Q 1356 3278 1631 3431 
Q 1906 3584 2284 3584 
Q 2666 3584 2933 3390 
Q 3200 3197 3328 2828 
z
" transform="scale(0.015625)"/>
       <path id="DejaVuSans-75" d="M 544 1381 
L 544 3500 
L 1119 3500 
L 1119 1403 
Q 1119 906 1312 657 
Q 1506 409 1894 409 
Q 2359 409 2629 706 
Q 2900 1003 2900 1516 
L 2900 3500 
L 3475 3500 
L 3475 0 
L 2900 0 
L 2900 538 
Q 2691 219 2414 64 
Q 2138 -91 1772 -91 
Q 1169 -91 856 284 
Q 544 659 544 1381 
z
M 1991 3584 
L 1991 3584 
z
" transform="scale(0.015625)"/>
       <path id="DejaVuSans-6c" d="M 603 4863 
L 1178 4863 
L 1178 0 
L 603 0 
L 603 4863 
z
" transform="scale(0.015625)"/>
       <path id="DejaVuSans-74" d="M 1172 4494 
L 1172 3500 
L 2356 3500 
L 2356 3053 
L 1172 3053 
L 1172 1153 
Q 1172 725 1289 603 
Q 1406 481 1766 481 
L 2356 481 
L 2356 0 
L 1766 0 
Q 1100 0 847 248 
Q 594 497 594 1153 
L 594 3053 
L 172 3053 
L 172 3500 
L 594 3500 
L 594 4494 
L 1172 4494 
z
" transform="scale(0.015625)"/>
       <path id="DejaVuSans-69" d="M 603 3500 
L 1178 3500 
L 1178 0 
L 603 0 
L 603 3500 
z
M 603 4863 
L 1178 4863 
L 1178 4134 
L 603 4134 
L 603 4863 
z
" transform="scale(0.015625)"/>
       <path id="DejaVuSans-70" d="M 1159 525 
L 1159 -1331 
L 581 -1331 
L 581 3500 
L 1159 3500 
L 1159 2969 
Q 1341 3281 1617 3432 
Q 1894 3584 2278 3584 
Q 2916 3584 3314 3078 
Q 3713 2572 3713 1747 
Q 3713 922 3314 415 
Q 2916 -91 2278 -91 
Q 1894 -91 1617 61 
Q 1341 213 1159 525 
z
M 3116 1747 
Q 3116 2381 2855 2742 
Q 2594 3103 2138 3103 
Q 1681 3103 1420 2742 
Q 1159 2381 1159 1747 
Q 1159 1113 1420 752 
Q 1681 391 2138 391 
Q 2594 391 2855 752 
Q 3116 1113 3116 1747 
z
" transform="scale(0.015625)"/>
       <path id="DejaVuSans-65" d="M 3597 1894 
L 3597 1613 
L 953 1613 
Q 991 1019 1311 708 
Q 1631 397 2203 397 
Q 2534 397 2845 478 
Q 3156 559 3463 722 
L 3463 178 
Q 3153 47 2828 -22 
Q 2503 -91 2169 -91 
Q 1331 -91 842 396 
Q 353 884 353 1716 
Q 353 2575 817 3079 
Q 1281 3584 2069 3584 
Q 2775 3584 3186 3129 
Q 3597 2675 3597 1894 
z
M 3022 2063 
Q 3016 2534 2758 2815 
Q 2500 3097 2075 3097 
Q 1594 3097 1305 2825 
Q 1016 2553 972 2059 
L 3022 2063 
z
" transform="scale(0.015625)"/>
       <path id="DejaVuSans-72" d="M 2631 2963 
Q 2534 3019 2420 3045 
Q 2306 3072 2169 3072 
Q 1681 3072 1420 2755 
Q 1159 2438 1159 1844 
L 1159 0 
L 581 0 
L 581 3500 
L 1159 3500 
L 1159 2956 
Q 1341 3275 1631 3429 
Q 1922 3584 2338 3584 
Q 2397 3584 2469 3576 
Q 2541 3569 2628 3553 
L 2631 2963 
z
" transform="scale(0.015625)"/>
      </defs>
      <use xlink:href="#DejaVuSans-Oblique-3bc" transform="translate(0 0.015625)"/>
      <use xlink:href="#DejaVuSans-Oblique-64" transform="translate(63.623047 -16.390625) scale(0.7)"/>
      <use xlink:href="#DejaVuSans-20" transform="translate(110.791016 0.015625)"/>
      <use xlink:href="#DejaVuSans-6d" transform="translate(142.578125 0.015625)"/>
      <use xlink:href="#DejaVuSans-75" transform="translate(239.990234 0.015625)"/>
      <use xlink:href="#DejaVuSans-6c" transform="translate(303.369141 0.015625)"/>
      <use xlink:href="#DejaVuSans-74" transform="translate(331.152344 0.015625)"/>
      <use xlink:href="#DejaVuSans-69" transform="translate(370.361328 0.015625)"/>
      <use xlink:href="#DejaVuSans-70" transform="translate(398.144531 0.015625)"/>
      <use xlink:href="#DejaVuSans-6c" transform="translate(461.621094 0.015625)"/>
      <use xlink:href="#DejaVuSans-69" transform="translate(489.404297 0.015625)"/>
      <use xlink:href="#DejaVuSans-65" transform="translate(517.1875 0.015625)"/>
      <use xlink:href="#DejaVuSans-72" transform="translate(578.710938 0.015625)"/>
     </g>
    </g>
   </g>
   <g id="matplotlib.axis_2">
    <g id="ytick_1">
     <g id="line2d_8">
      <defs>
       <path id="m56ab5254c9" d="M 0 0 
L -3.5 0 
" style="stroke: #000000; stroke-width: 0.8"/>
      </defs>
      <g>
       <use xlink:href="#m56ab5254c9" x="57.924375" y="312.509755" style="stroke: #000000; stroke-width: 0.8"/>
      </g>
     </g>
     <g id="text_9">
      <!-- 0.5 -->
      <g transform="translate(28.66 317.828661) scale(0.14 -0.14)">
       <defs>
        <path id="DejaVuSans-35" d="M 691 4666 
L 3169 4666 
L 3169 4134 
L 1269 4134 
L 1269 2991 
Q 1406 3038 1543 3061 
Q 1681 3084 1819 3084 
Q 2600 3084 3056 2656 
Q 3513 2228 3513 1497 
Q 3513 744 3044 326 
Q 2575 -91 1722 -91 
Q 1428 -91 1123 -41 
Q 819 9 494 109 
L 494 744 
Q 775 591 1075 516 
Q 1375 441 1709 441 
Q 2250 441 2565 725 
Q 2881 1009 2881 1497 
Q 2881 1984 2565 2268 
Q 2250 2553 1709 2553 
Q 1456 2553 1204 2497 
Q 953 2441 691 2322 
L 691 4666 
z
" transform="scale(0.015625)"/>
       </defs>
       <use xlink:href="#DejaVuSans-30"/>
       <use xlink:href="#DejaVuSans-2e" x="63.623047"/>
       <use xlink:href="#DejaVuSans-35" x="95.410156"/>
      </g>
     </g>
    </g>
    <g id="ytick_2">
     <g id="line2d_9">
      <g>
       <use xlink:href="#m56ab5254c9" x="57.924375" y="244.390094" style="stroke: #000000; stroke-width: 0.8"/>
      </g>
     </g>
     <g id="text_10">
      <!-- 1.0 -->
      <g transform="translate(28.66 249.709) scale(0.14 -0.14)">
       <use xlink:href="#DejaVuSans-31"/>
       <use xlink:href="#DejaVuSans-2e" x="63.623047"/>
       <use xlink:href="#DejaVuSans-30" x="95.410156"/>
      </g>
     </g>
    </g>
    <g id="ytick_3">
     <g id="line2d_10">
      <g>
       <use xlink:href="#m56ab5254c9" x="57.924375" y="176.270433" style="stroke: #000000; stroke-width: 0.8"/>
      </g>
     </g>
     <g id="text_11">
      <!-- 1.5 -->
      <g transform="translate(28.66 181.589339) scale(0.14 -0.14)">
       <use xlink:href="#DejaVuSans-31"/>
       <use xlink:href="#DejaVuSans-2e" x="63.623047"/>
       <use xlink:href="#DejaVuSans-35" x="95.410156"/>
      </g>
     </g>
    </g>
    <g id="ytick_4">
     <g id="line2d_11">
      <g>
       <use xlink:href="#m56ab5254c9" x="57.924375" y="108.150773" style="stroke: #000000; stroke-width: 0.8"/>
      </g>
     </g>
     <g id="text_12">
      <!-- 2.0 -->
      <g transform="translate(28.66 113.469679) scale(0.14 -0.14)">
       <use xlink:href="#DejaVuSans-32"/>
       <use xlink:href="#DejaVuSans-2e" x="63.623047"/>
       <use xlink:href="#DejaVuSans-30" x="95.410156"/>
      </g>
     </g>
    </g>
    <g id="ytick_5">
     <g id="line2d_12">
      <g>
       <use xlink:href="#m56ab5254c9" x="57.924375" y="40.031112" style="stroke: #000000; stroke-width: 0.8"/>
      </g>
     </g>
     <g id="text_13">
      <!-- 2.5 -->
      <g transform="translate(28.66 45.350018) scale(0.14 -0.14)">
       <use xlink:href="#DejaVuSans-32"/>
       <use xlink:href="#DejaVuSans-2e" x="63.623047"/>
       <use xlink:href="#DejaVuSans-35" x="95.410156"/>
      </g>
     </g>
    </g>
    <g id="text_14">
     <!-- $\sigma_d$ multiplier -->
     <g transform="translate(20.88 229.32) rotate(-90) scale(0.18 -0.18)">
      <defs>
       <path id="DejaVuSans-Oblique-3c3" d="M 2219 3044 
Q 1744 3044 1422 2700 
Q 1081 2341 969 1747 
Q 844 1119 1044 756 
Q 1241 397 1706 397 
Q 2166 397 2503 759 
Q 2844 1122 2966 1747 
Q 3075 2319 2881 2700 
Q 2700 3044 2219 3044 
z
M 2309 3503 
L 4219 3500 
L 4106 2925 
L 3463 2925 
Q 3706 2438 3575 1747 
Q 3406 888 2884 400 
Q 2359 -91 1609 -91 
Q 856 -91 525 400 
Q 194 888 363 1747 
Q 528 2609 1050 3097 
Q 1484 3503 2309 3503 
z
" transform="scale(0.015625)"/>
      </defs>
      <use xlink:href="#DejaVuSans-Oblique-3c3" transform="translate(0 0.015625)"/>
      <use xlink:href="#DejaVuSans-Oblique-64" transform="translate(63.378906 -16.390625) scale(0.7)"/>
      <use xlink:href="#DejaVuSans-20" transform="translate(110.546875 0.015625)"/>
      <use xlink:href="#DejaVuSans-6d" transform="translate(142.333984 0.015625)"/>
      <use xlink:href="#DejaVuSans-75" transform="translate(239.746094 0.015625)"/>
      <use xlink:href="#DejaVuSans-6c" transform="translate(303.125 0.015625)"/>
      <use xlink:href="#DejaVuSans-74" transform="translate(330.908203 0.015625)"/>
      <use xlink:href="#DejaVuSans-69" transform="translate(370.117188 0.015625)"/>
      <use xlink:href="#DejaVuSans-70" transform="translate(397.900391 0.015625)"/>
      <use xlink:href="#DejaVuSans-6c" transform="translate(461.376953 0.015625)"/>
      <use xlink:href="#DejaVuSans-69" transform="translate(489.160156 0.015625)"/>
      <use xlink:href="#DejaVuSans-65" transform="translate(516.943359 0.015625)"/>
      <use xlink:href="#DejaVuSans-72" transform="translate(578.466797 0.015625)"/>
     </g>
    </g>
   </g>
   <g id="PathCollection_1">
    <defs>
     <path id="mbc9d023462" d="M 0 3 
C 0.795609 3 1.55874 2.683901 2.12132 2.12132 
C 2.683901 1.55874 3 0.795609 3 0 
C 3 -0.795609 2.683901 -1.55874 2.12132 -2.12132 
C 1.55874 -2.683901 0.795609 -3 0 -3 
C -0.795609 -3 -1.55874 -2.683901 -2.12132 -2.12132 
C -2.683901 -1.55874 -3 -0.795609 -3 0 
C -3 0.795609 -2.683901 1.55874 -2.12132 2.12132 
C -1.55874 2.683901 -0.795609 3 0 3 
z
" style="stroke: #808080"/>
    </defs>
    <g clip-path="url(#p1375242e40)">
     <use xlink:href="#mbc9d023462" x="330.318033" y="213.05505" style="fill: #808080; stroke: #808080"/>
     <use xlink:href="#mbc9d023462" x="268.973424" y="230.766162" style="fill: #808080; stroke: #808080"/>
     <use xlink:href="#mbc9d023462" x="285.48928" y="41.393505" style="fill: #808080; stroke: #808080"/>
     <use xlink:href="#mbc9d023462" x="212.347631" y="240.302914" style="fill: #808080; stroke: #808080"/>
     <use xlink:href="#mbc9d023462" x="252.457567" y="35.943932" style="fill: #808080; stroke: #808080"/>
     <use xlink:href="#mbc9d023462" x="353.912113" y="210.330264" style="fill: #808080; stroke: #808080"/>
     <use xlink:href="#mbc9d023462" x="330.318033" y="46.843078" style="fill: #808080; stroke: #808080"/>
     <use xlink:href="#mbc9d023462" x="273.69224" y="49.567864" style="fill: #808080; stroke: #808080"/>
     <use xlink:href="#mbc9d023462" x="82.580189" y="222.591803" style="fill: #808080; stroke: #808080"/>
     <use xlink:href="#mbc9d023462" x="306.723952" y="261.147531" style="fill: #808080; stroke: #808080"/>
     <use xlink:href="#mbc9d023462" x="353.912113" y="215.779836" style="fill: #808080; stroke: #808080"/>
     <use xlink:href="#mbc9d023462" x="160.440654" y="97.251627" style="fill: #808080; stroke: #808080"/>
     <use xlink:href="#mbc9d023462" x="148.643614" y="59.104617" style="fill: #808080; stroke: #808080"/>
     <use xlink:href="#mbc9d023462" x="252.457567" y="34.581539" style="fill: #808080; stroke: #808080"/>
     <use xlink:href="#mbc9d023462" x="209.988223" y="140.84821" style="fill: #808080; stroke: #808080"/>
     <use xlink:href="#mbc9d023462" x="87.299005" y="138.123423" style="fill: #808080; stroke: #808080"/>
     <use xlink:href="#mbc9d023462" x="132.127758" y="101.338806" style="fill: #808080; stroke: #808080"/>
     <use xlink:href="#mbc9d023462" x="264.254608" y="251.747017" style="fill: #808080; stroke: #808080"/>
     <use xlink:href="#mbc9d023462" x="125.049534" y="199.431118" style="fill: #808080; stroke: #808080"/>
     <use xlink:href="#mbc9d023462" x="122.690126" y="109.513166" style="fill: #808080; stroke: #808080"/>
     <use xlink:href="#mbc9d023462" x="205.269407" y="169.458467" style="fill: #808080; stroke: #808080"/>
     <use xlink:href="#mbc9d023462" x="299.645728" y="102.7012" style="fill: #808080; stroke: #808080"/>
     <use xlink:href="#mbc9d023462" x="101.455453" y="82.265301" style="fill: #808080; stroke: #808080"/>
     <use xlink:href="#mbc9d023462" x="165.15947" y="79.540515" style="fill: #808080; stroke: #808080"/>
     <use xlink:href="#mbc9d023462" x="235.941711" y="250.248385" style="fill: #808080; stroke: #808080"/>
     <use xlink:href="#mbc9d023462" x="77.861373" y="56.37983" style="fill: #808080; stroke: #808080"/>
     <use xlink:href="#mbc9d023462" x="129.76835" y="244.935051" style="fill: #808080; stroke: #808080"/>
     <use xlink:href="#mbc9d023462" x="306.723952" y="64.55419" style="fill: #808080; stroke: #808080"/>
     <use xlink:href="#mbc9d023462" x="330.318033" y="71.366156" style="fill: #808080; stroke: #808080"/>
     <use xlink:href="#mbc9d023462" x="80.220781" y="234.853341" style="fill: #808080; stroke: #808080"/>
     <use xlink:href="#mbc9d023462" x="240.660527" y="22.32" style="fill: #808080; stroke: #808080"/>
     <use xlink:href="#mbc9d023462" x="191.112959" y="183.082399" style="fill: #808080; stroke: #808080"/>
     <use xlink:href="#mbc9d023462" x="165.15947" y="154.472142" style="fill: #808080; stroke: #808080"/>
     <use xlink:href="#mbc9d023462" x="280.770464" y="159.921715" style="fill: #808080; stroke: #808080"/>
     <use xlink:href="#mbc9d023462" x="238.301119" y="134.036244" style="fill: #808080; stroke: #808080"/>
     <use xlink:href="#mbc9d023462" x="264.254608" y="238.940521" style="fill: #808080; stroke: #808080"/>
     <use xlink:href="#mbc9d023462" x="99.096045" y="117.687525" style="fill: #808080; stroke: #808080"/>
     <use xlink:href="#mbc9d023462" x="306.723952" y="180.357613" style="fill: #808080; stroke: #808080"/>
     <use xlink:href="#mbc9d023462" x="302.005136" y="114.962739" style="fill: #808080; stroke: #808080"/>
     <use xlink:href="#mbc9d023462" x="184.034734" y="157.196928" style="fill: #808080; stroke: #808080"/>
     <use xlink:href="#mbc9d023462" x="141.56539" y="219.867016" style="fill: #808080; stroke: #808080"/>
     <use xlink:href="#mbc9d023462" x="75.501965" y="113.600345" style="fill: #808080; stroke: #808080"/>
     <use xlink:href="#mbc9d023462" x="377.506193" y="104.063593" style="fill: #808080; stroke: #808080"/>
     <use xlink:href="#mbc9d023462" x="106.174269" y="129.949064" style="fill: #808080; stroke: #808080"/>
     <use xlink:href="#mbc9d023462" x="184.034734" y="149.022569" style="fill: #808080; stroke: #808080"/>
     <use xlink:href="#mbc9d023462" x="353.912113" y="174.90804" style="fill: #808080; stroke: #808080"/>
     <use xlink:href="#mbc9d023462" x="226.504079" y="30.494359" style="fill: #808080; stroke: #808080"/>
     <use xlink:href="#mbc9d023462" x="207.628815" y="136.76103" style="fill: #808080; stroke: #808080"/>
     <use xlink:href="#mbc9d023462" x="306.723952" y="70.003763" style="fill: #808080; stroke: #808080"/>
     <use xlink:href="#mbc9d023462" x="330.318033" y="196.706331" style="fill: #808080; stroke: #808080"/>
     <use xlink:href="#mbc9d023462" x="143.924798" y="91.802054" style="fill: #808080; stroke: #808080"/>
     <use xlink:href="#mbc9d023462" x="221.785263" y="191.256759" style="fill: #808080; stroke: #808080"/>
     <use xlink:href="#mbc9d023462" x="195.831775" y="206.243084" style="fill: #808080; stroke: #808080"/>
     <use xlink:href="#mbc9d023462" x="160.440654" y="151.747355" style="fill: #808080; stroke: #808080"/>
     <use xlink:href="#mbc9d023462" x="214.707039" y="40.031112" style="fill: #808080; stroke: #808080"/>
     <use xlink:href="#mbc9d023462" x="110.893085" y="90.439661" style="fill: #808080; stroke: #808080"/>
     <use xlink:href="#mbc9d023462" x="73.142557" y="165.371288" style="fill: #808080; stroke: #808080"/>
     <use xlink:href="#mbc9d023462" x="151.003022" y="29.131966" style="fill: #808080; stroke: #808080"/>
     <use xlink:href="#mbc9d023462" x="224.144671" y="195.343938" style="fill: #808080; stroke: #808080"/>
     <use xlink:href="#mbc9d023462" x="115.611901" y="121.774705" style="fill: #808080; stroke: #808080"/>
     <use xlink:href="#mbc9d023462" x="283.129872" y="233.490948" style="fill: #808080; stroke: #808080"/>
     <use xlink:href="#mbc9d023462" x="94.377229" y="26.40718" style="fill: #808080; stroke: #808080"/>
     <use xlink:href="#mbc9d023462" x="377.506193" y="127.224278" style="fill: #808080; stroke: #808080"/>
     <use xlink:href="#mbc9d023462" x="353.912113" y="177.632826" style="fill: #808080; stroke: #808080"/>
     <use xlink:href="#mbc9d023462" x="287.848688" y="162.646501" style="fill: #808080; stroke: #808080"/>
     <use xlink:href="#mbc9d023462" x="228.863487" y="273.136591" style="fill: #808080; stroke: #808080"/>
     <use xlink:href="#mbc9d023462" x="89.658413" y="53.655044" style="fill: #808080; stroke: #808080"/>
     <use xlink:href="#mbc9d023462" x="120.330717" y="146.297783" style="fill: #808080; stroke: #808080"/>
     <use xlink:href="#mbc9d023462" x="179.315918" y="144.935389" style="fill: #808080; stroke: #808080"/>
     <use xlink:href="#mbc9d023462" x="330.318033" y="254.199325" style="fill: #808080; stroke: #808080"/>
     <use xlink:href="#mbc9d023462" x="306.723952" y="217.14223" style="fill: #808080; stroke: #808080"/>
     <use xlink:href="#mbc9d023462" x="330.318033" y="265.23471" style="fill: #808080; stroke: #808080"/>
     <use xlink:href="#mbc9d023462" x="174.597102" y="258.286505" style="fill: #808080; stroke: #808080"/>
     <use xlink:href="#mbc9d023462" x="245.379343" y="229.403769" style="fill: #808080; stroke: #808080"/>
     <use xlink:href="#mbc9d023462" x="353.912113" y="75.453335" style="fill: #808080; stroke: #808080"/>
     <use xlink:href="#mbc9d023462" x="200.550591" y="207.605477" style="fill: #808080; stroke: #808080"/>
     <use xlink:href="#mbc9d023462" x="243.019935" y="191.256759" style="fill: #808080; stroke: #808080"/>
     <use xlink:href="#mbc9d023462" x="202.909999" y="184.444793" style="fill: #808080; stroke: #808080"/>
     <use xlink:href="#mbc9d023462" x="174.597102" y="128.586671" style="fill: #808080; stroke: #808080"/>
     <use xlink:href="#mbc9d023462" x="377.506193" y="45.480685" style="fill: #808080; stroke: #808080"/>
     <use xlink:href="#mbc9d023462" x="292.567504" y="172.183254" style="fill: #808080; stroke: #808080"/>
     <use xlink:href="#mbc9d023462" x="278.411056" y="65.916583" style="fill: #808080; stroke: #808080"/>
     <use xlink:href="#mbc9d023462" x="330.318033" y="266.324625" style="fill: #808080; stroke: #808080"/>
     <use xlink:href="#mbc9d023462" x="127.408942" y="188.531972" style="fill: #808080; stroke: #808080"/>
     <use xlink:href="#mbc9d023462" x="257.176383" y="109.513166" style="fill: #808080; stroke: #808080"/>
     <use xlink:href="#mbc9d023462" x="271.332832" y="257.469069" style="fill: #808080; stroke: #808080"/>
     <use xlink:href="#mbc9d023462" x="108.533677" y="270.411804" style="fill: #808080; stroke: #808080"/>
     <use xlink:href="#mbc9d023462" x="330.318033" y="246.842402" style="fill: #808080; stroke: #808080"/>
     <use xlink:href="#mbc9d023462" x="353.912113" y="119.049918" style="fill: #808080; stroke: #808080"/>
     <use xlink:href="#mbc9d023462" x="141.56539" y="95.889234" style="fill: #808080; stroke: #808080"/>
     <use xlink:href="#mbc9d023462" x="188.75355" y="52.292651" style="fill: #808080; stroke: #808080"/>
     <use xlink:href="#mbc9d023462" x="231.222895" y="87.714874" style="fill: #808080; stroke: #808080"/>
     <use xlink:href="#mbc9d023462" x="353.912113" y="61.829403" style="fill: #808080; stroke: #808080"/>
     <use xlink:href="#mbc9d023462" x="377.506193" y="78.178122" style="fill: #808080; stroke: #808080"/>
     <use xlink:href="#mbc9d023462" x="172.237694" y="203.518298" style="fill: #808080; stroke: #808080"/>
     <use xlink:href="#mbc9d023462" x="96.736637" y="84.990088" style="fill: #808080; stroke: #808080"/>
     <use xlink:href="#mbc9d023462" x="136.846574" y="226.678982" style="fill: #808080; stroke: #808080"/>
     <use xlink:href="#mbc9d023462" x="259.535791" y="276.270095" style="fill: #808080; stroke: #808080"/>
     <use xlink:href="#mbc9d023462" x="153.36243" y="166.733681" style="fill: #808080; stroke: #808080"/>
     <use xlink:href="#mbc9d023462" x="294.926912" y="275.31642" style="fill: #808080; stroke: #808080"/>
    </g>
   </g>
   <g id="patch_6">
    <path d="M 57.924375 339.84 
L 57.924375 7.2 
" style="fill: none; stroke: #000000; stroke-width: 0.8; stroke-linejoin: miter; stroke-linecap: square"/>
   </g>
   <g id="patch_7">
    <path d="M 392.724375 339.84 
L 392.724375 7.2 
" style="fill: none; stroke: #000000; stroke-width: 0.8; stroke-linejoin: miter; stroke-linecap: square"/>
   </g>
   <g id="patch_8">
    <path d="M 57.924375 339.84 
L 392.724375 339.84 
" style="fill: none; stroke: #000000; stroke-width: 0.8; stroke-linejoin: miter; stroke-linecap: square"/>
   </g>
   <g id="patch_9">
    <path d="M 57.924375 7.2 
L 392.724375 7.2 
" style="fill: none; stroke: #000000; stroke-width: 0.8; stroke-linejoin: miter; stroke-linecap: square"/>
   </g>
   <g id="PathCollection_2">
    <defs>
     <path id="mffc8b9544f" d="M 0 3.535534 
C 0.937635 3.535534 1.836992 3.163008 2.5 2.5 
C 3.163008 1.836992 3.535534 0.937635 3.535534 0 
C 3.535534 -0.937635 3.163008 -1.836992 2.5 -2.5 
C 1.836992 -3.163008 0.937635 -3.535534 0 -3.535534 
C -0.937635 -3.535534 -1.836992 -3.163008 -2.5 -2.5 
C -3.163008 -1.836992 -3.535534 -0.937635 -3.535534 0 
C -3.535534 0.937635 -3.163008 1.836992 -2.5 2.5 
C -1.836992 3.163008 -0.937635 3.535534 0 3.535534 
z
" style="stroke: #ec932e"/>
    </defs>
    <g clip-path="url(#p1375242e40)">
     <use xlink:href="#mffc8b9544f" x="321.963077" y="264.033329" style="fill: #ec932e; stroke: #ec932e"/>
     <use xlink:href="#mffc8b9544f" x="322.433988" y="262.636143" style="fill: #ec932e; stroke: #ec932e"/>
     <use xlink:href="#mffc8b9544f" x="315.120852" y="270.206811" style="fill: #ec932e; stroke: #ec932e"/>
     <use xlink:href="#mffc8b9544f" x="320.720391" y="264.205495" style="fill: #ec932e; stroke: #ec932e"/>
     <use xlink:href="#mffc8b9544f" x="318.111547" y="270.630939" style="fill: #ec932e; stroke: #ec932e"/>
     <use xlink:href="#mffc8b9544f" x="322.421616" y="262.290222" style="fill: #ec932e; stroke: #ec932e"/>
     <use xlink:href="#mffc8b9544f" x="319.661272" y="267.677724" style="fill: #ec932e; stroke: #ec932e"/>
     <use xlink:href="#mffc8b9544f" x="323.7506" y="259.288243" style="fill: #ec932e; stroke: #ec932e"/>
     <use xlink:href="#mffc8b9544f" x="320.788085" y="266.387898" style="fill: #ec932e; stroke: #ec932e"/>
     <use xlink:href="#mffc8b9544f" x="322.157662" y="249.318971" style="fill: #ec932e; stroke: #ec932e"/>
     <use xlink:href="#mffc8b9544f" x="316.757192" y="251.683981" style="fill: #ec932e; stroke: #ec932e"/>
     <use xlink:href="#mffc8b9544f" x="331.459127" y="239.046038" style="fill: #ec932e; stroke: #ec932e"/>
     <use xlink:href="#mffc8b9544f" x="332.105527" y="239.281784" style="fill: #ec932e; stroke: #ec932e"/>
     <use xlink:href="#mffc8b9544f" x="324.919727" y="240.397169" style="fill: #ec932e; stroke: #ec932e"/>
     <use xlink:href="#mffc8b9544f" x="324.144788" y="243.325925" style="fill: #ec932e; stroke: #ec932e"/>
     <use xlink:href="#mffc8b9544f" x="328.956909" y="232.694511" style="fill: #ec932e; stroke: #ec932e"/>
     <use xlink:href="#mffc8b9544f" x="331.894474" y="210.952563" style="fill: #ec932e; stroke: #ec932e"/>
     <use xlink:href="#mffc8b9544f" x="324.380646" y="207.452899" style="fill: #ec932e; stroke: #ec932e"/>
     <use xlink:href="#mffc8b9544f" x="331.613358" y="239.127574" style="fill: #ec932e; stroke: #ec932e"/>
     <use xlink:href="#mffc8b9544f" x="331.596192" y="239.566528" style="fill: #ec932e; stroke: #ec932e"/>
     <use xlink:href="#mffc8b9544f" x="331.619381" y="241.915439" style="fill: #ec932e; stroke: #ec932e"/>
     <use xlink:href="#mffc8b9544f" x="330.949983" y="214.319451" style="fill: #ec932e; stroke: #ec932e"/>
     <use xlink:href="#mffc8b9544f" x="329.554804" y="216.99323" style="fill: #ec932e; stroke: #ec932e"/>
     <use xlink:href="#mffc8b9544f" x="328.83951" y="241.757952" style="fill: #ec932e; stroke: #ec932e"/>
     <use xlink:href="#mffc8b9544f" x="329.364725" y="242.818351" style="fill: #ec932e; stroke: #ec932e"/>
     <use xlink:href="#mffc8b9544f" x="299.891179" y="258.100049" style="fill: #ec932e; stroke: #ec932e"/>
     <use xlink:href="#mffc8b9544f" x="313.923176" y="324.72" style="fill: #ec932e; stroke: #ec932e"/>
     <use xlink:href="#mffc8b9544f" x="330.696447" y="239.040494" style="fill: #ec932e; stroke: #ec932e"/>
     <use xlink:href="#mffc8b9544f" x="310.892096" y="263.478681" style="fill: #ec932e; stroke: #ec932e"/>
     <use xlink:href="#mffc8b9544f" x="329.479474" y="241.033414" style="fill: #ec932e; stroke: #ec932e"/>
     <use xlink:href="#mffc8b9544f" x="330.582377" y="239.736087" style="fill: #ec932e; stroke: #ec932e"/>
     <use xlink:href="#mffc8b9544f" x="336.123207" y="215.827544" style="fill: #ec932e; stroke: #ec932e"/>
     <use xlink:href="#mffc8b9544f" x="338.970466" y="214.084976" style="fill: #ec932e; stroke: #ec932e"/>
     <use xlink:href="#mffc8b9544f" x="327.156854" y="242.684894" style="fill: #ec932e; stroke: #ec932e"/>
     <use xlink:href="#mffc8b9544f" x="334.216588" y="201.125378" style="fill: #ec932e; stroke: #ec932e"/>
     <use xlink:href="#mffc8b9544f" x="335.507608" y="202.661675" style="fill: #ec932e; stroke: #ec932e"/>
     <use xlink:href="#mffc8b9544f" x="329.122729" y="213.09211" style="fill: #ec932e; stroke: #ec932e"/>
     <use xlink:href="#mffc8b9544f" x="302.306427" y="249.958061" style="fill: #ec932e; stroke: #ec932e"/>
     <use xlink:href="#mffc8b9544f" x="333.590961" y="199.962386" style="fill: #ec932e; stroke: #ec932e"/>
     <use xlink:href="#mffc8b9544f" x="335.386188" y="208.948785" style="fill: #ec932e; stroke: #ec932e"/>
     <use xlink:href="#mffc8b9544f" x="334.585646" y="203.870121" style="fill: #ec932e; stroke: #ec932e"/>
     <use xlink:href="#mffc8b9544f" x="335.501516" y="199.669974" style="fill: #ec932e; stroke: #ec932e"/>
     <use xlink:href="#mffc8b9544f" x="326.291722" y="211.470947" style="fill: #ec932e; stroke: #ec932e"/>
     <use xlink:href="#mffc8b9544f" x="325.215233" y="227.538052" style="fill: #ec932e; stroke: #ec932e"/>
     <use xlink:href="#mffc8b9544f" x="331.773007" y="193.06535" style="fill: #ec932e; stroke: #ec932e"/>
     <use xlink:href="#mffc8b9544f" x="328.51061" y="196.110448" style="fill: #ec932e; stroke: #ec932e"/>
    </g>
   </g>
   <g id="PathCollection_3">
    <defs>
     <path id="ma6bded8d43" d="M 0 5 
C 1.326016 5 2.597899 4.473168 3.535534 3.535534 
C 4.473168 2.597899 5 1.326016 5 0 
C 5 -1.326016 4.473168 -2.597899 3.535534 -3.535534 
C 2.597899 -4.473168 1.326016 -5 0 -5 
C -1.326016 -5 -2.597899 -4.473168 -3.535534 -3.535534 
C -4.473168 -2.597899 -5 -1.326016 -5 0 
C -5 1.326016 -4.473168 2.597899 -3.535534 3.535534 
C -2.597899 4.473168 -1.326016 5 0 5 
z
" style="stroke: #000000"/>
    </defs>
    <g clip-path="url(#p1375242e40)">
     <use xlink:href="#ma6bded8d43" x="306.723952" y="244.390094" style="stroke: #000000"/>
    </g>
   </g>
  </g>
 </g>
 <defs>
  <clipPath id="p1375242e40">
   <rect x="57.924375" y="7.2" width="334.8" height="332.64"/>
  </clipPath>
 </defs>
</svg>
