<?xml version="1.0" encoding="utf-8" standalone="no"?>
<!DOCTYPE svg PUBLIC "-//W3C//DTD SVG 1.1//EN"
  "http://www.w3.org/Graphics/SVG/1.1/DTD/svg11.dtd">
<svg xmlns:xlink="http://www.w3.org/1999/xlink" width="432pt" height="576pt" viewBox="0 0 432 576" xmlns="http://www.w3.org/2000/svg" version="1.1">
 <metadata>
  <rdf:RDF xmlns:dc="http://purl.org/dc/elements/1.1/" xmlns:cc="http://creativecommons.org/ns#" xmlns:rdf="http://www.w3.org/1999/02/22-rdf-syntax-ns#">
   <cc:Work>
    <dc:type rdf:resource="http://purl.org/dc/dcmitype/StillImage"/>
    <dc:date>2023-12-21T13:25:13.404033</dc:date>
    <dc:format>image/svg+xml</dc:format>
    <dc:creator>
     <cc:Agent>
      <dc:title>Matplotlib v3.8.2, https://matplotlib.org/</dc:title>
     </cc:Agent>
    </dc:creator>
   </cc:Work>
  </rdf:RDF>
 </metadata>
 <defs>
  <style type="text/css">*{stroke-linejoin: round; stroke-linecap: butt}</style>
 </defs>
 <g id="figure_1">
  <g id="patch_1">
   <path d="M 0 576 
L 432 576 
L 432 0 
L 0 0 
z
" style="fill: #ffffff"/>
  </g>
  <g id="axes_1">
   <g id="patch_2">
    <path d="M 54 512.64 
L 388.8 512.64 
L 388.8 69.12 
L 54 69.12 
z
" style="fill: #ffffff"/>
   </g>
   <g id="PathCollection_1">
    <defs>
     <path id="C0_0_88629f3d7f" d="M 0 3.535534 
C 0.937635 3.535534 1.836992 3.163008 2.5 2.5 
C 3.163008 1.836992 3.535534 0.937635 3.535534 -0 
C 3.535534 -0.937635 3.163008 -1.836992 2.5 -2.5 
C 1.836992 -3.163008 0.937635 -3.535534 0 -3.535534 
C -0.937635 -3.535534 -1.836992 -3.163008 -2.5 -2.5 
C -3.163008 -1.836992 -3.535534 -0.937635 -3.535534 0 
C -3.535534 0.937635 -3.163008 1.836992 -2.5 2.5 
C -1.836992 3.163008 -0.937635 3.535534 0 3.535534 
z
"/>
    </defs>
    <g clip-path="url(#p2297d1626c)">
     <use xlink:href="#C0_0_88629f3d7f" x="370.448981" y="89.28" style="fill: #1e325c; stroke: #808080"/>
    </g>
    <g clip-path="url(#p2297d1626c)">
     <use xlink:href="#C0_0_88629f3d7f" x="346.837945" y="98.24" style="fill: #1e325c; stroke: #808080"/>
    </g>
    <g clip-path="url(#p2297d1626c)">
     <use xlink:href="#C0_0_88629f3d7f" x="372.418342" y="107.2" style="fill: #1e325c; stroke: #808080"/>
    </g>
    <g clip-path="url(#p2297d1626c)">
     <use xlink:href="#C0_0_88629f3d7f" x="373.581818" y="116.16" style="fill: #1e325c; stroke: #808080"/>
    </g>
    <g clip-path="url(#p2297d1626c)">
     <use xlink:href="#C0_0_88629f3d7f" x="333.445894" y="125.12" style="fill: #425c95; stroke: #808080"/>
    </g>
    <g clip-path="url(#p2297d1626c)">
     <use xlink:href="#C0_0_88629f3d7f" x="349.198154" y="134.08" style="fill: #1e325c; stroke: #808080"/>
    </g>
    <g clip-path="url(#p2297d1626c)">
     <use xlink:href="#C0_0_88629f3d7f" x="328.225365" y="143.04" style="fill: #425c95; stroke: #808080"/>
    </g>
    <g clip-path="url(#p2297d1626c)">
     <use xlink:href="#C0_0_88629f3d7f" x="349.77268" y="152" style="fill: #1e325c; stroke: #808080"/>
    </g>
    <g clip-path="url(#p2297d1626c)">
     <use xlink:href="#C0_0_88629f3d7f" x="318.202222" y="160.96" style="fill: #425c95; stroke: #808080"/>
    </g>
    <g clip-path="url(#p2297d1626c)">
     <use xlink:href="#C0_0_88629f3d7f" x="236.164633" y="169.92" style="fill: #c1ceeb; stroke: #808080"/>
    </g>
    <g clip-path="url(#p2297d1626c)">
     <use xlink:href="#C0_0_88629f3d7f" x="220.260196" y="178.88" style="fill: #c1ceeb; stroke: #808080"/>
    </g>
    <g clip-path="url(#p2297d1626c)">
     <use xlink:href="#C0_0_88629f3d7f" x="247.059119" y="187.84" style="fill: #c1ceeb; stroke: #808080"/>
    </g>
    <g clip-path="url(#p2297d1626c)">
     <use xlink:href="#C0_0_88629f3d7f" x="239.648018" y="196.8" style="fill: #c1ceeb; stroke: #808080"/>
    </g>
    <g clip-path="url(#p2297d1626c)">
     <use xlink:href="#C0_0_88629f3d7f" x="188.223219" y="205.76" style="fill: #fcca8f; stroke: #808080"/>
    </g>
    <g clip-path="url(#p2297d1626c)">
     <use xlink:href="#C0_0_88629f3d7f" x="186.688188" y="214.72" style="fill: #fcca8f; stroke: #808080"/>
    </g>
    <g clip-path="url(#p2297d1626c)">
     <use xlink:href="#C0_0_88629f3d7f" x="186.971362" y="223.68" style="fill: #fcca8f; stroke: #808080"/>
    </g>
    <g clip-path="url(#p2297d1626c)">
     <use xlink:href="#C0_0_88629f3d7f" x="185.869336" y="232.64" style="fill: #fcca8f; stroke: #808080"/>
    </g>
    <g clip-path="url(#p2297d1626c)">
     <use xlink:href="#C0_0_88629f3d7f" x="212.515689" y="241.6" style="fill: #c1ceeb; stroke: #808080"/>
    </g>
    <g clip-path="url(#p2297d1626c)">
     <use xlink:href="#C0_0_88629f3d7f" x="224.381148" y="250.56" style="fill: #c1ceeb; stroke: #808080"/>
    </g>
    <g clip-path="url(#p2297d1626c)">
     <use xlink:href="#C0_0_88629f3d7f" x="218.404652" y="259.52" style="fill: #c1ceeb; stroke: #808080"/>
    </g>
    <g clip-path="url(#p2297d1626c)">
     <use xlink:href="#C0_0_88629f3d7f" x="188.037291" y="268.48" style="fill: #fcca8f; stroke: #808080"/>
    </g>
    <g clip-path="url(#p2297d1626c)">
     <use xlink:href="#C0_0_88629f3d7f" x="140.640126" y="277.44" style="fill: #fcaf58; stroke: #808080"/>
    </g>
    <g clip-path="url(#p2297d1626c)">
     <use xlink:href="#C0_0_88629f3d7f" x="98.636879" y="286.4" style="fill: #ec932e; stroke: #808080"/>
    </g>
    <g clip-path="url(#p2297d1626c)">
     <use xlink:href="#C0_0_88629f3d7f" x="124.179873" y="295.36" style="fill: #ec932e; stroke: #808080"/>
    </g>
    <g clip-path="url(#p2297d1626c)">
     <use xlink:href="#C0_0_88629f3d7f" x="95.68869" y="304.32" style="fill: #ec932e; stroke: #808080"/>
    </g>
    <g clip-path="url(#p2297d1626c)">
     <use xlink:href="#C0_0_88629f3d7f" x="115.158101" y="313.28" style="fill: #ec932e; stroke: #808080"/>
    </g>
    <g clip-path="url(#p2297d1626c)">
     <use xlink:href="#C0_0_88629f3d7f" x="141.079015" y="322.24" style="fill: #fcaf58; stroke: #808080"/>
    </g>
    <g clip-path="url(#p2297d1626c)">
     <use xlink:href="#C0_0_88629f3d7f" x="175.830233" y="331.2" style="fill: #fcca8f; stroke: #808080"/>
    </g>
    <g clip-path="url(#p2297d1626c)">
     <use xlink:href="#C0_0_88629f3d7f" x="180.130068" y="340.16" style="fill: #fcca8f; stroke: #808080"/>
    </g>
    <g clip-path="url(#p2297d1626c)">
     <use xlink:href="#C0_0_88629f3d7f" x="219.757023" y="349.12" style="fill: #c1ceeb; stroke: #808080"/>
    </g>
    <g clip-path="url(#p2297d1626c)">
     <use xlink:href="#C0_0_88629f3d7f" x="214.087235" y="358.08" style="fill: #c1ceeb; stroke: #808080"/>
    </g>
    <g clip-path="url(#p2297d1626c)">
     <use xlink:href="#C0_0_88629f3d7f" x="223.014057" y="367.04" style="fill: #c1ceeb; stroke: #808080"/>
    </g>
    <g clip-path="url(#p2297d1626c)">
     <use xlink:href="#C0_0_88629f3d7f" x="239.287882" y="376" style="fill: #c1ceeb; stroke: #808080"/>
    </g>
    <g clip-path="url(#p2297d1626c)">
     <use xlink:href="#C0_0_88629f3d7f" x="214.816945" y="384.96" style="fill: #c1ceeb; stroke: #808080"/>
    </g>
    <g clip-path="url(#p2297d1626c)">
     <use xlink:href="#C0_0_88629f3d7f" x="140.997396" y="393.92" style="fill: #fcaf58; stroke: #808080"/>
    </g>
    <g clip-path="url(#p2297d1626c)">
     <use xlink:href="#C0_0_88629f3d7f" x="126.111845" y="402.88" style="fill: #ec932e; stroke: #808080"/>
    </g>
    <g clip-path="url(#p2297d1626c)">
     <use xlink:href="#C0_0_88629f3d7f" x="100.538237" y="411.84" style="fill: #ec932e; stroke: #808080"/>
    </g>
    <g clip-path="url(#p2297d1626c)">
     <use xlink:href="#C0_0_88629f3d7f" x="109.720191" y="420.8" style="fill: #ec932e; stroke: #808080"/>
    </g>
    <g clip-path="url(#p2297d1626c)">
     <use xlink:href="#C0_0_88629f3d7f" x="123.119533" y="429.76" style="fill: #ec932e; stroke: #808080"/>
    </g>
    <g clip-path="url(#p2297d1626c)">
     <use xlink:href="#C0_0_88629f3d7f" x="104.308462" y="438.72" style="fill: #ec932e; stroke: #808080"/>
    </g>
    <g clip-path="url(#p2297d1626c)">
     <use xlink:href="#C0_0_88629f3d7f" x="120.02057" y="447.68" style="fill: #ec932e; stroke: #808080"/>
    </g>
    <g clip-path="url(#p2297d1626c)">
     <use xlink:href="#C0_0_88629f3d7f" x="124.396823" y="456.64" style="fill: #ec932e; stroke: #808080"/>
    </g>
    <g clip-path="url(#p2297d1626c)">
     <use xlink:href="#C0_0_88629f3d7f" x="125.029083" y="465.6" style="fill: #ec932e; stroke: #808080"/>
    </g>
    <g clip-path="url(#p2297d1626c)">
     <use xlink:href="#C0_0_88629f3d7f" x="156.814822" y="474.56" style="fill: #fcaf58; stroke: #808080"/>
    </g>
    <g clip-path="url(#p2297d1626c)">
     <use xlink:href="#C0_0_88629f3d7f" x="88.882411" y="483.52" style="fill: #ec932e; stroke: #808080"/>
    </g>
    <g clip-path="url(#p2297d1626c)">
     <use xlink:href="#C0_0_88629f3d7f" x="69.218182" y="492.48" style="fill: #dc7704; stroke: #808080"/>
    </g>
   </g>
   <g id="matplotlib.axis_1">
    <g id="xtick_1">
     <g id="line2d_1">
      <defs>
       <path id="m6fdd5d9cc0" d="M 0 0 
L 0 3.5 
" style="stroke: #000000; stroke-width: 0.8"/>
      </defs>
      <g>
       <use xlink:href="#m6fdd5d9cc0" x="110.156003" y="512.64" style="stroke: #000000; stroke-width: 0.8"/>
      </g>
     </g>
     <g id="text_1">
      <!-- 5600 -->
      <g transform="translate(92.341003 530.277812) scale(0.14 -0.14)">
       <defs>
        <path id="DejaVuSans-35" d="M 691 4666 
L 3169 4666 
L 3169 4134 
L 1269 4134 
L 1269 2991 
Q 1406 3038 1543 3061 
Q 1681 3084 1819 3084 
Q 2600 3084 3056 2656 
Q 3513 2228 3513 1497 
Q 3513 744 3044 326 
Q 2575 -91 1722 -91 
Q 1428 -91 1123 -41 
Q 819 9 494 109 
L 494 744 
Q 775 591 1075 516 
Q 1375 441 1709 441 
Q 2250 441 2565 725 
Q 2881 1009 2881 1497 
Q 2881 1984 2565 2268 
Q 2250 2553 1709 2553 
Q 1456 2553 1204 2497 
Q 953 2441 691 2322 
L 691 4666 
z
" transform="scale(0.015625)"/>
        <path id="DejaVuSans-36" d="M 2113 2584 
Q 1688 2584 1439 2293 
Q 1191 2003 1191 1497 
Q 1191 994 1439 701 
Q 1688 409 2113 409 
Q 2538 409 2786 701 
Q 3034 994 3034 1497 
Q 3034 2003 2786 2293 
Q 2538 2584 2113 2584 
z
M 3366 4563 
L 3366 3988 
Q 3128 4100 2886 4159 
Q 2644 4219 2406 4219 
Q 1781 4219 1451 3797 
Q 1122 3375 1075 2522 
Q 1259 2794 1537 2939 
Q 1816 3084 2150 3084 
Q 2853 3084 3261 2657 
Q 3669 2231 3669 1497 
Q 3669 778 3244 343 
Q 2819 -91 2113 -91 
Q 1303 -91 875 529 
Q 447 1150 447 2328 
Q 447 3434 972 4092 
Q 1497 4750 2381 4750 
Q 2619 4750 2861 4703 
Q 3103 4656 3366 4563 
z
" transform="scale(0.015625)"/>
        <path id="DejaVuSans-30" d="M 2034 4250 
Q 1547 4250 1301 3770 
Q 1056 3291 1056 2328 
Q 1056 1369 1301 889 
Q 1547 409 2034 409 
Q 2525 409 2770 889 
Q 3016 1369 3016 2328 
Q 3016 3291 2770 3770 
Q 2525 4250 2034 4250 
z
M 2034 4750 
Q 2819 4750 3233 4129 
Q 3647 3509 3647 2328 
Q 3647 1150 3233 529 
Q 2819 -91 2034 -91 
Q 1250 -91 836 529 
Q 422 1150 422 2328 
Q 422 3509 836 4129 
Q 1250 4750 2034 4750 
z
" transform="scale(0.015625)"/>
       </defs>
       <use xlink:href="#DejaVuSans-35"/>
       <use xlink:href="#DejaVuSans-36" x="63.623047"/>
       <use xlink:href="#DejaVuSans-30" x="127.246094"/>
       <use xlink:href="#DejaVuSans-30" x="190.869141"/>
      </g>
     </g>
    </g>
    <g id="xtick_2">
     <g id="line2d_2">
      <g>
       <use xlink:href="#m6fdd5d9cc0" x="177.97173" y="512.64" style="stroke: #000000; stroke-width: 0.8"/>
      </g>
     </g>
     <g id="text_2">
      <!-- 5700 -->
      <g transform="translate(160.15673 530.277812) scale(0.14 -0.14)">
       <defs>
        <path id="DejaVuSans-37" d="M 525 4666 
L 3525 4666 
L 3525 4397 
L 1831 0 
L 1172 0 
L 2766 4134 
L 525 4134 
L 525 4666 
z
" transform="scale(0.015625)"/>
       </defs>
       <use xlink:href="#DejaVuSans-35"/>
       <use xlink:href="#DejaVuSans-37" x="63.623047"/>
       <use xlink:href="#DejaVuSans-30" x="127.246094"/>
       <use xlink:href="#DejaVuSans-30" x="190.869141"/>
      </g>
     </g>
    </g>
    <g id="xtick_3">
     <g id="line2d_3">
      <g>
       <use xlink:href="#m6fdd5d9cc0" x="245.787456" y="512.64" style="stroke: #000000; stroke-width: 0.8"/>
      </g>
     </g>
     <g id="text_3">
      <!-- 5800 -->
      <g transform="translate(227.972456 530.277812) scale(0.14 -0.14)">
       <defs>
        <path id="DejaVuSans-38" d="M 2034 2216 
Q 1584 2216 1326 1975 
Q 1069 1734 1069 1313 
Q 1069 891 1326 650 
Q 1584 409 2034 409 
Q 2484 409 2743 651 
Q 3003 894 3003 1313 
Q 3003 1734 2745 1975 
Q 2488 2216 2034 2216 
z
M 1403 2484 
Q 997 2584 770 2862 
Q 544 3141 544 3541 
Q 544 4100 942 4425 
Q 1341 4750 2034 4750 
Q 2731 4750 3128 4425 
Q 3525 4100 3525 3541 
Q 3525 3141 3298 2862 
Q 3072 2584 2669 2484 
Q 3125 2378 3379 2068 
Q 3634 1759 3634 1313 
Q 3634 634 3220 271 
Q 2806 -91 2034 -91 
Q 1263 -91 848 271 
Q 434 634 434 1313 
Q 434 1759 690 2068 
Q 947 2378 1403 2484 
z
M 1172 3481 
Q 1172 3119 1398 2916 
Q 1625 2713 2034 2713 
Q 2441 2713 2670 2916 
Q 2900 3119 2900 3481 
Q 2900 3844 2670 4047 
Q 2441 4250 2034 4250 
Q 1625 4250 1398 4047 
Q 1172 3844 1172 3481 
z
" transform="scale(0.015625)"/>
       </defs>
       <use xlink:href="#DejaVuSans-35"/>
       <use xlink:href="#DejaVuSans-38" x="63.623047"/>
       <use xlink:href="#DejaVuSans-30" x="127.246094"/>
       <use xlink:href="#DejaVuSans-30" x="190.869141"/>
      </g>
     </g>
    </g>
    <g id="xtick_4">
     <g id="line2d_4">
      <g>
       <use xlink:href="#m6fdd5d9cc0" x="313.603182" y="512.64" style="stroke: #000000; stroke-width: 0.8"/>
      </g>
     </g>
     <g id="text_4">
      <!-- 5900 -->
      <g transform="translate(295.788182 530.277812) scale(0.14 -0.14)">
       <defs>
        <path id="DejaVuSans-39" d="M 703 97 
L 703 672 
Q 941 559 1184 500 
Q 1428 441 1663 441 
Q 2288 441 2617 861 
Q 2947 1281 2994 2138 
Q 2813 1869 2534 1725 
Q 2256 1581 1919 1581 
Q 1219 1581 811 2004 
Q 403 2428 403 3163 
Q 403 3881 828 4315 
Q 1253 4750 1959 4750 
Q 2769 4750 3195 4129 
Q 3622 3509 3622 2328 
Q 3622 1225 3098 567 
Q 2575 -91 1691 -91 
Q 1453 -91 1209 -44 
Q 966 3 703 97 
z
M 1959 2075 
Q 2384 2075 2632 2365 
Q 2881 2656 2881 3163 
Q 2881 3666 2632 3958 
Q 2384 4250 1959 4250 
Q 1534 4250 1286 3958 
Q 1038 3666 1038 3163 
Q 1038 2656 1286 2365 
Q 1534 2075 1959 2075 
z
" transform="scale(0.015625)"/>
       </defs>
       <use xlink:href="#DejaVuSans-35"/>
       <use xlink:href="#DejaVuSans-39" x="63.623047"/>
       <use xlink:href="#DejaVuSans-30" x="127.246094"/>
       <use xlink:href="#DejaVuSans-30" x="190.869141"/>
      </g>
     </g>
    </g>
    <g id="xtick_5">
     <g id="line2d_5">
      <g>
       <use xlink:href="#m6fdd5d9cc0" x="381.418909" y="512.64" style="stroke: #000000; stroke-width: 0.8"/>
      </g>
     </g>
     <g id="text_5">
      <!-- 6000 -->
      <g transform="translate(363.603909 530.277812) scale(0.14 -0.14)">
       <use xlink:href="#DejaVuSans-36"/>
       <use xlink:href="#DejaVuSans-30" x="63.623047"/>
       <use xlink:href="#DejaVuSans-30" x="127.246094"/>
       <use xlink:href="#DejaVuSans-30" x="190.869141"/>
      </g>
     </g>
    </g>
    <g id="text_6">
     <!-- Drought threshold (Million $m^3$) -->
     <g transform="translate(99.24 551.749375) scale(0.16 -0.16)">
      <defs>
       <path id="DejaVuSans-44" d="M 1259 4147 
L 1259 519 
L 2022 519 
Q 2988 519 3436 956 
Q 3884 1394 3884 2338 
Q 3884 3275 3436 3711 
Q 2988 4147 2022 4147 
L 1259 4147 
z
M 628 4666 
L 1925 4666 
Q 3281 4666 3915 4102 
Q 4550 3538 4550 2338 
Q 4550 1131 3912 565 
Q 3275 0 1925 0 
L 628 0 
L 628 4666 
z
" transform="scale(0.015625)"/>
       <path id="DejaVuSans-72" d="M 2631 2963 
Q 2534 3019 2420 3045 
Q 2306 3072 2169 3072 
Q 1681 3072 1420 2755 
Q 1159 2438 1159 1844 
L 1159 0 
L 581 0 
L 581 3500 
L 1159 3500 
L 1159 2956 
Q 1341 3275 1631 3429 
Q 1922 3584 2338 3584 
Q 2397 3584 2469 3576 
Q 2541 3569 2628 3553 
L 2631 2963 
z
" transform="scale(0.015625)"/>
       <path id="DejaVuSans-6f" d="M 1959 3097 
Q 1497 3097 1228 2736 
Q 959 2375 959 1747 
Q 959 1119 1226 758 
Q 1494 397 1959 397 
Q 2419 397 2687 759 
Q 2956 1122 2956 1747 
Q 2956 2369 2687 2733 
Q 2419 3097 1959 3097 
z
M 1959 3584 
Q 2709 3584 3137 3096 
Q 3566 2609 3566 1747 
Q 3566 888 3137 398 
Q 2709 -91 1959 -91 
Q 1206 -91 779 398 
Q 353 888 353 1747 
Q 353 2609 779 3096 
Q 1206 3584 1959 3584 
z
" transform="scale(0.015625)"/>
       <path id="DejaVuSans-75" d="M 544 1381 
L 544 3500 
L 1119 3500 
L 1119 1403 
Q 1119 906 1312 657 
Q 1506 409 1894 409 
Q 2359 409 2629 706 
Q 2900 1003 2900 1516 
L 2900 3500 
L 3475 3500 
L 3475 0 
L 2900 0 
L 2900 538 
Q 2691 219 2414 64 
Q 2138 -91 1772 -91 
Q 1169 -91 856 284 
Q 544 659 544 1381 
z
M 1991 3584 
L 1991 3584 
z
" transform="scale(0.015625)"/>
       <path id="DejaVuSans-67" d="M 2906 1791 
Q 2906 2416 2648 2759 
Q 2391 3103 1925 3103 
Q 1463 3103 1205 2759 
Q 947 2416 947 1791 
Q 947 1169 1205 825 
Q 1463 481 1925 481 
Q 2391 481 2648 825 
Q 2906 1169 2906 1791 
z
M 3481 434 
Q 3481 -459 3084 -895 
Q 2688 -1331 1869 -1331 
Q 1566 -1331 1297 -1286 
Q 1028 -1241 775 -1147 
L 775 -588 
Q 1028 -725 1275 -790 
Q 1522 -856 1778 -856 
Q 2344 -856 2625 -561 
Q 2906 -266 2906 331 
L 2906 616 
Q 2728 306 2450 153 
Q 2172 0 1784 0 
Q 1141 0 747 490 
Q 353 981 353 1791 
Q 353 2603 747 3093 
Q 1141 3584 1784 3584 
Q 2172 3584 2450 3431 
Q 2728 3278 2906 2969 
L 2906 3500 
L 3481 3500 
L 3481 434 
z
" transform="scale(0.015625)"/>
       <path id="DejaVuSans-68" d="M 3513 2113 
L 3513 0 
L 2938 0 
L 2938 2094 
Q 2938 2591 2744 2837 
Q 2550 3084 2163 3084 
Q 1697 3084 1428 2787 
Q 1159 2491 1159 1978 
L 1159 0 
L 581 0 
L 581 4863 
L 1159 4863 
L 1159 2956 
Q 1366 3272 1645 3428 
Q 1925 3584 2291 3584 
Q 2894 3584 3203 3211 
Q 3513 2838 3513 2113 
z
" transform="scale(0.015625)"/>
       <path id="DejaVuSans-74" d="M 1172 4494 
L 1172 3500 
L 2356 3500 
L 2356 3053 
L 1172 3053 
L 1172 1153 
Q 1172 725 1289 603 
Q 1406 481 1766 481 
L 2356 481 
L 2356 0 
L 1766 0 
Q 1100 0 847 248 
Q 594 497 594 1153 
L 594 3053 
L 172 3053 
L 172 3500 
L 594 3500 
L 594 4494 
L 1172 4494 
z
" transform="scale(0.015625)"/>
       <path id="DejaVuSans-20" transform="scale(0.015625)"/>
       <path id="DejaVuSans-65" d="M 3597 1894 
L 3597 1613 
L 953 1613 
Q 991 1019 1311 708 
Q 1631 397 2203 397 
Q 2534 397 2845 478 
Q 3156 559 3463 722 
L 3463 178 
Q 3153 47 2828 -22 
Q 2503 -91 2169 -91 
Q 1331 -91 842 396 
Q 353 884 353 1716 
Q 353 2575 817 3079 
Q 1281 3584 2069 3584 
Q 2775 3584 3186 3129 
Q 3597 2675 3597 1894 
z
M 3022 2063 
Q 3016 2534 2758 2815 
Q 2500 3097 2075 3097 
Q 1594 3097 1305 2825 
Q 1016 2553 972 2059 
L 3022 2063 
z
" transform="scale(0.015625)"/>
       <path id="DejaVuSans-73" d="M 2834 3397 
L 2834 2853 
Q 2591 2978 2328 3040 
Q 2066 3103 1784 3103 
Q 1356 3103 1142 2972 
Q 928 2841 928 2578 
Q 928 2378 1081 2264 
Q 1234 2150 1697 2047 
L 1894 2003 
Q 2506 1872 2764 1633 
Q 3022 1394 3022 966 
Q 3022 478 2636 193 
Q 2250 -91 1575 -91 
Q 1294 -91 989 -36 
Q 684 19 347 128 
L 347 722 
Q 666 556 975 473 
Q 1284 391 1588 391 
Q 1994 391 2212 530 
Q 2431 669 2431 922 
Q 2431 1156 2273 1281 
Q 2116 1406 1581 1522 
L 1381 1569 
Q 847 1681 609 1914 
Q 372 2147 372 2553 
Q 372 3047 722 3315 
Q 1072 3584 1716 3584 
Q 2034 3584 2315 3537 
Q 2597 3491 2834 3397 
z
" transform="scale(0.015625)"/>
       <path id="DejaVuSans-6c" d="M 603 4863 
L 1178 4863 
L 1178 0 
L 603 0 
L 603 4863 
z
" transform="scale(0.015625)"/>
       <path id="DejaVuSans-64" d="M 2906 2969 
L 2906 4863 
L 3481 4863 
L 3481 0 
L 2906 0 
L 2906 525 
Q 2725 213 2448 61 
Q 2172 -91 1784 -91 
Q 1150 -91 751 415 
Q 353 922 353 1747 
Q 353 2572 751 3078 
Q 1150 3584 1784 3584 
Q 2172 3584 2448 3432 
Q 2725 3281 2906 2969 
z
M 947 1747 
Q 947 1113 1208 752 
Q 1469 391 1925 391 
Q 2381 391 2643 752 
Q 2906 1113 2906 1747 
Q 2906 2381 2643 2742 
Q 2381 3103 1925 3103 
Q 1469 3103 1208 2742 
Q 947 2381 947 1747 
z
" transform="scale(0.015625)"/>
       <path id="DejaVuSans-28" d="M 1984 4856 
Q 1566 4138 1362 3434 
Q 1159 2731 1159 2009 
Q 1159 1288 1364 580 
Q 1569 -128 1984 -844 
L 1484 -844 
Q 1016 -109 783 600 
Q 550 1309 550 2009 
Q 550 2706 781 3412 
Q 1013 4119 1484 4856 
L 1984 4856 
z
" transform="scale(0.015625)"/>
       <path id="DejaVuSans-4d" d="M 628 4666 
L 1569 4666 
L 2759 1491 
L 3956 4666 
L 4897 4666 
L 4897 0 
L 4281 0 
L 4281 4097 
L 3078 897 
L 2444 897 
L 1241 4097 
L 1241 0 
L 628 0 
L 628 4666 
z
" transform="scale(0.015625)"/>
       <path id="DejaVuSans-69" d="M 603 3500 
L 1178 3500 
L 1178 0 
L 603 0 
L 603 3500 
z
M 603 4863 
L 1178 4863 
L 1178 4134 
L 603 4134 
L 603 4863 
z
" transform="scale(0.015625)"/>
       <path id="DejaVuSans-6e" d="M 3513 2113 
L 3513 0 
L 2938 0 
L 2938 2094 
Q 2938 2591 2744 2837 
Q 2550 3084 2163 3084 
Q 1697 3084 1428 2787 
Q 1159 2491 1159 1978 
L 1159 0 
L 581 0 
L 581 3500 
L 1159 3500 
L 1159 2956 
Q 1366 3272 1645 3428 
Q 1925 3584 2291 3584 
Q 2894 3584 3203 3211 
Q 3513 2838 3513 2113 
z
" transform="scale(0.015625)"/>
       <path id="DejaVuSans-Oblique-6d" d="M 5747 2113 
L 5338 0 
L 4763 0 
L 5166 2094 
Q 5191 2228 5203 2325 
Q 5216 2422 5216 2491 
Q 5216 2772 5059 2928 
Q 4903 3084 4622 3084 
Q 4203 3084 3875 2770 
Q 3547 2456 3450 1953 
L 3066 0 
L 2491 0 
L 2900 2094 
Q 2925 2209 2937 2307 
Q 2950 2406 2950 2484 
Q 2950 2769 2794 2926 
Q 2638 3084 2363 3084 
Q 1938 3084 1609 2770 
Q 1281 2456 1184 1953 
L 800 0 
L 225 0 
L 909 3500 
L 1484 3500 
L 1375 2956 
Q 1609 3263 1923 3423 
Q 2238 3584 2597 3584 
Q 2978 3584 3223 3384 
Q 3469 3184 3519 2828 
Q 3781 3197 4126 3390 
Q 4472 3584 4856 3584 
Q 5306 3584 5551 3325 
Q 5797 3066 5797 2591 
Q 5797 2488 5784 2364 
Q 5772 2241 5747 2113 
z
" transform="scale(0.015625)"/>
       <path id="DejaVuSans-33" d="M 2597 2516 
Q 3050 2419 3304 2112 
Q 3559 1806 3559 1356 
Q 3559 666 3084 287 
Q 2609 -91 1734 -91 
Q 1441 -91 1130 -33 
Q 819 25 488 141 
L 488 750 
Q 750 597 1062 519 
Q 1375 441 1716 441 
Q 2309 441 2620 675 
Q 2931 909 2931 1356 
Q 2931 1769 2642 2001 
Q 2353 2234 1838 2234 
L 1294 2234 
L 1294 2753 
L 1863 2753 
Q 2328 2753 2575 2939 
Q 2822 3125 2822 3475 
Q 2822 3834 2567 4026 
Q 2313 4219 1838 4219 
Q 1578 4219 1281 4162 
Q 984 4106 628 3988 
L 628 4550 
Q 988 4650 1302 4700 
Q 1616 4750 1894 4750 
Q 2613 4750 3031 4423 
Q 3450 4097 3450 3541 
Q 3450 3153 3228 2886 
Q 3006 2619 2597 2516 
z
" transform="scale(0.015625)"/>
       <path id="DejaVuSans-29" d="M 513 4856 
L 1013 4856 
Q 1481 4119 1714 3412 
Q 1947 2706 1947 2009 
Q 1947 1309 1714 600 
Q 1481 -109 1013 -844 
L 513 -844 
Q 928 -128 1133 580 
Q 1338 1288 1338 2009 
Q 1338 2731 1133 3434 
Q 928 4138 513 4856 
z
" transform="scale(0.015625)"/>
      </defs>
      <use xlink:href="#DejaVuSans-44" transform="translate(0 0.765625)"/>
      <use xlink:href="#DejaVuSans-72" transform="translate(77.001953 0.765625)"/>
      <use xlink:href="#DejaVuSans-6f" transform="translate(118.115234 0.765625)"/>
      <use xlink:href="#DejaVuSans-75" transform="translate(179.296875 0.765625)"/>
      <use xlink:href="#DejaVuSans-67" transform="translate(242.675781 0.765625)"/>
      <use xlink:href="#DejaVuSans-68" transform="translate(306.152344 0.765625)"/>
      <use xlink:href="#DejaVuSans-74" transform="translate(369.53125 0.765625)"/>
      <use xlink:href="#DejaVuSans-20" transform="translate(408.740234 0.765625)"/>
      <use xlink:href="#DejaVuSans-74" transform="translate(440.527344 0.765625)"/>
      <use xlink:href="#DejaVuSans-68" transform="translate(479.736328 0.765625)"/>
      <use xlink:href="#DejaVuSans-72" transform="translate(543.115234 0.765625)"/>
      <use xlink:href="#DejaVuSans-65" transform="translate(584.228516 0.765625)"/>
      <use xlink:href="#DejaVuSans-73" transform="translate(645.751953 0.765625)"/>
      <use xlink:href="#DejaVuSans-68" transform="translate(697.851562 0.765625)"/>
      <use xlink:href="#DejaVuSans-6f" transform="translate(761.230469 0.765625)"/>
      <use xlink:href="#DejaVuSans-6c" transform="translate(822.412109 0.765625)"/>
      <use xlink:href="#DejaVuSans-64" transform="translate(850.195312 0.765625)"/>
      <use xlink:href="#DejaVuSans-20" transform="translate(913.671875 0.765625)"/>
      <use xlink:href="#DejaVuSans-28" transform="translate(945.458984 0.765625)"/>
      <use xlink:href="#DejaVuSans-4d" transform="translate(984.472656 0.765625)"/>
      <use xlink:href="#DejaVuSans-69" transform="translate(1070.751953 0.765625)"/>
      <use xlink:href="#DejaVuSans-6c" transform="translate(1098.535156 0.765625)"/>
      <use xlink:href="#DejaVuSans-6c" transform="translate(1126.318359 0.765625)"/>
      <use xlink:href="#DejaVuSans-69" transform="translate(1154.101562 0.765625)"/>
      <use xlink:href="#DejaVuSans-6f" transform="translate(1181.884766 0.765625)"/>
      <use xlink:href="#DejaVuSans-6e" transform="translate(1243.066406 0.765625)"/>
      <use xlink:href="#DejaVuSans-20" transform="translate(1306.445312 0.765625)"/>
      <use xlink:href="#DejaVuSans-Oblique-6d" transform="translate(1338.232422 0.765625)"/>
      <use xlink:href="#DejaVuSans-33" transform="translate(1440.294427 39.046875) scale(0.7)"/>
      <use xlink:href="#DejaVuSans-29" transform="translate(1487.564935 0.765625)"/>
     </g>
    </g>
   </g>
   <g id="matplotlib.axis_2">
    <g id="ytick_1">
     <g id="line2d_6">
      <defs>
       <path id="m456a719535" d="M 0 0 
L -3.5 0 
" style="stroke: #000000; stroke-width: 0.8"/>
      </defs>
      <g>
       <use xlink:href="#m456a719535" x="54" y="98.24" style="stroke: #000000; stroke-width: 0.8"/>
      </g>
     </g>
     <g id="text_7">
      <!-- 1940 -->
      <g transform="translate(11.37 103.558906) scale(0.14 -0.14)">
       <defs>
        <path id="DejaVuSans-31" d="M 794 531 
L 1825 531 
L 1825 4091 
L 703 3866 
L 703 4441 
L 1819 4666 
L 2450 4666 
L 2450 531 
L 3481 531 
L 3481 0 
L 794 0 
L 794 531 
z
" transform="scale(0.015625)"/>
        <path id="DejaVuSans-34" d="M 2419 4116 
L 825 1625 
L 2419 1625 
L 2419 4116 
z
M 2253 4666 
L 3047 4666 
L 3047 1625 
L 3713 1625 
L 3713 1100 
L 3047 1100 
L 3047 0 
L 2419 0 
L 2419 1100 
L 313 1100 
L 313 1709 
L 2253 4666 
z
" transform="scale(0.015625)"/>
       </defs>
       <use xlink:href="#DejaVuSans-31"/>
       <use xlink:href="#DejaVuSans-39" x="63.623047"/>
       <use xlink:href="#DejaVuSans-34" x="127.246094"/>
       <use xlink:href="#DejaVuSans-30" x="190.869141"/>
      </g>
     </g>
    </g>
    <g id="ytick_2">
     <g id="line2d_7">
      <g>
       <use xlink:href="#m456a719535" x="54" y="187.84" style="stroke: #000000; stroke-width: 0.8"/>
      </g>
     </g>
     <g id="text_8">
      <!-- 1950 -->
      <g transform="translate(11.37 193.158906) scale(0.14 -0.14)">
       <use xlink:href="#DejaVuSans-31"/>
       <use xlink:href="#DejaVuSans-39" x="63.623047"/>
       <use xlink:href="#DejaVuSans-35" x="127.246094"/>
       <use xlink:href="#DejaVuSans-30" x="190.869141"/>
      </g>
     </g>
    </g>
    <g id="ytick_3">
     <g id="line2d_8">
      <g>
       <use xlink:href="#m456a719535" x="54" y="277.44" style="stroke: #000000; stroke-width: 0.8"/>
      </g>
     </g>
     <g id="text_9">
      <!-- 1960 -->
      <g transform="translate(11.37 282.758906) scale(0.14 -0.14)">
       <use xlink:href="#DejaVuSans-31"/>
       <use xlink:href="#DejaVuSans-39" x="63.623047"/>
       <use xlink:href="#DejaVuSans-36" x="127.246094"/>
       <use xlink:href="#DejaVuSans-30" x="190.869141"/>
      </g>
     </g>
    </g>
    <g id="ytick_4">
     <g id="line2d_9">
      <g>
       <use xlink:href="#m456a719535" x="54" y="367.04" style="stroke: #000000; stroke-width: 0.8"/>
      </g>
     </g>
     <g id="text_10">
      <!-- 1970 -->
      <g transform="translate(11.37 372.358906) scale(0.14 -0.14)">
       <use xlink:href="#DejaVuSans-31"/>
       <use xlink:href="#DejaVuSans-39" x="63.623047"/>
       <use xlink:href="#DejaVuSans-37" x="127.246094"/>
       <use xlink:href="#DejaVuSans-30" x="190.869141"/>
      </g>
     </g>
    </g>
    <g id="ytick_5">
     <g id="line2d_10">
      <g>
       <use xlink:href="#m456a719535" x="54" y="456.64" style="stroke: #000000; stroke-width: 0.8"/>
      </g>
     </g>
     <g id="text_11">
      <!-- 1980 -->
      <g transform="translate(11.37 461.958906) scale(0.14 -0.14)">
       <use xlink:href="#DejaVuSans-31"/>
       <use xlink:href="#DejaVuSans-39" x="63.623047"/>
       <use xlink:href="#DejaVuSans-38" x="127.246094"/>
       <use xlink:href="#DejaVuSans-30" x="190.869141"/>
      </g>
     </g>
    </g>
    <g id="text_12">
     <!-- Rolling window -->
     <g transform="translate(4.0425 350.68375) rotate(-90) scale(0.16 -0.16)">
      <defs>
       <path id="DejaVuSans-52" d="M 2841 2188 
Q 3044 2119 3236 1894 
Q 3428 1669 3622 1275 
L 4263 0 
L 3584 0 
L 2988 1197 
Q 2756 1666 2539 1819 
Q 2322 1972 1947 1972 
L 1259 1972 
L 1259 0 
L 628 0 
L 628 4666 
L 2053 4666 
Q 2853 4666 3247 4331 
Q 3641 3997 3641 3322 
Q 3641 2881 3436 2590 
Q 3231 2300 2841 2188 
z
M 1259 4147 
L 1259 2491 
L 2053 2491 
Q 2509 2491 2742 2702 
Q 2975 2913 2975 3322 
Q 2975 3731 2742 3939 
Q 2509 4147 2053 4147 
L 1259 4147 
z
" transform="scale(0.015625)"/>
       <path id="DejaVuSans-77" d="M 269 3500 
L 844 3500 
L 1563 769 
L 2278 3500 
L 2956 3500 
L 3675 769 
L 4391 3500 
L 4966 3500 
L 4050 0 
L 3372 0 
L 2619 2869 
L 1863 0 
L 1184 0 
L 269 3500 
z
" transform="scale(0.015625)"/>
      </defs>
      <use xlink:href="#DejaVuSans-52"/>
      <use xlink:href="#DejaVuSans-6f" x="64.982422"/>
      <use xlink:href="#DejaVuSans-6c" x="126.164062"/>
      <use xlink:href="#DejaVuSans-6c" x="153.947266"/>
      <use xlink:href="#DejaVuSans-69" x="181.730469"/>
      <use xlink:href="#DejaVuSans-6e" x="209.513672"/>
      <use xlink:href="#DejaVuSans-67" x="272.892578"/>
      <use xlink:href="#DejaVuSans-20" x="336.369141"/>
      <use xlink:href="#DejaVuSans-77" x="368.15625"/>
      <use xlink:href="#DejaVuSans-69" x="449.943359"/>
      <use xlink:href="#DejaVuSans-6e" x="477.726562"/>
      <use xlink:href="#DejaVuSans-64" x="541.105469"/>
      <use xlink:href="#DejaVuSans-6f" x="604.582031"/>
      <use xlink:href="#DejaVuSans-77" x="665.763672"/>
     </g>
    </g>
   </g>
   <g id="line2d_11">
    <path d="M 302.96076 512.64 
L 302.96076 69.12 
" clip-path="url(#p2297d1626c)" style="fill: none; stroke-dasharray: 3.7,1.6; stroke-dashoffset: 0; stroke: #000000"/>
   </g>
   <g id="patch_3">
    <path d="M 54 512.64 
L 54 69.12 
" style="fill: none; stroke: #000000; stroke-width: 0.8; stroke-linejoin: miter; stroke-linecap: square"/>
   </g>
   <g id="patch_4">
    <path d="M 388.8 512.64 
L 388.8 69.12 
" style="fill: none; stroke: #000000; stroke-width: 0.8; stroke-linejoin: miter; stroke-linecap: square"/>
   </g>
   <g id="patch_5">
    <path d="M 54 512.64 
L 388.8 512.64 
" style="fill: none; stroke: #000000; stroke-width: 0.8; stroke-linejoin: miter; stroke-linecap: square"/>
   </g>
   <g id="patch_6">
    <path d="M 54 69.12 
L 388.8 69.12 
" style="fill: none; stroke: #000000; stroke-width: 0.8; stroke-linejoin: miter; stroke-linecap: square"/>
   </g>
   <g id="text_13">
    <!-- Entire -->
    <g transform="translate(309.742333 241.607) scale(0.16 -0.16)">
     <defs>
      <path id="DejaVuSans-45" d="M 628 4666 
L 3578 4666 
L 3578 4134 
L 1259 4134 
L 1259 2753 
L 3481 2753 
L 3481 2222 
L 1259 2222 
L 1259 531 
L 3634 531 
L 3634 0 
L 628 0 
L 628 4666 
z
" transform="scale(0.015625)"/>
     </defs>
     <use xlink:href="#DejaVuSans-45"/>
     <use xlink:href="#DejaVuSans-6e" x="63.183594"/>
     <use xlink:href="#DejaVuSans-74" x="126.5625"/>
     <use xlink:href="#DejaVuSans-69" x="165.771484"/>
     <use xlink:href="#DejaVuSans-72" x="193.554688"/>
     <use xlink:href="#DejaVuSans-65" x="232.417969"/>
    </g>
    <!-- period -->
    <g transform="translate(309.742333 259.5235) scale(0.16 -0.16)">
     <defs>
      <path id="DejaVuSans-70" d="M 1159 525 
L 1159 -1331 
L 581 -1331 
L 581 3500 
L 1159 3500 
L 1159 2969 
Q 1341 3281 1617 3432 
Q 1894 3584 2278 3584 
Q 2916 3584 3314 3078 
Q 3713 2572 3713 1747 
Q 3713 922 3314 415 
Q 2916 -91 2278 -91 
Q 1894 -91 1617 61 
Q 1341 213 1159 525 
z
M 3116 1747 
Q 3116 2381 2855 2742 
Q 2594 3103 2138 3103 
Q 1681 3103 1420 2742 
Q 1159 2381 1159 1747 
Q 1159 1113 1420 752 
Q 1681 391 2138 391 
Q 2594 391 2855 752 
Q 3116 1113 3116 1747 
z
" transform="scale(0.015625)"/>
     </defs>
     <use xlink:href="#DejaVuSans-70"/>
     <use xlink:href="#DejaVuSans-65" x="63.476562"/>
     <use xlink:href="#DejaVuSans-72" x="125"/>
     <use xlink:href="#DejaVuSans-69" x="166.113281"/>
     <use xlink:href="#DejaVuSans-6f" x="193.896484"/>
     <use xlink:href="#DejaVuSans-64" x="255.078125"/>
    </g>
    <!-- threshold -->
    <g transform="translate(309.742333 277.44) scale(0.16 -0.16)">
     <use xlink:href="#DejaVuSans-74"/>
     <use xlink:href="#DejaVuSans-68" x="39.208984"/>
     <use xlink:href="#DejaVuSans-72" x="102.587891"/>
     <use xlink:href="#DejaVuSans-65" x="141.451172"/>
     <use xlink:href="#DejaVuSans-73" x="202.974609"/>
     <use xlink:href="#DejaVuSans-68" x="255.074219"/>
     <use xlink:href="#DejaVuSans-6f" x="318.453125"/>
     <use xlink:href="#DejaVuSans-6c" x="379.634766"/>
     <use xlink:href="#DejaVuSans-64" x="407.417969"/>
    </g>
   </g>
  </g>
 </g>
 <defs>
  <clipPath id="p2297d1626c">
   <rect x="54" y="69.12" width="334.8" height="443.52"/>
  </clipPath>
 </defs>
</svg>
