<?xml version="1.0" encoding="utf-8" standalone="no"?>
<!DOCTYPE svg PUBLIC "-//W3C//DTD SVG 1.1//EN"
  "http://www.w3.org/Graphics/SVG/1.1/DTD/svg11.dtd">
<!-- Created with matplotlib (https://matplotlib.org/) -->
<svg height="288pt" version="1.1" viewBox="0 0 1080 288" width="1080pt" xmlns="http://www.w3.org/2000/svg" xmlns:xlink="http://www.w3.org/1999/xlink">
 <metadata>
  <rdf:RDF xmlns:cc="http://creativecommons.org/ns#" xmlns:dc="http://purl.org/dc/elements/1.1/" xmlns:rdf="http://www.w3.org/1999/02/22-rdf-syntax-ns#">
   <cc:Work>
    <dc:type rdf:resource="http://purl.org/dc/dcmitype/StillImage"/>
    <dc:date>2023-07-18T22:10:39.948623</dc:date>
    <dc:format>image/svg+xml</dc:format>
    <dc:creator>
     <cc:Agent>
      <dc:title>Matplotlib v3.3.4, https://matplotlib.org/</dc:title>
     </cc:Agent>
    </dc:creator>
   </cc:Work>
  </rdf:RDF>
 </metadata>
 <defs>
  <style type="text/css">*{stroke-linecap:butt;stroke-linejoin:round;}</style>
 </defs>
 <g id="figure_1">
  <g id="patch_1">
   <path d="M 0 288 
L 1080 288 
L 1080 0 
L 0 0 
z
" style="fill:none;"/>
  </g>
  <g id="axes_1">
   <g id="patch_2">
    <path d="M 36.675 126.85 
L 371.316667 126.85 
L 371.316667 10.8 
L 36.675 10.8 
z
" style="fill:#ffffff;"/>
   </g>
   <g id="line2d_1">
    <path clip-path="url(#p4d42a0454b)" d="M 104.658789 126.85 
L 104.658789 10.8 
" style="fill:none;stroke:#dcdcdc;stroke-linecap:square;stroke-width:1.5;"/>
   </g>
   <g id="line2d_2">
    <path clip-path="url(#p4d42a0454b)" d="M 107.763072 126.85 
L 107.763072 10.8 
" style="fill:none;stroke:#dcdcdc;stroke-linecap:square;stroke-width:1.5;"/>
   </g>
   <g id="line2d_3">
    <path clip-path="url(#p4d42a0454b)" d="M 110.867355 126.85 
L 110.867355 10.8 
" style="fill:none;stroke:#dcdcdc;stroke-linecap:square;stroke-width:1.5;"/>
   </g>
   <g id="line2d_4">
    <path clip-path="url(#p4d42a0454b)" d="M 113.971637 126.85 
L 113.971637 10.8 
" style="fill:none;stroke:#dcdcdc;stroke-linecap:square;stroke-width:1.5;"/>
   </g>
   <g id="line2d_5">
    <path clip-path="url(#p4d42a0454b)" d="M 117.07592 126.85 
L 117.07592 10.8 
" style="fill:none;stroke:#dcdcdc;stroke-linecap:square;stroke-width:1.5;"/>
   </g>
   <g id="line2d_6">
    <path clip-path="url(#p4d42a0454b)" d="M 120.180203 126.85 
L 120.180203 10.8 
" style="fill:none;stroke:#dcdcdc;stroke-linecap:square;stroke-width:1.5;"/>
   </g>
   <g id="line2d_7">
    <path clip-path="url(#p4d42a0454b)" d="M 123.284485 126.85 
L 123.284485 10.8 
" style="fill:none;stroke:#dcdcdc;stroke-linecap:square;stroke-width:1.5;"/>
   </g>
   <g id="line2d_8">
    <path clip-path="url(#p4d42a0454b)" d="M 126.388768 126.85 
L 126.388768 10.8 
" style="fill:none;stroke:#dcdcdc;stroke-linecap:square;stroke-width:1.5;"/>
   </g>
   <g id="line2d_9">
    <path clip-path="url(#p4d42a0454b)" d="M 129.49305 126.85 
L 129.49305 10.8 
" style="fill:none;stroke:#dcdcdc;stroke-linecap:square;stroke-width:1.5;"/>
   </g>
   <g id="line2d_10">
    <path clip-path="url(#p4d42a0454b)" d="M 132.597333 126.85 
L 132.597333 10.8 
" style="fill:none;stroke:#dcdcdc;stroke-linecap:square;stroke-width:1.5;"/>
   </g>
   <g id="line2d_11">
    <path clip-path="url(#p4d42a0454b)" d="M 135.701616 126.85 
L 135.701616 10.8 
" style="fill:none;stroke:#dcdcdc;stroke-linecap:square;stroke-width:1.5;"/>
   </g>
   <g id="line2d_12">
    <path clip-path="url(#p4d42a0454b)" d="M 138.805898 126.85 
L 138.805898 10.8 
" style="fill:none;stroke:#dcdcdc;stroke-linecap:square;stroke-width:1.5;"/>
   </g>
   <g id="line2d_13">
    <path clip-path="url(#p4d42a0454b)" d="M 141.910181 126.85 
L 141.910181 10.8 
" style="fill:none;stroke:#dcdcdc;stroke-linecap:square;stroke-width:1.5;"/>
   </g>
   <g id="line2d_14">
    <path clip-path="url(#p4d42a0454b)" d="M 145.014464 126.85 
L 145.014464 10.8 
" style="fill:none;stroke:#dcdcdc;stroke-linecap:square;stroke-width:1.5;"/>
   </g>
   <g id="line2d_15">
    <path clip-path="url(#p4d42a0454b)" d="M 148.118746 126.85 
L 148.118746 10.8 
" style="fill:none;stroke:#dcdcdc;stroke-linecap:square;stroke-width:1.5;"/>
   </g>
   <g id="line2d_16">
    <path clip-path="url(#p4d42a0454b)" d="M 151.223029 126.85 
L 151.223029 10.8 
" style="fill:none;stroke:#dcdcdc;stroke-linecap:square;stroke-width:1.5;"/>
   </g>
   <g id="line2d_17">
    <path clip-path="url(#p4d42a0454b)" d="M 154.327311 126.85 
L 154.327311 10.8 
" style="fill:none;stroke:#dcdcdc;stroke-linecap:square;stroke-width:1.5;"/>
   </g>
   <g id="line2d_18">
    <path clip-path="url(#p4d42a0454b)" d="M 157.431594 126.85 
L 157.431594 10.8 
" style="fill:none;stroke:#dcdcdc;stroke-linecap:square;stroke-width:1.5;"/>
   </g>
   <g id="line2d_19">
    <path clip-path="url(#p4d42a0454b)" d="M 160.535877 126.85 
L 160.535877 10.8 
" style="fill:none;stroke:#dcdcdc;stroke-linecap:square;stroke-width:1.5;"/>
   </g>
   <g id="line2d_20">
    <path clip-path="url(#p4d42a0454b)" d="M 163.640159 126.85 
L 163.640159 10.8 
" style="fill:none;stroke:#dcdcdc;stroke-linecap:square;stroke-width:1.5;"/>
   </g>
   <g id="line2d_21">
    <path clip-path="url(#p4d42a0454b)" d="M 166.744442 126.85 
L 166.744442 10.8 
" style="fill:none;stroke:#dcdcdc;stroke-linecap:square;stroke-width:1.5;"/>
   </g>
   <g id="line2d_22">
    <path clip-path="url(#p4d42a0454b)" d="M 169.848724 126.85 
L 169.848724 10.8 
" style="fill:none;stroke:#dcdcdc;stroke-linecap:square;stroke-width:1.5;"/>
   </g>
   <g id="line2d_23">
    <path clip-path="url(#p4d42a0454b)" d="M 172.953007 126.85 
L 172.953007 10.8 
" style="fill:none;stroke:#dcdcdc;stroke-linecap:square;stroke-width:1.5;"/>
   </g>
   <g id="line2d_24">
    <path clip-path="url(#p4d42a0454b)" d="M 176.05729 126.85 
L 176.05729 10.8 
" style="fill:none;stroke:#dcdcdc;stroke-linecap:square;stroke-width:1.5;"/>
   </g>
   <g id="line2d_25">
    <path clip-path="url(#p4d42a0454b)" d="M 179.161572 126.85 
L 179.161572 10.8 
" style="fill:none;stroke:#dcdcdc;stroke-linecap:square;stroke-width:1.5;"/>
   </g>
   <g id="matplotlib.axis_1">
    <g id="xtick_1">
     <g id="line2d_26">
      <defs>
       <path d="M 0 0 
L 0 3.5 
" id="me5cc411e49" style="stroke:#000000;stroke-width:0.8;"/>
      </defs>
      <g>
       <use style="stroke:#000000;stroke-width:0.8;" x="92.241659" xlink:href="#me5cc411e49" y="126.85"/>
      </g>
     </g>
    </g>
    <g id="xtick_2">
     <g id="line2d_27">
      <g>
       <use style="stroke:#000000;stroke-width:0.8;" x="154.327311" xlink:href="#me5cc411e49" y="126.85"/>
      </g>
     </g>
    </g>
    <g id="xtick_3">
     <g id="line2d_28">
      <g>
       <use style="stroke:#000000;stroke-width:0.8;" x="216.412964" xlink:href="#me5cc411e49" y="126.85"/>
      </g>
     </g>
    </g>
    <g id="xtick_4">
     <g id="line2d_29">
      <g>
       <use style="stroke:#000000;stroke-width:0.8;" x="278.498616" xlink:href="#me5cc411e49" y="126.85"/>
      </g>
     </g>
    </g>
    <g id="xtick_5">
     <g id="line2d_30">
      <g>
       <use style="stroke:#000000;stroke-width:0.8;" x="340.584269" xlink:href="#me5cc411e49" y="126.85"/>
      </g>
     </g>
    </g>
   </g>
   <g id="matplotlib.axis_2">
    <g id="ytick_1">
     <g id="line2d_31">
      <defs>
       <path d="M 0 0 
L -3.5 0 
" id="m8d3c896e40" style="stroke:#000000;stroke-width:0.8;"/>
      </defs>
      <g>
       <use style="stroke:#000000;stroke-width:0.8;" x="36.675" xlink:href="#m8d3c896e40" y="114.918216"/>
      </g>
     </g>
     <g id="text_1">
      <!-- 0.5 -->
      <g transform="translate(10.59125 119.477279)scale(0.12 -0.12)">
       <defs>
        <path d="M 31.78125 66.40625 
Q 24.171875 66.40625 20.328125 58.90625 
Q 16.5 51.421875 16.5 36.375 
Q 16.5 21.390625 20.328125 13.890625 
Q 24.171875 6.390625 31.78125 6.390625 
Q 39.453125 6.390625 43.28125 13.890625 
Q 47.125 21.390625 47.125 36.375 
Q 47.125 51.421875 43.28125 58.90625 
Q 39.453125 66.40625 31.78125 66.40625 
z
M 31.78125 74.21875 
Q 44.046875 74.21875 50.515625 64.515625 
Q 56.984375 54.828125 56.984375 36.375 
Q 56.984375 17.96875 50.515625 8.265625 
Q 44.046875 -1.421875 31.78125 -1.421875 
Q 19.53125 -1.421875 13.0625 8.265625 
Q 6.59375 17.96875 6.59375 36.375 
Q 6.59375 54.828125 13.0625 64.515625 
Q 19.53125 74.21875 31.78125 74.21875 
z
" id="DejaVuSans-48"/>
        <path d="M 10.6875 12.40625 
L 21 12.40625 
L 21 0 
L 10.6875 0 
z
" id="DejaVuSans-46"/>
        <path d="M 10.796875 72.90625 
L 49.515625 72.90625 
L 49.515625 64.59375 
L 19.828125 64.59375 
L 19.828125 46.734375 
Q 21.96875 47.46875 24.109375 47.828125 
Q 26.265625 48.1875 28.421875 48.1875 
Q 40.625 48.1875 47.75 41.5 
Q 54.890625 34.8125 54.890625 23.390625 
Q 54.890625 11.625 47.5625 5.09375 
Q 40.234375 -1.421875 26.90625 -1.421875 
Q 22.3125 -1.421875 17.546875 -0.640625 
Q 12.796875 0.140625 7.71875 1.703125 
L 7.71875 11.625 
Q 12.109375 9.234375 16.796875 8.0625 
Q 21.484375 6.890625 26.703125 6.890625 
Q 35.15625 6.890625 40.078125 11.328125 
Q 45.015625 15.765625 45.015625 23.390625 
Q 45.015625 31 40.078125 35.4375 
Q 35.15625 39.890625 26.703125 39.890625 
Q 22.75 39.890625 18.8125 39.015625 
Q 14.890625 38.140625 10.796875 36.28125 
z
" id="DejaVuSans-53"/>
       </defs>
       <use xlink:href="#DejaVuSans-48"/>
       <use x="63.623047" xlink:href="#DejaVuSans-46"/>
       <use x="95.410156" xlink:href="#DejaVuSans-53"/>
      </g>
     </g>
    </g>
    <g id="ytick_2">
     <g id="line2d_32">
      <g>
       <use style="stroke:#000000;stroke-width:0.8;" x="36.675" xlink:href="#m8d3c896e40" y="80.071205"/>
      </g>
     </g>
     <g id="text_2">
      <!-- 1.0 -->
      <g transform="translate(10.59125 84.630268)scale(0.12 -0.12)">
       <defs>
        <path d="M 12.40625 8.296875 
L 28.515625 8.296875 
L 28.515625 63.921875 
L 10.984375 60.40625 
L 10.984375 69.390625 
L 28.421875 72.90625 
L 38.28125 72.90625 
L 38.28125 8.296875 
L 54.390625 8.296875 
L 54.390625 0 
L 12.40625 0 
z
" id="DejaVuSans-49"/>
       </defs>
       <use xlink:href="#DejaVuSans-49"/>
       <use x="63.623047" xlink:href="#DejaVuSans-46"/>
       <use x="95.410156" xlink:href="#DejaVuSans-48"/>
      </g>
     </g>
    </g>
    <g id="ytick_3">
     <g id="line2d_33">
      <g>
       <use style="stroke:#000000;stroke-width:0.8;" x="36.675" xlink:href="#m8d3c896e40" y="45.224195"/>
      </g>
     </g>
     <g id="text_3">
      <!-- 1.5 -->
      <g transform="translate(10.59125 49.783257)scale(0.12 -0.12)">
       <use xlink:href="#DejaVuSans-49"/>
       <use x="63.623047" xlink:href="#DejaVuSans-46"/>
       <use x="95.410156" xlink:href="#DejaVuSans-53"/>
      </g>
     </g>
    </g>
   </g>
   <g id="line2d_34">
    <path clip-path="url(#p4d42a0454b)" d="M 36.675 80.071205 
L 371.316667 80.071205 
" style="fill:none;stroke:#000000;stroke-linecap:square;stroke-width:1.5;"/>
   </g>
   <g id="patch_3">
    <path d="M 36.675 126.85 
L 36.675 10.8 
" style="fill:none;stroke:#000000;stroke-linecap:square;stroke-linejoin:miter;stroke-width:0.8;"/>
   </g>
   <g id="patch_4">
    <path d="M 371.316667 126.85 
L 371.316667 10.8 
" style="fill:none;stroke:#000000;stroke-linecap:square;stroke-linejoin:miter;stroke-width:0.8;"/>
   </g>
   <g id="patch_5">
    <path d="M 36.675 126.85 
L 371.316667 126.85 
" style="fill:none;stroke:#000000;stroke-linecap:square;stroke-linejoin:miter;stroke-width:0.8;"/>
   </g>
   <g id="patch_6">
    <path d="M 36.675 10.8 
L 371.316667 10.8 
" style="fill:none;stroke:#000000;stroke-linecap:square;stroke-linejoin:miter;stroke-width:0.8;"/>
   </g>
   <g id="line2d_35">
    <path clip-path="url(#p4d42a0454b)" d="M 58.09455 71.606451 
L 61.198833 59.886554 
L 64.303115 51.38152 
L 67.407398 44.332513 
L 70.511681 39.571591 
L 73.615963 46.320154 
L 76.720246 44.818487 
L 79.824528 43.823002 
L 82.928811 44.450626 
L 86.033094 42.492834 
L 89.137376 43.138624 
L 92.241659 44.167649 
L 95.345942 45.435325 
L 98.450224 47.617912 
L 101.554507 48.802113 
L 104.658789 48.392475 
L 107.763072 49.476804 
L 110.867355 45.80001 
L 113.971637 45.383731 
L 117.07592 47.106252 
L 120.180203 44.442181 
L 123.284485 51.896326 
L 126.388768 59.929232 
L 129.49305 66.085093 
L 132.597333 73.310343 
L 135.701616 78.153783 
L 138.805898 86.74929 
L 141.910181 95.858644 
L 145.014464 104.931978 
L 148.118746 112.192834 
L 151.223029 120.515613 
L 154.327311 120.208136 
L 157.431594 119.86963 
L 160.535877 118.969493 
L 163.640159 121.004213 
L 166.744442 121.575 
L 169.848724 120.78411 
L 172.953007 112.239093 
L 176.05729 102.865606 
L 179.161572 94.383383 
L 182.265855 86.153522 
L 185.370138 78.210242 
L 188.47442 69.612389 
L 191.578703 63.202241 
L 194.682985 53.531148 
L 197.787268 47.485308 
L 200.891551 41.660209 
L 203.995833 41.97945 
L 207.100116 42.38815 
L 210.204399 44.454827 
L 213.308681 45.196742 
L 216.412964 46.640545 
L 219.517246 48.210703 
L 222.621529 47.379973 
L 225.725812 47.257127 
L 228.830094 45.011966 
L 231.934377 39.888996 
L 235.03866 39.191999 
L 238.142942 40.5785 
L 241.247225 40.275288 
L 244.351507 41.487259 
L 247.45579 43.764248 
L 250.560073 41.675895 
L 253.664355 42.389318 
L 256.768638 44.020179 
L 259.872921 44.63477 
L 262.977203 47.551489 
L 266.081486 48.744013 
L 269.185768 47.825286 
L 272.290051 47.937351 
L 275.394334 43.552149 
L 278.498616 39.265445 
L 281.602899 44.792535 
L 284.707182 42.448102 
L 287.811464 41.039836 
L 290.915747 44.515787 
L 294.020029 46.549056 
L 297.124312 47.223309 
L 300.228595 47.957056 
L 303.332877 48.781955 
L 306.43716 54.210292 
L 309.541442 57.427699 
L 312.645725 52.566233 
L 315.750008 49.857125 
L 318.85429 52.530088 
L 321.958573 48.624893 
L 325.062856 46.195092 
L 328.167138 46.988092 
L 331.271421 45.33001 
L 334.375703 43.295115 
L 337.479986 42.488862 
L 340.584269 41.279296 
L 343.688551 44.780121 
L 346.792834 47.136381 
L 349.897117 47.428999 
L 353.001399 44.364147 
L 356.105682 46.728276 
" style="fill:none;stroke:#a447a5;stroke-linecap:square;stroke-width:2;"/>
   </g>
  </g>
  <g id="axes_2">
   <g id="patch_7">
    <path d="M 385.616667 126.85 
L 720.258333 126.85 
L 720.258333 10.8 
L 385.616667 10.8 
z
" style="fill:#ffffff;"/>
   </g>
   <g id="line2d_36">
    <path clip-path="url(#p43bd05b10a)" d="M 400.827652 126.85 
L 400.827652 10.8 
" style="fill:none;stroke:#dcdcdc;stroke-linecap:square;stroke-width:1.5;"/>
   </g>
   <g id="line2d_37">
    <path clip-path="url(#p43bd05b10a)" d="M 403.931934 126.85 
L 403.931934 10.8 
" style="fill:none;stroke:#dcdcdc;stroke-linecap:square;stroke-width:1.5;"/>
   </g>
   <g id="line2d_38">
    <path clip-path="url(#p43bd05b10a)" d="M 407.036217 126.85 
L 407.036217 10.8 
" style="fill:none;stroke:#dcdcdc;stroke-linecap:square;stroke-width:1.5;"/>
   </g>
   <g id="line2d_39">
    <path clip-path="url(#p43bd05b10a)" d="M 410.140499 126.85 
L 410.140499 10.8 
" style="fill:none;stroke:#dcdcdc;stroke-linecap:square;stroke-width:1.5;"/>
   </g>
   <g id="line2d_40">
    <path clip-path="url(#p43bd05b10a)" d="M 413.244782 126.85 
L 413.244782 10.8 
" style="fill:none;stroke:#dcdcdc;stroke-linecap:square;stroke-width:1.5;"/>
   </g>
   <g id="line2d_41">
    <path clip-path="url(#p43bd05b10a)" d="M 416.349065 126.85 
L 416.349065 10.8 
" style="fill:none;stroke:#dcdcdc;stroke-linecap:square;stroke-width:1.5;"/>
   </g>
   <g id="line2d_42">
    <path clip-path="url(#p43bd05b10a)" d="M 419.453347 126.85 
L 419.453347 10.8 
" style="fill:none;stroke:#dcdcdc;stroke-linecap:square;stroke-width:1.5;"/>
   </g>
   <g id="line2d_43">
    <path clip-path="url(#p43bd05b10a)" d="M 422.55763 126.85 
L 422.55763 10.8 
" style="fill:none;stroke:#dcdcdc;stroke-linecap:square;stroke-width:1.5;"/>
   </g>
   <g id="line2d_44">
    <path clip-path="url(#p43bd05b10a)" d="M 425.661912 126.85 
L 425.661912 10.8 
" style="fill:none;stroke:#dcdcdc;stroke-linecap:square;stroke-width:1.5;"/>
   </g>
   <g id="line2d_45">
    <path clip-path="url(#p43bd05b10a)" d="M 428.766195 126.85 
L 428.766195 10.8 
" style="fill:none;stroke:#dcdcdc;stroke-linecap:square;stroke-width:1.5;"/>
   </g>
   <g id="line2d_46">
    <path clip-path="url(#p43bd05b10a)" d="M 431.870478 126.85 
L 431.870478 10.8 
" style="fill:none;stroke:#dcdcdc;stroke-linecap:square;stroke-width:1.5;"/>
   </g>
   <g id="line2d_47">
    <path clip-path="url(#p43bd05b10a)" d="M 434.97476 126.85 
L 434.97476 10.8 
" style="fill:none;stroke:#dcdcdc;stroke-linecap:square;stroke-width:1.5;"/>
   </g>
   <g id="line2d_48">
    <path clip-path="url(#p43bd05b10a)" d="M 438.079043 126.85 
L 438.079043 10.8 
" style="fill:none;stroke:#dcdcdc;stroke-linecap:square;stroke-width:1.5;"/>
   </g>
   <g id="line2d_49">
    <path clip-path="url(#p43bd05b10a)" d="M 441.183326 126.85 
L 441.183326 10.8 
" style="fill:none;stroke:#dcdcdc;stroke-linecap:square;stroke-width:1.5;"/>
   </g>
   <g id="line2d_50">
    <path clip-path="url(#p43bd05b10a)" d="M 444.287608 126.85 
L 444.287608 10.8 
" style="fill:none;stroke:#dcdcdc;stroke-linecap:square;stroke-width:1.5;"/>
   </g>
   <g id="line2d_51">
    <path clip-path="url(#p43bd05b10a)" d="M 447.391891 126.85 
L 447.391891 10.8 
" style="fill:none;stroke:#dcdcdc;stroke-linecap:square;stroke-width:1.5;"/>
   </g>
   <g id="line2d_52">
    <path clip-path="url(#p43bd05b10a)" d="M 450.496173 126.85 
L 450.496173 10.8 
" style="fill:none;stroke:#dcdcdc;stroke-linecap:square;stroke-width:1.5;"/>
   </g>
   <g id="line2d_53">
    <path clip-path="url(#p43bd05b10a)" d="M 453.600456 126.85 
L 453.600456 10.8 
" style="fill:none;stroke:#dcdcdc;stroke-linecap:square;stroke-width:1.5;"/>
   </g>
   <g id="line2d_54">
    <path clip-path="url(#p43bd05b10a)" d="M 456.704739 126.85 
L 456.704739 10.8 
" style="fill:none;stroke:#dcdcdc;stroke-linecap:square;stroke-width:1.5;"/>
   </g>
   <g id="line2d_55">
    <path clip-path="url(#p43bd05b10a)" d="M 459.809021 126.85 
L 459.809021 10.8 
" style="fill:none;stroke:#dcdcdc;stroke-linecap:square;stroke-width:1.5;"/>
   </g>
   <g id="line2d_56">
    <path clip-path="url(#p43bd05b10a)" d="M 462.913304 126.85 
L 462.913304 10.8 
" style="fill:none;stroke:#dcdcdc;stroke-linecap:square;stroke-width:1.5;"/>
   </g>
   <g id="line2d_57">
    <path clip-path="url(#p43bd05b10a)" d="M 466.017587 126.85 
L 466.017587 10.8 
" style="fill:none;stroke:#dcdcdc;stroke-linecap:square;stroke-width:1.5;"/>
   </g>
   <g id="matplotlib.axis_3">
    <g id="xtick_6">
     <g id="line2d_58">
      <g>
       <use style="stroke:#000000;stroke-width:0.8;" x="441.183326" xlink:href="#me5cc411e49" y="126.85"/>
      </g>
     </g>
    </g>
    <g id="xtick_7">
     <g id="line2d_59">
      <g>
       <use style="stroke:#000000;stroke-width:0.8;" x="503.268978" xlink:href="#me5cc411e49" y="126.85"/>
      </g>
     </g>
    </g>
    <g id="xtick_8">
     <g id="line2d_60">
      <g>
       <use style="stroke:#000000;stroke-width:0.8;" x="565.35463" xlink:href="#me5cc411e49" y="126.85"/>
      </g>
     </g>
    </g>
    <g id="xtick_9">
     <g id="line2d_61">
      <g>
       <use style="stroke:#000000;stroke-width:0.8;" x="627.440283" xlink:href="#me5cc411e49" y="126.85"/>
      </g>
     </g>
    </g>
    <g id="xtick_10">
     <g id="line2d_62">
      <g>
       <use style="stroke:#000000;stroke-width:0.8;" x="689.525935" xlink:href="#me5cc411e49" y="126.85"/>
      </g>
     </g>
    </g>
   </g>
   <g id="matplotlib.axis_4">
    <g id="ytick_4">
     <g id="line2d_63">
      <g>
       <use style="stroke:#000000;stroke-width:0.8;" x="385.616667" xlink:href="#m8d3c896e40" y="114.918216"/>
      </g>
     </g>
    </g>
    <g id="ytick_5">
     <g id="line2d_64">
      <g>
       <use style="stroke:#000000;stroke-width:0.8;" x="385.616667" xlink:href="#m8d3c896e40" y="80.071205"/>
      </g>
     </g>
    </g>
    <g id="ytick_6">
     <g id="line2d_65">
      <g>
       <use style="stroke:#000000;stroke-width:0.8;" x="385.616667" xlink:href="#m8d3c896e40" y="45.224195"/>
      </g>
     </g>
    </g>
   </g>
   <g id="line2d_66">
    <path clip-path="url(#p43bd05b10a)" d="M 385.616667 80.071205 
L 720.258333 80.071205 
" style="fill:none;stroke:#000000;stroke-linecap:square;stroke-width:1.5;"/>
   </g>
   <g id="patch_8">
    <path d="M 385.616667 126.85 
L 385.616667 10.8 
" style="fill:none;stroke:#000000;stroke-linecap:square;stroke-linejoin:miter;stroke-width:0.8;"/>
   </g>
   <g id="patch_9">
    <path d="M 720.258333 126.85 
L 720.258333 10.8 
" style="fill:none;stroke:#000000;stroke-linecap:square;stroke-linejoin:miter;stroke-width:0.8;"/>
   </g>
   <g id="patch_10">
    <path d="M 385.616667 126.85 
L 720.258333 126.85 
" style="fill:none;stroke:#000000;stroke-linecap:square;stroke-linejoin:miter;stroke-width:0.8;"/>
   </g>
   <g id="patch_11">
    <path d="M 385.616667 10.8 
L 720.258333 10.8 
" style="fill:none;stroke:#000000;stroke-linecap:square;stroke-linejoin:miter;stroke-width:0.8;"/>
   </g>
   <g id="line2d_67">
    <path clip-path="url(#p43bd05b10a)" d="M 407.036217 80.507852 
L 410.140499 68.407992 
L 413.244782 61.056166 
L 416.349065 51.986075 
L 419.453347 45.63697 
L 422.55763 53.680805 
L 425.661912 62.554077 
L 428.766195 70.964109 
L 431.870478 78.657112 
L 434.97476 79.963866 
L 438.079043 87.716431 
L 441.183326 97.351456 
L 444.287608 104.533843 
L 447.391891 114.237393 
L 450.496173 119.955644 
L 453.600456 120.827334 
L 456.704739 113.64467 
L 459.809021 105.782102 
L 462.913304 101.363358 
L 466.017587 92.273639 
L 469.121869 83.483563 
L 472.226152 74.834446 
L 475.330434 67.667705 
L 478.434717 57.896474 
L 481.539 50.044347 
L 484.643282 42.592905 
L 487.747565 43.476006 
L 490.851848 42.242723 
L 493.95613 42.244559 
L 497.060413 45.178247 
L 500.164695 47.000383 
L 503.268978 49.946121 
L 506.373261 50.915061 
L 509.477543 51.432949 
L 512.581826 54.38753 
L 515.686109 56.121187 
L 518.790391 52.019159 
L 521.894674 51.35429 
L 524.998956 50.641838 
L 528.103239 47.623883 
L 531.207522 46.179063 
L 534.311804 44.241839 
L 537.416087 44.385837 
L 540.52037 45.624075 
L 543.624652 44.354566 
L 546.728935 43.517191 
L 549.833217 47.816078 
L 552.9375 48.597665 
L 556.041783 45.500915 
L 559.146065 48.166723 
L 562.250348 47.138808 
L 565.35463 48.900536 
L 568.458913 48.653402 
L 571.563196 49.823038 
L 574.667478 49.837084 
L 577.771761 49.011959 
L 580.876044 44.730209 
L 583.980326 46.961154 
L 587.084609 49.737789 
L 590.188891 50.66393 
L 593.293174 50.067753 
L 596.397457 46.127321 
L 599.501739 44.988681 
L 602.606022 43.648834 
L 605.710305 44.466153 
L 608.814587 47.143723 
L 611.91887 52.699569 
L 615.023152 52.09439 
L 618.127435 49.618095 
L 621.231718 44.986119 
L 624.336 45.343849 
L 627.440283 46.298011 
L 630.544566 47.921241 
L 633.648848 47.95764 
L 636.753131 46.698424 
L 639.857413 40.331091 
L 642.961696 36.974989 
L 646.065979 37.812522 
L 649.170261 39.036303 
L 652.274544 39.616245 
L 655.378827 38.885123 
L 658.483109 42.196654 
L 661.587392 41.005915 
L 664.691674 40.835507 
L 667.795957 39.98834 
L 670.90024 43.147127 
L 674.004522 42.381878 
L 677.108805 41.663001 
L 680.213088 44.42868 
L 683.31737 48.063379 
L 686.421653 53.413321 
L 689.525935 51.384167 
L 692.630218 48.537944 
L 695.734501 45.04204 
L 698.838783 47.482539 
L 701.943066 49.359686 
L 705.047348 50.37795 
" style="fill:none;stroke:#a447a5;stroke-linecap:square;stroke-width:2;"/>
   </g>
  </g>
  <g id="axes_3">
   <g id="patch_12">
    <path d="M 734.558333 126.85 
L 1069.2 126.85 
L 1069.2 10.8 
L 734.558333 10.8 
z
" style="fill:#ffffff;"/>
   </g>
   <g id="line2d_68">
    <path clip-path="url(#paa80e1193f)" d="M 926.713428 126.85 
L 926.713428 10.8 
" style="fill:none;stroke:#dcdcdc;stroke-linecap:square;stroke-width:1.5;"/>
   </g>
   <g id="line2d_69">
    <path clip-path="url(#paa80e1193f)" d="M 858.41921 126.85 
L 858.41921 10.8 
" style="fill:none;stroke:#dcdcdc;stroke-linecap:square;stroke-width:1.5;"/>
   </g>
   <g id="line2d_70">
    <path clip-path="url(#paa80e1193f)" d="M 861.523493 126.85 
L 861.523493 10.8 
" style="fill:none;stroke:#dcdcdc;stroke-linecap:square;stroke-width:1.5;"/>
   </g>
   <g id="line2d_71">
    <path clip-path="url(#paa80e1193f)" d="M 864.627775 126.85 
L 864.627775 10.8 
" style="fill:none;stroke:#dcdcdc;stroke-linecap:square;stroke-width:1.5;"/>
   </g>
   <g id="line2d_72">
    <path clip-path="url(#paa80e1193f)" d="M 867.732058 126.85 
L 867.732058 10.8 
" style="fill:none;stroke:#dcdcdc;stroke-linecap:square;stroke-width:1.5;"/>
   </g>
   <g id="line2d_73">
    <path clip-path="url(#paa80e1193f)" d="M 870.83634 126.85 
L 870.83634 10.8 
" style="fill:none;stroke:#dcdcdc;stroke-linecap:square;stroke-width:1.5;"/>
   </g>
   <g id="line2d_74">
    <path clip-path="url(#paa80e1193f)" d="M 873.940623 126.85 
L 873.940623 10.8 
" style="fill:none;stroke:#dcdcdc;stroke-linecap:square;stroke-width:1.5;"/>
   </g>
   <g id="line2d_75">
    <path clip-path="url(#paa80e1193f)" d="M 877.044906 126.85 
L 877.044906 10.8 
" style="fill:none;stroke:#dcdcdc;stroke-linecap:square;stroke-width:1.5;"/>
   </g>
   <g id="line2d_76">
    <path clip-path="url(#paa80e1193f)" d="M 880.149188 126.85 
L 880.149188 10.8 
" style="fill:none;stroke:#dcdcdc;stroke-linecap:square;stroke-width:1.5;"/>
   </g>
   <g id="line2d_77">
    <path clip-path="url(#paa80e1193f)" d="M 883.253471 126.85 
L 883.253471 10.8 
" style="fill:none;stroke:#dcdcdc;stroke-linecap:square;stroke-width:1.5;"/>
   </g>
   <g id="line2d_78">
    <path clip-path="url(#paa80e1193f)" d="M 886.357754 126.85 
L 886.357754 10.8 
" style="fill:none;stroke:#dcdcdc;stroke-linecap:square;stroke-width:1.5;"/>
   </g>
   <g id="line2d_79">
    <path clip-path="url(#paa80e1193f)" d="M 889.462036 126.85 
L 889.462036 10.8 
" style="fill:none;stroke:#dcdcdc;stroke-linecap:square;stroke-width:1.5;"/>
   </g>
   <g id="line2d_80">
    <path clip-path="url(#paa80e1193f)" d="M 892.566319 126.85 
L 892.566319 10.8 
" style="fill:none;stroke:#dcdcdc;stroke-linecap:square;stroke-width:1.5;"/>
   </g>
   <g id="line2d_81">
    <path clip-path="url(#paa80e1193f)" d="M 895.670601 126.85 
L 895.670601 10.8 
" style="fill:none;stroke:#dcdcdc;stroke-linecap:square;stroke-width:1.5;"/>
   </g>
   <g id="line2d_82">
    <path clip-path="url(#paa80e1193f)" d="M 898.774884 126.85 
L 898.774884 10.8 
" style="fill:none;stroke:#dcdcdc;stroke-linecap:square;stroke-width:1.5;"/>
   </g>
   <g id="line2d_83">
    <path clip-path="url(#paa80e1193f)" d="M 901.879167 126.85 
L 901.879167 10.8 
" style="fill:none;stroke:#dcdcdc;stroke-linecap:square;stroke-width:1.5;"/>
   </g>
   <g id="line2d_84">
    <path clip-path="url(#paa80e1193f)" d="M 904.983449 126.85 
L 904.983449 10.8 
" style="fill:none;stroke:#dcdcdc;stroke-linecap:square;stroke-width:1.5;"/>
   </g>
   <g id="line2d_85">
    <path clip-path="url(#paa80e1193f)" d="M 908.087732 126.85 
L 908.087732 10.8 
" style="fill:none;stroke:#dcdcdc;stroke-linecap:square;stroke-width:1.5;"/>
   </g>
   <g id="line2d_86">
    <path clip-path="url(#paa80e1193f)" d="M 911.192015 126.85 
L 911.192015 10.8 
" style="fill:none;stroke:#dcdcdc;stroke-linecap:square;stroke-width:1.5;"/>
   </g>
   <g id="line2d_87">
    <path clip-path="url(#paa80e1193f)" d="M 914.296297 126.85 
L 914.296297 10.8 
" style="fill:none;stroke:#dcdcdc;stroke-linecap:square;stroke-width:1.5;"/>
   </g>
   <g id="line2d_88">
    <path clip-path="url(#paa80e1193f)" d="M 917.40058 126.85 
L 917.40058 10.8 
" style="fill:none;stroke:#dcdcdc;stroke-linecap:square;stroke-width:1.5;"/>
   </g>
   <g id="line2d_89">
    <path clip-path="url(#paa80e1193f)" d="M 920.504862 126.85 
L 920.504862 10.8 
" style="fill:none;stroke:#dcdcdc;stroke-linecap:square;stroke-width:1.5;"/>
   </g>
   <g id="line2d_90">
    <path clip-path="url(#paa80e1193f)" d="M 923.609145 126.85 
L 923.609145 10.8 
" style="fill:none;stroke:#dcdcdc;stroke-linecap:square;stroke-width:1.5;"/>
   </g>
   <g id="matplotlib.axis_5">
    <g id="xtick_11">
     <g id="line2d_91">
      <g>
       <use style="stroke:#000000;stroke-width:0.8;" x="790.124992" xlink:href="#me5cc411e49" y="126.85"/>
      </g>
     </g>
    </g>
    <g id="xtick_12">
     <g id="line2d_92">
      <g>
       <use style="stroke:#000000;stroke-width:0.8;" x="852.210645" xlink:href="#me5cc411e49" y="126.85"/>
      </g>
     </g>
    </g>
    <g id="xtick_13">
     <g id="line2d_93">
      <g>
       <use style="stroke:#000000;stroke-width:0.8;" x="914.296297" xlink:href="#me5cc411e49" y="126.85"/>
      </g>
     </g>
    </g>
    <g id="xtick_14">
     <g id="line2d_94">
      <g>
       <use style="stroke:#000000;stroke-width:0.8;" x="976.38195" xlink:href="#me5cc411e49" y="126.85"/>
      </g>
     </g>
    </g>
    <g id="xtick_15">
     <g id="line2d_95">
      <g>
       <use style="stroke:#000000;stroke-width:0.8;" x="1038.467602" xlink:href="#me5cc411e49" y="126.85"/>
      </g>
     </g>
    </g>
   </g>
   <g id="matplotlib.axis_6">
    <g id="ytick_7">
     <g id="line2d_96">
      <g>
       <use style="stroke:#000000;stroke-width:0.8;" x="734.558333" xlink:href="#m8d3c896e40" y="114.918216"/>
      </g>
     </g>
    </g>
    <g id="ytick_8">
     <g id="line2d_97">
      <g>
       <use style="stroke:#000000;stroke-width:0.8;" x="734.558333" xlink:href="#m8d3c896e40" y="80.071205"/>
      </g>
     </g>
    </g>
    <g id="ytick_9">
     <g id="line2d_98">
      <g>
       <use style="stroke:#000000;stroke-width:0.8;" x="734.558333" xlink:href="#m8d3c896e40" y="45.224195"/>
      </g>
     </g>
    </g>
   </g>
   <g id="line2d_99">
    <path clip-path="url(#paa80e1193f)" d="M 734.558333 80.071205 
L 1069.2 80.071205 
" style="fill:none;stroke:#000000;stroke-linecap:square;stroke-width:1.5;"/>
   </g>
   <g id="patch_13">
    <path d="M 734.558333 126.85 
L 734.558333 10.8 
" style="fill:none;stroke:#000000;stroke-linecap:square;stroke-linejoin:miter;stroke-width:0.8;"/>
   </g>
   <g id="patch_14">
    <path d="M 1069.2 126.85 
L 1069.2 10.8 
" style="fill:none;stroke:#000000;stroke-linecap:square;stroke-linejoin:miter;stroke-width:0.8;"/>
   </g>
   <g id="patch_15">
    <path d="M 734.558333 126.85 
L 1069.2 126.85 
" style="fill:none;stroke:#000000;stroke-linecap:square;stroke-linejoin:miter;stroke-width:0.8;"/>
   </g>
   <g id="patch_16">
    <path d="M 734.558333 10.8 
L 1069.2 10.8 
" style="fill:none;stroke:#000000;stroke-linecap:square;stroke-linejoin:miter;stroke-width:0.8;"/>
   </g>
   <g id="line2d_100">
    <path clip-path="url(#paa80e1193f)" d="M 755.977883 51.135596 
L 759.082166 43.633991 
L 762.186449 40.789219 
L 765.290731 50.287595 
L 768.395014 41.873584 
L 771.499297 46.346754 
L 774.603579 55.714338 
L 777.707862 52.209235 
L 780.812144 54.782631 
L 783.916427 57.540162 
L 787.02071 61.091088 
L 790.124992 60.514631 
L 793.229275 64.186436 
L 796.333558 59.346721 
L 799.43784 62.966335 
L 802.542123 57.284058 
L 805.646405 56.416313 
L 808.750688 59.029011 
L 811.854971 65.059714 
L 814.959253 64.258615 
L 818.063536 61.716533 
L 821.167818 67.689536 
L 824.272101 68.232728 
L 827.376384 63.697386 
L 830.480666 61.146686 
L 833.584949 67.736474 
L 836.689232 61.644905 
L 839.793514 54.146526 
L 842.897797 53.500136 
L 846.002079 53.68027 
L 849.106362 56.727082 
L 852.210645 55.648143 
L 855.314927 47.968484 
L 858.41921 47.971477 
L 861.523493 52.838939 
L 864.627775 54.788525 
L 867.732058 57.785397 
L 870.83634 63.63866 
L 873.940623 64.425759 
L 877.044906 62.69658 
L 880.149188 70.860995 
L 883.253471 71.980302 
L 886.357754 82.101016 
L 889.462036 84.253903 
L 892.566319 90.709454 
L 895.670601 83.866139 
L 898.774884 87.358402 
L 901.879167 94.414801 
L 904.983449 89.020214 
L 908.087732 87.280575 
L 911.192015 77.449653 
L 914.296297 72.975394 
L 917.40058 74.846715 
L 920.504862 73.871399 
L 923.609145 73.41961 
L 926.713428 80.785517 
L 929.81771 81.415069 
L 932.921993 77.822482 
L 936.026276 83.202489 
L 939.130558 87.040736 
L 942.234841 84.255813 
L 945.339123 71.722047 
L 948.443406 68.872528 
L 951.547689 63.082446 
L 954.651971 57.411651 
L 957.756254 44.609114 
L 960.860536 40.481484 
L 963.964819 28.29637 
L 967.069102 18.297426 
L 970.173384 17.297495 
L 973.277667 16.075 
L 976.38195 27.352468 
L 979.486232 27.257679 
L 982.590515 41.137794 
L 985.694797 37.277304 
L 988.79908 43.032268 
L 991.903363 36.777177 
L 995.007645 52.571564 
L 998.111928 63.015383 
L 1001.216211 63.140105 
L 1004.320493 65.777775 
L 1007.424776 72.383198 
L 1010.529058 72.073937 
L 1013.633341 62.998187 
L 1016.737624 72.042121 
L 1019.841906 69.938693 
L 1022.946189 79.3325 
L 1026.050472 71.382817 
L 1029.154754 63.901241 
L 1032.259037 61.44797 
L 1035.363319 71.439397 
L 1038.467602 64.846243 
L 1041.571885 61.572077 
L 1044.676167 70.803678 
L 1047.78045 60.604931 
L 1050.884733 69.127138 
L 1053.989015 69.070757 
" style="fill:none;stroke:#a447a5;stroke-linecap:square;stroke-width:2;"/>
   </g>
  </g>
  <g id="axes_4">
   <g id="patch_17">
    <path d="M 36.675 257.2 
L 371.316667 257.2 
L 371.316667 141.15 
L 36.675 141.15 
z
" style="fill:#ffffff;"/>
   </g>
   <g id="line2d_101">
    <path clip-path="url(#p6e37428ff7)" d="M 104.658789 257.2 
L 104.658789 141.15 
" style="fill:none;stroke:#dcdcdc;stroke-linecap:square;stroke-width:1.5;"/>
   </g>
   <g id="line2d_102">
    <path clip-path="url(#p6e37428ff7)" d="M 107.763072 257.2 
L 107.763072 141.15 
" style="fill:none;stroke:#dcdcdc;stroke-linecap:square;stroke-width:1.5;"/>
   </g>
   <g id="line2d_103">
    <path clip-path="url(#p6e37428ff7)" d="M 110.867355 257.2 
L 110.867355 141.15 
" style="fill:none;stroke:#dcdcdc;stroke-linecap:square;stroke-width:1.5;"/>
   </g>
   <g id="line2d_104">
    <path clip-path="url(#p6e37428ff7)" d="M 113.971637 257.2 
L 113.971637 141.15 
" style="fill:none;stroke:#dcdcdc;stroke-linecap:square;stroke-width:1.5;"/>
   </g>
   <g id="line2d_105">
    <path clip-path="url(#p6e37428ff7)" d="M 117.07592 257.2 
L 117.07592 141.15 
" style="fill:none;stroke:#dcdcdc;stroke-linecap:square;stroke-width:1.5;"/>
   </g>
   <g id="line2d_106">
    <path clip-path="url(#p6e37428ff7)" d="M 120.180203 257.2 
L 120.180203 141.15 
" style="fill:none;stroke:#dcdcdc;stroke-linecap:square;stroke-width:1.5;"/>
   </g>
   <g id="line2d_107">
    <path clip-path="url(#p6e37428ff7)" d="M 123.284485 257.2 
L 123.284485 141.15 
" style="fill:none;stroke:#dcdcdc;stroke-linecap:square;stroke-width:1.5;"/>
   </g>
   <g id="line2d_108">
    <path clip-path="url(#p6e37428ff7)" d="M 126.388768 257.2 
L 126.388768 141.15 
" style="fill:none;stroke:#dcdcdc;stroke-linecap:square;stroke-width:1.5;"/>
   </g>
   <g id="line2d_109">
    <path clip-path="url(#p6e37428ff7)" d="M 129.49305 257.2 
L 129.49305 141.15 
" style="fill:none;stroke:#dcdcdc;stroke-linecap:square;stroke-width:1.5;"/>
   </g>
   <g id="line2d_110">
    <path clip-path="url(#p6e37428ff7)" d="M 132.597333 257.2 
L 132.597333 141.15 
" style="fill:none;stroke:#dcdcdc;stroke-linecap:square;stroke-width:1.5;"/>
   </g>
   <g id="line2d_111">
    <path clip-path="url(#p6e37428ff7)" d="M 135.701616 257.2 
L 135.701616 141.15 
" style="fill:none;stroke:#dcdcdc;stroke-linecap:square;stroke-width:1.5;"/>
   </g>
   <g id="line2d_112">
    <path clip-path="url(#p6e37428ff7)" d="M 138.805898 257.2 
L 138.805898 141.15 
" style="fill:none;stroke:#dcdcdc;stroke-linecap:square;stroke-width:1.5;"/>
   </g>
   <g id="line2d_113">
    <path clip-path="url(#p6e37428ff7)" d="M 141.910181 257.2 
L 141.910181 141.15 
" style="fill:none;stroke:#dcdcdc;stroke-linecap:square;stroke-width:1.5;"/>
   </g>
   <g id="line2d_114">
    <path clip-path="url(#p6e37428ff7)" d="M 145.014464 257.2 
L 145.014464 141.15 
" style="fill:none;stroke:#dcdcdc;stroke-linecap:square;stroke-width:1.5;"/>
   </g>
   <g id="line2d_115">
    <path clip-path="url(#p6e37428ff7)" d="M 148.118746 257.2 
L 148.118746 141.15 
" style="fill:none;stroke:#dcdcdc;stroke-linecap:square;stroke-width:1.5;"/>
   </g>
   <g id="line2d_116">
    <path clip-path="url(#p6e37428ff7)" d="M 151.223029 257.2 
L 151.223029 141.15 
" style="fill:none;stroke:#dcdcdc;stroke-linecap:square;stroke-width:1.5;"/>
   </g>
   <g id="line2d_117">
    <path clip-path="url(#p6e37428ff7)" d="M 154.327311 257.2 
L 154.327311 141.15 
" style="fill:none;stroke:#dcdcdc;stroke-linecap:square;stroke-width:1.5;"/>
   </g>
   <g id="line2d_118">
    <path clip-path="url(#p6e37428ff7)" d="M 157.431594 257.2 
L 157.431594 141.15 
" style="fill:none;stroke:#dcdcdc;stroke-linecap:square;stroke-width:1.5;"/>
   </g>
   <g id="line2d_119">
    <path clip-path="url(#p6e37428ff7)" d="M 160.535877 257.2 
L 160.535877 141.15 
" style="fill:none;stroke:#dcdcdc;stroke-linecap:square;stroke-width:1.5;"/>
   </g>
   <g id="line2d_120">
    <path clip-path="url(#p6e37428ff7)" d="M 163.640159 257.2 
L 163.640159 141.15 
" style="fill:none;stroke:#dcdcdc;stroke-linecap:square;stroke-width:1.5;"/>
   </g>
   <g id="line2d_121">
    <path clip-path="url(#p6e37428ff7)" d="M 166.744442 257.2 
L 166.744442 141.15 
" style="fill:none;stroke:#dcdcdc;stroke-linecap:square;stroke-width:1.5;"/>
   </g>
   <g id="line2d_122">
    <path clip-path="url(#p6e37428ff7)" d="M 169.848724 257.2 
L 169.848724 141.15 
" style="fill:none;stroke:#dcdcdc;stroke-linecap:square;stroke-width:1.5;"/>
   </g>
   <g id="line2d_123">
    <path clip-path="url(#p6e37428ff7)" d="M 172.953007 257.2 
L 172.953007 141.15 
" style="fill:none;stroke:#dcdcdc;stroke-linecap:square;stroke-width:1.5;"/>
   </g>
   <g id="line2d_124">
    <path clip-path="url(#p6e37428ff7)" d="M 176.05729 257.2 
L 176.05729 141.15 
" style="fill:none;stroke:#dcdcdc;stroke-linecap:square;stroke-width:1.5;"/>
   </g>
   <g id="line2d_125">
    <path clip-path="url(#p6e37428ff7)" d="M 179.161572 257.2 
L 179.161572 141.15 
" style="fill:none;stroke:#dcdcdc;stroke-linecap:square;stroke-width:1.5;"/>
   </g>
   <g id="matplotlib.axis_7">
    <g id="xtick_16">
     <g id="line2d_126">
      <g>
       <use style="stroke:#000000;stroke-width:0.8;" x="92.241659" xlink:href="#me5cc411e49" y="257.2"/>
      </g>
     </g>
     <g id="text_4">
      <!-- 20 -->
      <g transform="translate(84.606659 273.318125)scale(0.12 -0.12)">
       <defs>
        <path d="M 19.1875 8.296875 
L 53.609375 8.296875 
L 53.609375 0 
L 7.328125 0 
L 7.328125 8.296875 
Q 12.9375 14.109375 22.625 23.890625 
Q 32.328125 33.6875 34.8125 36.53125 
Q 39.546875 41.84375 41.421875 45.53125 
Q 43.3125 49.21875 43.3125 52.78125 
Q 43.3125 58.59375 39.234375 62.25 
Q 35.15625 65.921875 28.609375 65.921875 
Q 23.96875 65.921875 18.8125 64.3125 
Q 13.671875 62.703125 7.8125 59.421875 
L 7.8125 69.390625 
Q 13.765625 71.78125 18.9375 73 
Q 24.125 74.21875 28.421875 74.21875 
Q 39.75 74.21875 46.484375 68.546875 
Q 53.21875 62.890625 53.21875 53.421875 
Q 53.21875 48.921875 51.53125 44.890625 
Q 49.859375 40.875 45.40625 35.40625 
Q 44.1875 33.984375 37.640625 27.21875 
Q 31.109375 20.453125 19.1875 8.296875 
z
" id="DejaVuSans-50"/>
       </defs>
       <use xlink:href="#DejaVuSans-50"/>
       <use x="63.623047" xlink:href="#DejaVuSans-48"/>
      </g>
     </g>
    </g>
    <g id="xtick_17">
     <g id="line2d_127">
      <g>
       <use style="stroke:#000000;stroke-width:0.8;" x="154.327311" xlink:href="#me5cc411e49" y="257.2"/>
      </g>
     </g>
     <g id="text_5">
      <!-- 40 -->
      <g transform="translate(146.692311 273.318125)scale(0.12 -0.12)">
       <defs>
        <path d="M 37.796875 64.3125 
L 12.890625 25.390625 
L 37.796875 25.390625 
z
M 35.203125 72.90625 
L 47.609375 72.90625 
L 47.609375 25.390625 
L 58.015625 25.390625 
L 58.015625 17.1875 
L 47.609375 17.1875 
L 47.609375 0 
L 37.796875 0 
L 37.796875 17.1875 
L 4.890625 17.1875 
L 4.890625 26.703125 
z
" id="DejaVuSans-52"/>
       </defs>
       <use xlink:href="#DejaVuSans-52"/>
       <use x="63.623047" xlink:href="#DejaVuSans-48"/>
      </g>
     </g>
    </g>
    <g id="xtick_18">
     <g id="line2d_128">
      <g>
       <use style="stroke:#000000;stroke-width:0.8;" x="216.412964" xlink:href="#me5cc411e49" y="257.2"/>
      </g>
     </g>
     <g id="text_6">
      <!-- 60 -->
      <g transform="translate(208.777964 273.318125)scale(0.12 -0.12)">
       <defs>
        <path d="M 33.015625 40.375 
Q 26.375 40.375 22.484375 35.828125 
Q 18.609375 31.296875 18.609375 23.390625 
Q 18.609375 15.53125 22.484375 10.953125 
Q 26.375 6.390625 33.015625 6.390625 
Q 39.65625 6.390625 43.53125 10.953125 
Q 47.40625 15.53125 47.40625 23.390625 
Q 47.40625 31.296875 43.53125 35.828125 
Q 39.65625 40.375 33.015625 40.375 
z
M 52.59375 71.296875 
L 52.59375 62.3125 
Q 48.875 64.0625 45.09375 64.984375 
Q 41.3125 65.921875 37.59375 65.921875 
Q 27.828125 65.921875 22.671875 59.328125 
Q 17.53125 52.734375 16.796875 39.40625 
Q 19.671875 43.65625 24.015625 45.921875 
Q 28.375 48.1875 33.59375 48.1875 
Q 44.578125 48.1875 50.953125 41.515625 
Q 57.328125 34.859375 57.328125 23.390625 
Q 57.328125 12.15625 50.6875 5.359375 
Q 44.046875 -1.421875 33.015625 -1.421875 
Q 20.359375 -1.421875 13.671875 8.265625 
Q 6.984375 17.96875 6.984375 36.375 
Q 6.984375 53.65625 15.1875 63.9375 
Q 23.390625 74.21875 37.203125 74.21875 
Q 40.921875 74.21875 44.703125 73.484375 
Q 48.484375 72.75 52.59375 71.296875 
z
" id="DejaVuSans-54"/>
       </defs>
       <use xlink:href="#DejaVuSans-54"/>
       <use x="63.623047" xlink:href="#DejaVuSans-48"/>
      </g>
     </g>
    </g>
    <g id="xtick_19">
     <g id="line2d_129">
      <g>
       <use style="stroke:#000000;stroke-width:0.8;" x="278.498616" xlink:href="#me5cc411e49" y="257.2"/>
      </g>
     </g>
     <g id="text_7">
      <!-- 80 -->
      <g transform="translate(270.863616 273.318125)scale(0.12 -0.12)">
       <defs>
        <path d="M 31.78125 34.625 
Q 24.75 34.625 20.71875 30.859375 
Q 16.703125 27.09375 16.703125 20.515625 
Q 16.703125 13.921875 20.71875 10.15625 
Q 24.75 6.390625 31.78125 6.390625 
Q 38.8125 6.390625 42.859375 10.171875 
Q 46.921875 13.96875 46.921875 20.515625 
Q 46.921875 27.09375 42.890625 30.859375 
Q 38.875 34.625 31.78125 34.625 
z
M 21.921875 38.8125 
Q 15.578125 40.375 12.03125 44.71875 
Q 8.5 49.078125 8.5 55.328125 
Q 8.5 64.0625 14.71875 69.140625 
Q 20.953125 74.21875 31.78125 74.21875 
Q 42.671875 74.21875 48.875 69.140625 
Q 55.078125 64.0625 55.078125 55.328125 
Q 55.078125 49.078125 51.53125 44.71875 
Q 48 40.375 41.703125 38.8125 
Q 48.828125 37.15625 52.796875 32.3125 
Q 56.78125 27.484375 56.78125 20.515625 
Q 56.78125 9.90625 50.3125 4.234375 
Q 43.84375 -1.421875 31.78125 -1.421875 
Q 19.734375 -1.421875 13.25 4.234375 
Q 6.78125 9.90625 6.78125 20.515625 
Q 6.78125 27.484375 10.78125 32.3125 
Q 14.796875 37.15625 21.921875 38.8125 
z
M 18.3125 54.390625 
Q 18.3125 48.734375 21.84375 45.5625 
Q 25.390625 42.390625 31.78125 42.390625 
Q 38.140625 42.390625 41.71875 45.5625 
Q 45.3125 48.734375 45.3125 54.390625 
Q 45.3125 60.0625 41.71875 63.234375 
Q 38.140625 66.40625 31.78125 66.40625 
Q 25.390625 66.40625 21.84375 63.234375 
Q 18.3125 60.0625 18.3125 54.390625 
z
" id="DejaVuSans-56"/>
       </defs>
       <use xlink:href="#DejaVuSans-56"/>
       <use x="63.623047" xlink:href="#DejaVuSans-48"/>
      </g>
     </g>
    </g>
    <g id="xtick_20">
     <g id="line2d_130">
      <g>
       <use style="stroke:#000000;stroke-width:0.8;" x="340.584269" xlink:href="#me5cc411e49" y="257.2"/>
      </g>
     </g>
     <g id="text_8">
      <!-- 100 -->
      <g transform="translate(329.131769 273.318125)scale(0.12 -0.12)">
       <use xlink:href="#DejaVuSans-49"/>
       <use x="63.623047" xlink:href="#DejaVuSans-48"/>
       <use x="127.246094" xlink:href="#DejaVuSans-48"/>
      </g>
     </g>
    </g>
   </g>
   <g id="matplotlib.axis_8">
    <g id="ytick_10">
     <g id="line2d_131">
      <g>
       <use style="stroke:#000000;stroke-width:0.8;" x="36.675" xlink:href="#m8d3c896e40" y="211.752594"/>
      </g>
     </g>
     <g id="text_9">
      <!-- 5 -->
      <g transform="translate(22.04 216.311656)scale(0.12 -0.12)">
       <use xlink:href="#DejaVuSans-53"/>
      </g>
     </g>
    </g>
    <g id="ytick_11">
     <g id="line2d_132">
      <g>
       <use style="stroke:#000000;stroke-width:0.8;" x="36.675" xlink:href="#m8d3c896e40" y="161.537086"/>
      </g>
     </g>
     <g id="text_10">
      <!-- 10 -->
      <g transform="translate(14.405 166.096148)scale(0.12 -0.12)">
       <use xlink:href="#DejaVuSans-49"/>
       <use x="63.623047" xlink:href="#DejaVuSans-48"/>
      </g>
     </g>
    </g>
   </g>
   <g id="line2d_133">
    <path clip-path="url(#p6e37428ff7)" d="M 36.675 251.925 
L 371.316667 251.925 
" style="fill:none;stroke:#000000;stroke-linecap:square;stroke-width:1.5;"/>
   </g>
   <g id="patch_18">
    <path d="M 36.675 257.2 
L 36.675 141.15 
" style="fill:none;stroke:#000000;stroke-linecap:square;stroke-linejoin:miter;stroke-width:0.8;"/>
   </g>
   <g id="patch_19">
    <path d="M 371.316667 257.2 
L 371.316667 141.15 
" style="fill:none;stroke:#000000;stroke-linecap:square;stroke-linejoin:miter;stroke-width:0.8;"/>
   </g>
   <g id="patch_20">
    <path d="M 36.675 257.2 
L 371.316667 257.2 
" style="fill:none;stroke:#000000;stroke-linecap:square;stroke-linejoin:miter;stroke-width:0.8;"/>
   </g>
   <g id="patch_21">
    <path d="M 36.675 141.15 
L 371.316667 141.15 
" style="fill:none;stroke:#000000;stroke-linecap:square;stroke-linejoin:miter;stroke-width:0.8;"/>
   </g>
   <g id="line2d_134">
    <path clip-path="url(#p6e37428ff7)" d="M 58.09455 223.289732 
L 61.198833 222.753299 
L 64.303115 231.530308 
L 67.407398 239.459949 
L 70.511681 241.579348 
L 73.615963 240.742928 
L 76.720246 239.921725 
L 79.824528 240.520449 
L 82.928811 240.967355 
L 86.033094 241.870807 
L 89.137376 242.829389 
L 92.241659 243.326557 
L 95.345942 243.962801 
L 98.450224 243.964176 
L 101.554507 244.339739 
L 104.658789 244.706386 
L 107.763072 244.334028 
L 110.867355 244.900127 
L 113.971637 245.354902 
L 117.07592 244.584873 
L 120.180203 244.789107 
L 123.284485 240.11722 
L 126.388768 231.418875 
L 129.49305 216.499964 
L 132.597333 211.008308 
L 135.701616 205.591056 
L 138.805898 195.789884 
L 141.910181 186.038005 
L 145.014464 176.381567 
L 148.118746 165.589709 
L 151.223029 156.403263 
L 154.327311 155.331451 
L 157.431594 153.116678 
L 160.535877 157.209283 
L 163.640159 150.47489 
L 166.744442 146.425 
L 169.848724 150.341906 
L 172.953007 159.240706 
L 176.05729 169.117185 
L 179.161572 180.567427 
L 182.265855 189.984855 
L 185.370138 195.551177 
L 188.47442 205.896989 
L 191.578703 215.706892 
L 194.682985 227.180718 
L 197.787268 235.899298 
L 200.891551 240.65523 
L 203.995833 240.131914 
L 207.100116 238.958099 
L 210.204399 237.162759 
L 213.308681 236.164533 
L 216.412964 236.701464 
L 219.517246 236.126332 
L 222.621529 236.782489 
L 225.725812 237.33392 
L 228.830094 238.836543 
L 231.934377 240.767726 
L 235.03866 241.932634 
L 238.142942 242.530929 
L 241.247225 242.87891 
L 244.351507 243.376306 
L 247.45579 240.833114 
L 250.560073 240.456918 
L 253.664355 240.414195 
L 256.768638 240.509434 
L 259.872921 239.73221 
L 262.977203 238.777693 
L 266.081486 238.821766 
L 269.185768 237.495937 
L 272.290051 236.268898 
L 275.394334 235.497815 
L 278.498616 237.09582 
L 281.602899 234.630717 
L 284.707182 234.126252 
L 287.811464 234.19514 
L 290.915747 234.735588 
L 294.020029 235.090756 
L 297.124312 234.063927 
L 300.228595 234.964629 
L 303.332877 234.604848 
L 306.43716 233.219688 
L 309.541442 232.581083 
L 312.645725 234.975459 
L 315.750008 235.532634 
L 318.85429 235.245139 
L 321.958573 234.709347 
L 325.062856 234.759046 
L 328.167138 235.136389 
L 331.271421 235.157425 
L 334.375703 237.533481 
L 337.479986 239.206776 
L 340.584269 239.964017 
L 343.688551 239.880748 
L 346.792834 239.548734 
L 349.897117 239.441746 
L 353.001399 238.699434 
L 356.105682 239.799039 
" style="fill:none;stroke:#857bbe;stroke-linecap:square;stroke-width:2;"/>
   </g>
  </g>
  <g id="axes_5">
   <g id="patch_22">
    <path d="M 385.616667 257.2 
L 720.258333 257.2 
L 720.258333 141.15 
L 385.616667 141.15 
z
" style="fill:#ffffff;"/>
   </g>
   <g id="line2d_135">
    <path clip-path="url(#p85cff7e50e)" d="M 400.827652 257.2 
L 400.827652 141.15 
" style="fill:none;stroke:#dcdcdc;stroke-linecap:square;stroke-width:1.5;"/>
   </g>
   <g id="line2d_136">
    <path clip-path="url(#p85cff7e50e)" d="M 403.931934 257.2 
L 403.931934 141.15 
" style="fill:none;stroke:#dcdcdc;stroke-linecap:square;stroke-width:1.5;"/>
   </g>
   <g id="line2d_137">
    <path clip-path="url(#p85cff7e50e)" d="M 407.036217 257.2 
L 407.036217 141.15 
" style="fill:none;stroke:#dcdcdc;stroke-linecap:square;stroke-width:1.5;"/>
   </g>
   <g id="line2d_138">
    <path clip-path="url(#p85cff7e50e)" d="M 410.140499 257.2 
L 410.140499 141.15 
" style="fill:none;stroke:#dcdcdc;stroke-linecap:square;stroke-width:1.5;"/>
   </g>
   <g id="line2d_139">
    <path clip-path="url(#p85cff7e50e)" d="M 413.244782 257.2 
L 413.244782 141.15 
" style="fill:none;stroke:#dcdcdc;stroke-linecap:square;stroke-width:1.5;"/>
   </g>
   <g id="line2d_140">
    <path clip-path="url(#p85cff7e50e)" d="M 416.349065 257.2 
L 416.349065 141.15 
" style="fill:none;stroke:#dcdcdc;stroke-linecap:square;stroke-width:1.5;"/>
   </g>
   <g id="line2d_141">
    <path clip-path="url(#p85cff7e50e)" d="M 419.453347 257.2 
L 419.453347 141.15 
" style="fill:none;stroke:#dcdcdc;stroke-linecap:square;stroke-width:1.5;"/>
   </g>
   <g id="line2d_142">
    <path clip-path="url(#p85cff7e50e)" d="M 422.55763 257.2 
L 422.55763 141.15 
" style="fill:none;stroke:#dcdcdc;stroke-linecap:square;stroke-width:1.5;"/>
   </g>
   <g id="line2d_143">
    <path clip-path="url(#p85cff7e50e)" d="M 425.661912 257.2 
L 425.661912 141.15 
" style="fill:none;stroke:#dcdcdc;stroke-linecap:square;stroke-width:1.5;"/>
   </g>
   <g id="line2d_144">
    <path clip-path="url(#p85cff7e50e)" d="M 428.766195 257.2 
L 428.766195 141.15 
" style="fill:none;stroke:#dcdcdc;stroke-linecap:square;stroke-width:1.5;"/>
   </g>
   <g id="line2d_145">
    <path clip-path="url(#p85cff7e50e)" d="M 431.870478 257.2 
L 431.870478 141.15 
" style="fill:none;stroke:#dcdcdc;stroke-linecap:square;stroke-width:1.5;"/>
   </g>
   <g id="line2d_146">
    <path clip-path="url(#p85cff7e50e)" d="M 434.97476 257.2 
L 434.97476 141.15 
" style="fill:none;stroke:#dcdcdc;stroke-linecap:square;stroke-width:1.5;"/>
   </g>
   <g id="line2d_147">
    <path clip-path="url(#p85cff7e50e)" d="M 438.079043 257.2 
L 438.079043 141.15 
" style="fill:none;stroke:#dcdcdc;stroke-linecap:square;stroke-width:1.5;"/>
   </g>
   <g id="line2d_148">
    <path clip-path="url(#p85cff7e50e)" d="M 441.183326 257.2 
L 441.183326 141.15 
" style="fill:none;stroke:#dcdcdc;stroke-linecap:square;stroke-width:1.5;"/>
   </g>
   <g id="line2d_149">
    <path clip-path="url(#p85cff7e50e)" d="M 444.287608 257.2 
L 444.287608 141.15 
" style="fill:none;stroke:#dcdcdc;stroke-linecap:square;stroke-width:1.5;"/>
   </g>
   <g id="line2d_150">
    <path clip-path="url(#p85cff7e50e)" d="M 447.391891 257.2 
L 447.391891 141.15 
" style="fill:none;stroke:#dcdcdc;stroke-linecap:square;stroke-width:1.5;"/>
   </g>
   <g id="line2d_151">
    <path clip-path="url(#p85cff7e50e)" d="M 450.496173 257.2 
L 450.496173 141.15 
" style="fill:none;stroke:#dcdcdc;stroke-linecap:square;stroke-width:1.5;"/>
   </g>
   <g id="line2d_152">
    <path clip-path="url(#p85cff7e50e)" d="M 453.600456 257.2 
L 453.600456 141.15 
" style="fill:none;stroke:#dcdcdc;stroke-linecap:square;stroke-width:1.5;"/>
   </g>
   <g id="line2d_153">
    <path clip-path="url(#p85cff7e50e)" d="M 456.704739 257.2 
L 456.704739 141.15 
" style="fill:none;stroke:#dcdcdc;stroke-linecap:square;stroke-width:1.5;"/>
   </g>
   <g id="line2d_154">
    <path clip-path="url(#p85cff7e50e)" d="M 459.809021 257.2 
L 459.809021 141.15 
" style="fill:none;stroke:#dcdcdc;stroke-linecap:square;stroke-width:1.5;"/>
   </g>
   <g id="line2d_155">
    <path clip-path="url(#p85cff7e50e)" d="M 462.913304 257.2 
L 462.913304 141.15 
" style="fill:none;stroke:#dcdcdc;stroke-linecap:square;stroke-width:1.5;"/>
   </g>
   <g id="line2d_156">
    <path clip-path="url(#p85cff7e50e)" d="M 466.017587 257.2 
L 466.017587 141.15 
" style="fill:none;stroke:#dcdcdc;stroke-linecap:square;stroke-width:1.5;"/>
   </g>
   <g id="matplotlib.axis_9">
    <g id="xtick_21">
     <g id="line2d_157">
      <g>
       <use style="stroke:#000000;stroke-width:0.8;" x="441.183326" xlink:href="#me5cc411e49" y="257.2"/>
      </g>
     </g>
     <g id="text_11">
      <!-- 20 -->
      <g transform="translate(433.548326 273.318125)scale(0.12 -0.12)">
       <use xlink:href="#DejaVuSans-50"/>
       <use x="63.623047" xlink:href="#DejaVuSans-48"/>
      </g>
     </g>
    </g>
    <g id="xtick_22">
     <g id="line2d_158">
      <g>
       <use style="stroke:#000000;stroke-width:0.8;" x="503.268978" xlink:href="#me5cc411e49" y="257.2"/>
      </g>
     </g>
     <g id="text_12">
      <!-- 40 -->
      <g transform="translate(495.633978 273.318125)scale(0.12 -0.12)">
       <use xlink:href="#DejaVuSans-52"/>
       <use x="63.623047" xlink:href="#DejaVuSans-48"/>
      </g>
     </g>
    </g>
    <g id="xtick_23">
     <g id="line2d_159">
      <g>
       <use style="stroke:#000000;stroke-width:0.8;" x="565.35463" xlink:href="#me5cc411e49" y="257.2"/>
      </g>
     </g>
     <g id="text_13">
      <!-- 60 -->
      <g transform="translate(557.71963 273.318125)scale(0.12 -0.12)">
       <use xlink:href="#DejaVuSans-54"/>
       <use x="63.623047" xlink:href="#DejaVuSans-48"/>
      </g>
     </g>
    </g>
    <g id="xtick_24">
     <g id="line2d_160">
      <g>
       <use style="stroke:#000000;stroke-width:0.8;" x="627.440283" xlink:href="#me5cc411e49" y="257.2"/>
      </g>
     </g>
     <g id="text_14">
      <!-- 80 -->
      <g transform="translate(619.805283 273.318125)scale(0.12 -0.12)">
       <use xlink:href="#DejaVuSans-56"/>
       <use x="63.623047" xlink:href="#DejaVuSans-48"/>
      </g>
     </g>
    </g>
    <g id="xtick_25">
     <g id="line2d_161">
      <g>
       <use style="stroke:#000000;stroke-width:0.8;" x="689.525935" xlink:href="#me5cc411e49" y="257.2"/>
      </g>
     </g>
     <g id="text_15">
      <!-- 100 -->
      <g transform="translate(678.073435 273.318125)scale(0.12 -0.12)">
       <use xlink:href="#DejaVuSans-49"/>
       <use x="63.623047" xlink:href="#DejaVuSans-48"/>
       <use x="127.246094" xlink:href="#DejaVuSans-48"/>
      </g>
     </g>
    </g>
   </g>
   <g id="matplotlib.axis_10">
    <g id="ytick_12">
     <g id="line2d_162">
      <g>
       <use style="stroke:#000000;stroke-width:0.8;" x="385.616667" xlink:href="#m8d3c896e40" y="211.752594"/>
      </g>
     </g>
    </g>
    <g id="ytick_13">
     <g id="line2d_163">
      <g>
       <use style="stroke:#000000;stroke-width:0.8;" x="385.616667" xlink:href="#m8d3c896e40" y="161.537086"/>
      </g>
     </g>
    </g>
   </g>
   <g id="line2d_164">
    <path clip-path="url(#p85cff7e50e)" d="M 385.616667 251.925 
L 720.258333 251.925 
" style="fill:none;stroke:#000000;stroke-linecap:square;stroke-width:1.5;"/>
   </g>
   <g id="patch_23">
    <path d="M 385.616667 257.2 
L 385.616667 141.15 
" style="fill:none;stroke:#000000;stroke-linecap:square;stroke-linejoin:miter;stroke-width:0.8;"/>
   </g>
   <g id="patch_24">
    <path d="M 720.258333 257.2 
L 720.258333 141.15 
" style="fill:none;stroke:#000000;stroke-linecap:square;stroke-linejoin:miter;stroke-width:0.8;"/>
   </g>
   <g id="patch_25">
    <path d="M 385.616667 257.2 
L 720.258333 257.2 
" style="fill:none;stroke:#000000;stroke-linecap:square;stroke-linejoin:miter;stroke-width:0.8;"/>
   </g>
   <g id="patch_26">
    <path d="M 385.616667 141.15 
L 720.258333 141.15 
" style="fill:none;stroke:#000000;stroke-linecap:square;stroke-linejoin:miter;stroke-width:0.8;"/>
   </g>
   <g id="line2d_165">
    <path clip-path="url(#p85cff7e50e)" d="M 407.036217 214.793807 
L 410.140499 214.066611 
L 413.244782 223.199158 
L 416.349065 230.008529 
L 419.453347 238.186982 
L 422.55763 232.106739 
L 425.661912 220.839779 
L 428.766195 208.291357 
L 431.870478 202.611139 
L 434.97476 199.009183 
L 438.079043 188.614954 
L 441.183326 182.209361 
L 444.287608 173.659259 
L 447.391891 161.413414 
L 450.496173 157.423495 
L 453.600456 154.408826 
L 456.704739 163.832167 
L 459.809021 175.851569 
L 462.913304 181.795099 
L 466.017587 190.63057 
L 469.121869 202.255212 
L 472.226152 209.410666 
L 475.330434 216.893747 
L 478.434717 229.503811 
L 481.539 234.503519 
L 484.643282 244.415416 
L 487.747565 244.798959 
L 490.851848 244.448894 
L 493.95613 243.429463 
L 497.060413 242.562273 
L 500.164695 241.319739 
L 503.268978 239.170278 
L 506.373261 238.863788 
L 509.477543 238.004485 
L 512.581826 235.048565 
L 515.686109 232.394731 
L 518.790391 232.236746 
L 521.894674 233.38982 
L 524.998956 234.557056 
L 528.103239 234.831383 
L 531.207522 235.793997 
L 534.311804 237.790466 
L 537.416087 238.060028 
L 540.52037 237.368638 
L 543.624652 239.644816 
L 546.728935 240.943037 
L 549.833217 239.782161 
L 552.9375 238.149978 
L 556.041783 237.588333 
L 559.146065 237.57353 
L 562.250348 236.781385 
L 565.35463 236.851048 
L 568.458913 236.370243 
L 571.563196 236.608124 
L 574.667478 235.815228 
L 577.771761 236.338435 
L 580.876044 238.366619 
L 583.980326 239.482436 
L 587.084609 239.202769 
L 590.188891 238.94559 
L 593.293174 238.722183 
L 596.397457 237.79271 
L 599.501739 238.528915 
L 602.606022 239.030301 
L 605.710305 239.562702 
L 608.814587 239.077958 
L 611.91887 235.894221 
L 615.023152 234.266103 
L 618.127435 234.041212 
L 621.231718 235.379777 
L 624.336 236.544913 
L 627.440283 237.011336 
L 630.544566 237.166977 
L 633.648848 236.230916 
L 636.753131 236.302806 
L 639.857413 237.961332 
L 642.961696 241.762764 
L 646.065979 242.419926 
L 649.170261 242.435016 
L 652.274544 241.791148 
L 655.378827 241.694745 
L 658.483109 239.784287 
L 661.587392 238.993643 
L 664.691674 238.604306 
L 667.795957 238.067746 
L 670.90024 237.029615 
L 674.004522 235.989366 
L 677.108805 237.006081 
L 680.213088 236.846999 
L 683.31737 234.834411 
L 686.421653 232.308594 
L 689.525935 233.749061 
L 692.630218 235.075413 
L 695.734501 236.941091 
L 698.838783 236.21715 
L 701.943066 235.522985 
L 705.047348 235.829626 
" style="fill:none;stroke:#857bbe;stroke-linecap:square;stroke-width:2;"/>
   </g>
  </g>
  <g id="axes_6">
   <g id="patch_27">
    <path d="M 734.558333 257.2 
L 1069.2 257.2 
L 1069.2 141.15 
L 734.558333 141.15 
z
" style="fill:#ffffff;"/>
   </g>
   <g id="line2d_166">
    <path clip-path="url(#p704c733bdd)" d="M 926.713428 257.2 
L 926.713428 141.15 
" style="fill:none;stroke:#dcdcdc;stroke-linecap:square;stroke-width:1.5;"/>
   </g>
   <g id="line2d_167">
    <path clip-path="url(#p704c733bdd)" d="M 858.41921 257.2 
L 858.41921 141.15 
" style="fill:none;stroke:#dcdcdc;stroke-linecap:square;stroke-width:1.5;"/>
   </g>
   <g id="line2d_168">
    <path clip-path="url(#p704c733bdd)" d="M 861.523493 257.2 
L 861.523493 141.15 
" style="fill:none;stroke:#dcdcdc;stroke-linecap:square;stroke-width:1.5;"/>
   </g>
   <g id="line2d_169">
    <path clip-path="url(#p704c733bdd)" d="M 864.627775 257.2 
L 864.627775 141.15 
" style="fill:none;stroke:#dcdcdc;stroke-linecap:square;stroke-width:1.5;"/>
   </g>
   <g id="line2d_170">
    <path clip-path="url(#p704c733bdd)" d="M 867.732058 257.2 
L 867.732058 141.15 
" style="fill:none;stroke:#dcdcdc;stroke-linecap:square;stroke-width:1.5;"/>
   </g>
   <g id="line2d_171">
    <path clip-path="url(#p704c733bdd)" d="M 870.83634 257.2 
L 870.83634 141.15 
" style="fill:none;stroke:#dcdcdc;stroke-linecap:square;stroke-width:1.5;"/>
   </g>
   <g id="line2d_172">
    <path clip-path="url(#p704c733bdd)" d="M 873.940623 257.2 
L 873.940623 141.15 
" style="fill:none;stroke:#dcdcdc;stroke-linecap:square;stroke-width:1.5;"/>
   </g>
   <g id="line2d_173">
    <path clip-path="url(#p704c733bdd)" d="M 877.044906 257.2 
L 877.044906 141.15 
" style="fill:none;stroke:#dcdcdc;stroke-linecap:square;stroke-width:1.5;"/>
   </g>
   <g id="line2d_174">
    <path clip-path="url(#p704c733bdd)" d="M 880.149188 257.2 
L 880.149188 141.15 
" style="fill:none;stroke:#dcdcdc;stroke-linecap:square;stroke-width:1.5;"/>
   </g>
   <g id="line2d_175">
    <path clip-path="url(#p704c733bdd)" d="M 883.253471 257.2 
L 883.253471 141.15 
" style="fill:none;stroke:#dcdcdc;stroke-linecap:square;stroke-width:1.5;"/>
   </g>
   <g id="line2d_176">
    <path clip-path="url(#p704c733bdd)" d="M 886.357754 257.2 
L 886.357754 141.15 
" style="fill:none;stroke:#dcdcdc;stroke-linecap:square;stroke-width:1.5;"/>
   </g>
   <g id="line2d_177">
    <path clip-path="url(#p704c733bdd)" d="M 889.462036 257.2 
L 889.462036 141.15 
" style="fill:none;stroke:#dcdcdc;stroke-linecap:square;stroke-width:1.5;"/>
   </g>
   <g id="line2d_178">
    <path clip-path="url(#p704c733bdd)" d="M 892.566319 257.2 
L 892.566319 141.15 
" style="fill:none;stroke:#dcdcdc;stroke-linecap:square;stroke-width:1.5;"/>
   </g>
   <g id="line2d_179">
    <path clip-path="url(#p704c733bdd)" d="M 895.670601 257.2 
L 895.670601 141.15 
" style="fill:none;stroke:#dcdcdc;stroke-linecap:square;stroke-width:1.5;"/>
   </g>
   <g id="line2d_180">
    <path clip-path="url(#p704c733bdd)" d="M 898.774884 257.2 
L 898.774884 141.15 
" style="fill:none;stroke:#dcdcdc;stroke-linecap:square;stroke-width:1.5;"/>
   </g>
   <g id="line2d_181">
    <path clip-path="url(#p704c733bdd)" d="M 901.879167 257.2 
L 901.879167 141.15 
" style="fill:none;stroke:#dcdcdc;stroke-linecap:square;stroke-width:1.5;"/>
   </g>
   <g id="line2d_182">
    <path clip-path="url(#p704c733bdd)" d="M 904.983449 257.2 
L 904.983449 141.15 
" style="fill:none;stroke:#dcdcdc;stroke-linecap:square;stroke-width:1.5;"/>
   </g>
   <g id="line2d_183">
    <path clip-path="url(#p704c733bdd)" d="M 908.087732 257.2 
L 908.087732 141.15 
" style="fill:none;stroke:#dcdcdc;stroke-linecap:square;stroke-width:1.5;"/>
   </g>
   <g id="line2d_184">
    <path clip-path="url(#p704c733bdd)" d="M 911.192015 257.2 
L 911.192015 141.15 
" style="fill:none;stroke:#dcdcdc;stroke-linecap:square;stroke-width:1.5;"/>
   </g>
   <g id="line2d_185">
    <path clip-path="url(#p704c733bdd)" d="M 914.296297 257.2 
L 914.296297 141.15 
" style="fill:none;stroke:#dcdcdc;stroke-linecap:square;stroke-width:1.5;"/>
   </g>
   <g id="line2d_186">
    <path clip-path="url(#p704c733bdd)" d="M 917.40058 257.2 
L 917.40058 141.15 
" style="fill:none;stroke:#dcdcdc;stroke-linecap:square;stroke-width:1.5;"/>
   </g>
   <g id="line2d_187">
    <path clip-path="url(#p704c733bdd)" d="M 920.504862 257.2 
L 920.504862 141.15 
" style="fill:none;stroke:#dcdcdc;stroke-linecap:square;stroke-width:1.5;"/>
   </g>
   <g id="line2d_188">
    <path clip-path="url(#p704c733bdd)" d="M 923.609145 257.2 
L 923.609145 141.15 
" style="fill:none;stroke:#dcdcdc;stroke-linecap:square;stroke-width:1.5;"/>
   </g>
   <g id="matplotlib.axis_11">
    <g id="xtick_26">
     <g id="line2d_189">
      <g>
       <use style="stroke:#000000;stroke-width:0.8;" x="790.124992" xlink:href="#me5cc411e49" y="257.2"/>
      </g>
     </g>
     <g id="text_16">
      <!-- 20 -->
      <g transform="translate(782.489992 273.318125)scale(0.12 -0.12)">
       <use xlink:href="#DejaVuSans-50"/>
       <use x="63.623047" xlink:href="#DejaVuSans-48"/>
      </g>
     </g>
    </g>
    <g id="xtick_27">
     <g id="line2d_190">
      <g>
       <use style="stroke:#000000;stroke-width:0.8;" x="852.210645" xlink:href="#me5cc411e49" y="257.2"/>
      </g>
     </g>
     <g id="text_17">
      <!-- 40 -->
      <g transform="translate(844.575645 273.318125)scale(0.12 -0.12)">
       <use xlink:href="#DejaVuSans-52"/>
       <use x="63.623047" xlink:href="#DejaVuSans-48"/>
      </g>
     </g>
    </g>
    <g id="xtick_28">
     <g id="line2d_191">
      <g>
       <use style="stroke:#000000;stroke-width:0.8;" x="914.296297" xlink:href="#me5cc411e49" y="257.2"/>
      </g>
     </g>
     <g id="text_18">
      <!-- 60 -->
      <g transform="translate(906.661297 273.318125)scale(0.12 -0.12)">
       <use xlink:href="#DejaVuSans-54"/>
       <use x="63.623047" xlink:href="#DejaVuSans-48"/>
      </g>
     </g>
    </g>
    <g id="xtick_29">
     <g id="line2d_192">
      <g>
       <use style="stroke:#000000;stroke-width:0.8;" x="976.38195" xlink:href="#me5cc411e49" y="257.2"/>
      </g>
     </g>
     <g id="text_19">
      <!-- 80 -->
      <g transform="translate(968.74695 273.318125)scale(0.12 -0.12)">
       <use xlink:href="#DejaVuSans-56"/>
       <use x="63.623047" xlink:href="#DejaVuSans-48"/>
      </g>
     </g>
    </g>
    <g id="xtick_30">
     <g id="line2d_193">
      <g>
       <use style="stroke:#000000;stroke-width:0.8;" x="1038.467602" xlink:href="#me5cc411e49" y="257.2"/>
      </g>
     </g>
     <g id="text_20">
      <!-- 100 -->
      <g transform="translate(1027.015102 273.318125)scale(0.12 -0.12)">
       <use xlink:href="#DejaVuSans-49"/>
       <use x="63.623047" xlink:href="#DejaVuSans-48"/>
       <use x="127.246094" xlink:href="#DejaVuSans-48"/>
      </g>
     </g>
    </g>
   </g>
   <g id="matplotlib.axis_12">
    <g id="ytick_14">
     <g id="line2d_194">
      <g>
       <use style="stroke:#000000;stroke-width:0.8;" x="734.558333" xlink:href="#m8d3c896e40" y="211.752594"/>
      </g>
     </g>
    </g>
    <g id="ytick_15">
     <g id="line2d_195">
      <g>
       <use style="stroke:#000000;stroke-width:0.8;" x="734.558333" xlink:href="#m8d3c896e40" y="161.537086"/>
      </g>
     </g>
    </g>
   </g>
   <g id="line2d_196">
    <path clip-path="url(#p704c733bdd)" d="M 734.558333 251.925 
L 1069.2 251.925 
" style="fill:none;stroke:#000000;stroke-linecap:square;stroke-width:1.5;"/>
   </g>
   <g id="patch_28">
    <path d="M 734.558333 257.2 
L 734.558333 141.15 
" style="fill:none;stroke:#000000;stroke-linecap:square;stroke-linejoin:miter;stroke-width:0.8;"/>
   </g>
   <g id="patch_29">
    <path d="M 1069.2 257.2 
L 1069.2 141.15 
" style="fill:none;stroke:#000000;stroke-linecap:square;stroke-linejoin:miter;stroke-width:0.8;"/>
   </g>
   <g id="patch_30">
    <path d="M 734.558333 257.2 
L 1069.2 257.2 
" style="fill:none;stroke:#000000;stroke-linecap:square;stroke-linejoin:miter;stroke-width:0.8;"/>
   </g>
   <g id="patch_31">
    <path d="M 734.558333 141.15 
L 1069.2 141.15 
" style="fill:none;stroke:#000000;stroke-linecap:square;stroke-linejoin:miter;stroke-width:0.8;"/>
   </g>
   <g id="line2d_197">
    <path clip-path="url(#p704c733bdd)" d="M 755.977883 244.748139 
L 759.082166 244.475279 
L 762.186449 246.493189 
L 765.290731 235.72096 
L 768.395014 235.489785 
L 771.499297 234.771943 
L 774.603579 220.646131 
L 777.707862 220.616398 
L 780.812144 220.200136 
L 783.916427 218.842095 
L 787.02071 217.496132 
L 790.124992 216.764634 
L 793.229275 214.968325 
L 796.333558 224.949422 
L 799.43784 225.291203 
L 802.542123 226.787779 
L 805.646405 227.854665 
L 808.750688 227.254371 
L 811.854971 218.945684 
L 814.959253 218.926089 
L 818.063536 219.001295 
L 821.167818 212.621184 
L 824.272101 212.583885 
L 827.376384 213.435682 
L 830.480666 214.354552 
L 833.584949 211.39579 
L 836.689232 223.458717 
L 839.793514 224.481446 
L 842.897797 227.34729 
L 846.002079 227.463708 
L 849.106362 227.967667 
L 852.210645 227.202277 
L 855.314927 227.580767 
L 858.41921 227.737024 
L 861.523493 227.424916 
L 864.627775 222.454628 
L 867.732058 220.295585 
L 870.83634 219.591365 
L 873.940623 211.559663 
L 877.044906 210.777226 
L 880.149188 198.939747 
L 883.253471 195.899681 
L 886.357754 194.511232 
L 889.462036 193.293867 
L 892.566319 182.391665 
L 895.670601 188.176441 
L 898.774884 179.997997 
L 901.879167 168.957724 
L 904.983449 180.712381 
L 908.087732 181.750867 
L 911.192015 194.057502 
L 914.296297 203.948945 
L 917.40058 204.135887 
L 920.504862 203.759961 
L 923.609145 208.059862 
L 926.713428 200.423257 
L 929.81771 195.32384 
L 932.921993 204.821171 
L 936.026276 193.696447 
L 939.130558 192.920902 
L 942.234841 192.889153 
L 945.339123 195.011538 
L 948.443406 196.296356 
L 951.547689 197.846763 
L 954.651971 203.872533 
L 957.756254 214.317818 
L 960.860536 229.056391 
L 963.964819 232.224431 
L 967.069102 245.699011 
L 970.173384 247.252286 
L 973.277667 247.271813 
L 976.38195 245.436956 
L 979.486232 246.052188 
L 982.590515 236.774493 
L 985.694797 235.983672 
L 988.79908 235.730128 
L 991.903363 236.469918 
L 995.007645 226.420701 
L 998.111928 213.998499 
L 1001.216211 212.660921 
L 1004.320493 211.352173 
L 1007.424776 197.739354 
L 1010.529058 195.945195 
L 1013.633341 203.359996 
L 1016.737624 195.007085 
L 1019.841906 192.770491 
L 1022.946189 182.641337 
L 1026.050472 190.372539 
L 1029.154754 201.629766 
L 1032.259037 201.704195 
L 1035.363319 194.100664 
L 1038.467602 206.598805 
L 1041.571885 207.908565 
L 1044.676167 198.202437 
L 1047.78045 206.306401 
L 1050.884733 199.025099 
L 1053.989015 205.177283 
" style="fill:none;stroke:#857bbe;stroke-linecap:square;stroke-width:2;"/>
   </g>
  </g>
 </g>
 <defs>
  <clipPath id="p4d42a0454b">
   <rect height="116.05" width="334.641667" x="36.675" y="10.8"/>
  </clipPath>
  <clipPath id="p43bd05b10a">
   <rect height="116.05" width="334.641667" x="385.616667" y="10.8"/>
  </clipPath>
  <clipPath id="paa80e1193f">
   <rect height="116.05" width="334.641667" x="734.558333" y="10.8"/>
  </clipPath>
  <clipPath id="p6e37428ff7">
   <rect height="116.05" width="334.641667" x="36.675" y="141.15"/>
  </clipPath>
  <clipPath id="p85cff7e50e">
   <rect height="116.05" width="334.641667" x="385.616667" y="141.15"/>
  </clipPath>
  <clipPath id="p704c733bdd">
   <rect height="116.05" width="334.641667" x="734.558333" y="141.15"/>
  </clipPath>
 </defs>
</svg>
