<?xml version="1.0" encoding="utf-8" standalone="no"?>
<!DOCTYPE svg PUBLIC "-//W3C//DTD SVG 1.1//EN"
  "http://www.w3.org/Graphics/SVG/1.1/DTD/svg11.dtd">
<svg xmlns:xlink="http://www.w3.org/1999/xlink" width="432pt" height="648pt" viewBox="0 0 432 648" xmlns="http://www.w3.org/2000/svg" version="1.1">
 <metadata>
  <rdf:RDF xmlns:dc="http://purl.org/dc/elements/1.1/" xmlns:cc="http://creativecommons.org/ns#" xmlns:rdf="http://www.w3.org/1999/02/22-rdf-syntax-ns#">
   <cc:Work>
    <dc:type rdf:resource="http://purl.org/dc/dcmitype/StillImage"/>
    <dc:date>2023-12-21T13:20:38.940711</dc:date>
    <dc:format>image/svg+xml</dc:format>
    <dc:creator>
     <cc:Agent>
      <dc:title>Matplotlib v3.8.2, https://matplotlib.org/</dc:title>
     </cc:Agent>
    </dc:creator>
   </cc:Work>
  </rdf:RDF>
 </metadata>
 <defs>
  <style type="text/css">*{stroke-linejoin: round; stroke-linecap: butt}</style>
 </defs>
 <g id="figure_1">
  <g id="patch_1">
   <path d="M 0 648 
L 432 648 
L 432 0 
L 0 0 
z
" style="fill: #ffffff"/>
  </g>
  <g id="axes_1">
   <g id="patch_2">
    <path d="M 54 455.76 
L 388.8 455.76 
L 388.8 77.76 
L 54 77.76 
z
" style="fill: #ffffff"/>
   </g>
   <g id="patch_3">
    <path d="M 69.218182 455.76 
L 69.218182 77.76 
L 98.205195 77.76 
L 98.205195 455.76 
z
" clip-path="url(#pcee8be95ac)" style="fill: #ee9b00; stroke: #ee9b00; stroke-linejoin: miter"/>
   </g>
   <g id="patch_4">
    <path d="M 72.116883 455.76 
L 72.116883 77.76 
L 101.103896 77.76 
L 101.103896 455.76 
z
" clip-path="url(#pcee8be95ac)" style="fill: #ee9b00; stroke: #ee9b00; stroke-linejoin: miter"/>
   </g>
   <g id="patch_5">
    <path d="M 75.015584 455.76 
L 75.015584 77.76 
L 104.002597 77.76 
L 104.002597 455.76 
z
" clip-path="url(#pcee8be95ac)" style="fill: #ee9b00; stroke: #ee9b00; stroke-linejoin: miter"/>
   </g>
   <g id="patch_6">
    <path d="M 77.914286 455.76 
L 77.914286 77.76 
L 106.901299 77.76 
L 106.901299 455.76 
z
" clip-path="url(#pcee8be95ac)" style="fill: #ee9b00; stroke: #ee9b00; stroke-linejoin: miter"/>
   </g>
   <g id="patch_7">
    <path d="M 80.812987 455.76 
L 80.812987 77.76 
L 109.8 77.76 
L 109.8 455.76 
z
" clip-path="url(#pcee8be95ac)" style="fill: #ee9b00; stroke: #ee9b00; stroke-linejoin: miter"/>
   </g>
   <g id="patch_8">
    <path d="M 150.381818 455.76 
L 150.381818 77.76 
L 179.368831 77.76 
L 179.368831 455.76 
z
" clip-path="url(#pcee8be95ac)" style="fill: #ee9b00; stroke: #ee9b00; stroke-linejoin: miter"/>
   </g>
   <g id="patch_9">
    <path d="M 321.405195 455.76 
L 321.405195 77.76 
L 350.392208 77.76 
L 350.392208 455.76 
z
" clip-path="url(#pcee8be95ac)" style="fill: #ee9b00; stroke: #ee9b00; stroke-linejoin: miter"/>
   </g>
   <g id="patch_10">
    <path d="M 324.303896 455.76 
L 324.303896 77.76 
L 353.290909 77.76 
L 353.290909 455.76 
z
" clip-path="url(#pcee8be95ac)" style="fill: #ee9b00; stroke: #ee9b00; stroke-linejoin: miter"/>
   </g>
   <g id="matplotlib.axis_1">
    <g id="xtick_1">
     <g id="line2d_1">
      <defs>
       <path id="ma6cac8b0c3" d="M 0 0 
L 0 3.5 
" style="stroke: #000000; stroke-width: 0.8"/>
      </defs>
      <g>
       <use xlink:href="#ma6cac8b0c3" x="69.218182" y="455.76" style="stroke: #000000; stroke-width: 0.8"/>
      </g>
     </g>
     <g id="text_1">
      <!-- 0 -->
      <g transform="translate(64.764432 473.397812) scale(0.14 -0.14)">
       <defs>
        <path id="DejaVuSans-30" d="M 2034 4250 
Q 1547 4250 1301 3770 
Q 1056 3291 1056 2328 
Q 1056 1369 1301 889 
Q 1547 409 2034 409 
Q 2525 409 2770 889 
Q 3016 1369 3016 2328 
Q 3016 3291 2770 3770 
Q 2525 4250 2034 4250 
z
M 2034 4750 
Q 2819 4750 3233 4129 
Q 3647 3509 3647 2328 
Q 3647 1150 3233 529 
Q 2819 -91 2034 -91 
Q 1250 -91 836 529 
Q 422 1150 422 2328 
Q 422 3509 836 4129 
Q 1250 4750 2034 4750 
z
" transform="scale(0.015625)"/>
       </defs>
       <use xlink:href="#DejaVuSans-30"/>
      </g>
     </g>
    </g>
    <g id="xtick_2">
     <g id="line2d_2">
      <g>
       <use xlink:href="#ma6cac8b0c3" x="127.192208" y="455.76" style="stroke: #000000; stroke-width: 0.8"/>
      </g>
     </g>
     <g id="text_2">
      <!-- 20 -->
      <g transform="translate(118.284708 473.397812) scale(0.14 -0.14)">
       <defs>
        <path id="DejaVuSans-32" d="M 1228 531 
L 3431 531 
L 3431 0 
L 469 0 
L 469 531 
Q 828 903 1448 1529 
Q 2069 2156 2228 2338 
Q 2531 2678 2651 2914 
Q 2772 3150 2772 3378 
Q 2772 3750 2511 3984 
Q 2250 4219 1831 4219 
Q 1534 4219 1204 4116 
Q 875 4013 500 3803 
L 500 4441 
Q 881 4594 1212 4672 
Q 1544 4750 1819 4750 
Q 2544 4750 2975 4387 
Q 3406 4025 3406 3419 
Q 3406 3131 3298 2873 
Q 3191 2616 2906 2266 
Q 2828 2175 2409 1742 
Q 1991 1309 1228 531 
z
" transform="scale(0.015625)"/>
       </defs>
       <use xlink:href="#DejaVuSans-32"/>
       <use xlink:href="#DejaVuSans-30" x="63.623047"/>
      </g>
     </g>
    </g>
    <g id="xtick_3">
     <g id="line2d_3">
      <g>
       <use xlink:href="#ma6cac8b0c3" x="185.166234" y="455.76" style="stroke: #000000; stroke-width: 0.8"/>
      </g>
     </g>
     <g id="text_3">
      <!-- 40 -->
      <g transform="translate(176.258734 473.397812) scale(0.14 -0.14)">
       <defs>
        <path id="DejaVuSans-34" d="M 2419 4116 
L 825 1625 
L 2419 1625 
L 2419 4116 
z
M 2253 4666 
L 3047 4666 
L 3047 1625 
L 3713 1625 
L 3713 1100 
L 3047 1100 
L 3047 0 
L 2419 0 
L 2419 1100 
L 313 1100 
L 313 1709 
L 2253 4666 
z
" transform="scale(0.015625)"/>
       </defs>
       <use xlink:href="#DejaVuSans-34"/>
       <use xlink:href="#DejaVuSans-30" x="63.623047"/>
      </g>
     </g>
    </g>
    <g id="xtick_4">
     <g id="line2d_4">
      <g>
       <use xlink:href="#ma6cac8b0c3" x="243.14026" y="455.76" style="stroke: #000000; stroke-width: 0.8"/>
      </g>
     </g>
     <g id="text_4">
      <!-- 60 -->
      <g transform="translate(234.23276 473.397812) scale(0.14 -0.14)">
       <defs>
        <path id="DejaVuSans-36" d="M 2113 2584 
Q 1688 2584 1439 2293 
Q 1191 2003 1191 1497 
Q 1191 994 1439 701 
Q 1688 409 2113 409 
Q 2538 409 2786 701 
Q 3034 994 3034 1497 
Q 3034 2003 2786 2293 
Q 2538 2584 2113 2584 
z
M 3366 4563 
L 3366 3988 
Q 3128 4100 2886 4159 
Q 2644 4219 2406 4219 
Q 1781 4219 1451 3797 
Q 1122 3375 1075 2522 
Q 1259 2794 1537 2939 
Q 1816 3084 2150 3084 
Q 2853 3084 3261 2657 
Q 3669 2231 3669 1497 
Q 3669 778 3244 343 
Q 2819 -91 2113 -91 
Q 1303 -91 875 529 
Q 447 1150 447 2328 
Q 447 3434 972 4092 
Q 1497 4750 2381 4750 
Q 2619 4750 2861 4703 
Q 3103 4656 3366 4563 
z
" transform="scale(0.015625)"/>
       </defs>
       <use xlink:href="#DejaVuSans-36"/>
       <use xlink:href="#DejaVuSans-30" x="63.623047"/>
      </g>
     </g>
    </g>
    <g id="xtick_5">
     <g id="line2d_5">
      <g>
       <use xlink:href="#ma6cac8b0c3" x="301.114286" y="455.76" style="stroke: #000000; stroke-width: 0.8"/>
      </g>
     </g>
     <g id="text_5">
      <!-- 80 -->
      <g transform="translate(292.206786 473.397812) scale(0.14 -0.14)">
       <defs>
        <path id="DejaVuSans-38" d="M 2034 2216 
Q 1584 2216 1326 1975 
Q 1069 1734 1069 1313 
Q 1069 891 1326 650 
Q 1584 409 2034 409 
Q 2484 409 2743 651 
Q 3003 894 3003 1313 
Q 3003 1734 2745 1975 
Q 2488 2216 2034 2216 
z
M 1403 2484 
Q 997 2584 770 2862 
Q 544 3141 544 3541 
Q 544 4100 942 4425 
Q 1341 4750 2034 4750 
Q 2731 4750 3128 4425 
Q 3525 4100 3525 3541 
Q 3525 3141 3298 2862 
Q 3072 2584 2669 2484 
Q 3125 2378 3379 2068 
Q 3634 1759 3634 1313 
Q 3634 634 3220 271 
Q 2806 -91 2034 -91 
Q 1263 -91 848 271 
Q 434 634 434 1313 
Q 434 1759 690 2068 
Q 947 2378 1403 2484 
z
M 1172 3481 
Q 1172 3119 1398 2916 
Q 1625 2713 2034 2713 
Q 2441 2713 2670 2916 
Q 2900 3119 2900 3481 
Q 2900 3844 2670 4047 
Q 2441 4250 2034 4250 
Q 1625 4250 1398 4047 
Q 1172 3844 1172 3481 
z
" transform="scale(0.015625)"/>
       </defs>
       <use xlink:href="#DejaVuSans-38"/>
       <use xlink:href="#DejaVuSans-30" x="63.623047"/>
      </g>
     </g>
    </g>
    <g id="xtick_6">
     <g id="line2d_6">
      <g>
       <use xlink:href="#ma6cac8b0c3" x="359.088312" y="455.76" style="stroke: #000000; stroke-width: 0.8"/>
      </g>
     </g>
     <g id="text_6">
      <!-- 100 -->
      <g transform="translate(345.727062 473.397812) scale(0.14 -0.14)">
       <defs>
        <path id="DejaVuSans-31" d="M 794 531 
L 1825 531 
L 1825 4091 
L 703 3866 
L 703 4441 
L 1819 4666 
L 2450 4666 
L 2450 531 
L 3481 531 
L 3481 0 
L 794 0 
L 794 531 
z
" transform="scale(0.015625)"/>
       </defs>
       <use xlink:href="#DejaVuSans-31"/>
       <use xlink:href="#DejaVuSans-30" x="63.623047"/>
       <use xlink:href="#DejaVuSans-30" x="127.246094"/>
      </g>
     </g>
    </g>
    <g id="text_7">
     <!-- Year in realization -->
     <g transform="translate(150.27875 492.466875) scale(0.16 -0.16)">
      <defs>
       <path id="DejaVuSans-59" d="M -13 4666 
L 666 4666 
L 1959 2747 
L 3244 4666 
L 3922 4666 
L 2272 2222 
L 2272 0 
L 1638 0 
L 1638 2222 
L -13 4666 
z
" transform="scale(0.015625)"/>
       <path id="DejaVuSans-65" d="M 3597 1894 
L 3597 1613 
L 953 1613 
Q 991 1019 1311 708 
Q 1631 397 2203 397 
Q 2534 397 2845 478 
Q 3156 559 3463 722 
L 3463 178 
Q 3153 47 2828 -22 
Q 2503 -91 2169 -91 
Q 1331 -91 842 396 
Q 353 884 353 1716 
Q 353 2575 817 3079 
Q 1281 3584 2069 3584 
Q 2775 3584 3186 3129 
Q 3597 2675 3597 1894 
z
M 3022 2063 
Q 3016 2534 2758 2815 
Q 2500 3097 2075 3097 
Q 1594 3097 1305 2825 
Q 1016 2553 972 2059 
L 3022 2063 
z
" transform="scale(0.015625)"/>
       <path id="DejaVuSans-61" d="M 2194 1759 
Q 1497 1759 1228 1600 
Q 959 1441 959 1056 
Q 959 750 1161 570 
Q 1363 391 1709 391 
Q 2188 391 2477 730 
Q 2766 1069 2766 1631 
L 2766 1759 
L 2194 1759 
z
M 3341 1997 
L 3341 0 
L 2766 0 
L 2766 531 
Q 2569 213 2275 61 
Q 1981 -91 1556 -91 
Q 1019 -91 701 211 
Q 384 513 384 1019 
Q 384 1609 779 1909 
Q 1175 2209 1959 2209 
L 2766 2209 
L 2766 2266 
Q 2766 2663 2505 2880 
Q 2244 3097 1772 3097 
Q 1472 3097 1187 3025 
Q 903 2953 641 2809 
L 641 3341 
Q 956 3463 1253 3523 
Q 1550 3584 1831 3584 
Q 2591 3584 2966 3190 
Q 3341 2797 3341 1997 
z
" transform="scale(0.015625)"/>
       <path id="DejaVuSans-72" d="M 2631 2963 
Q 2534 3019 2420 3045 
Q 2306 3072 2169 3072 
Q 1681 3072 1420 2755 
Q 1159 2438 1159 1844 
L 1159 0 
L 581 0 
L 581 3500 
L 1159 3500 
L 1159 2956 
Q 1341 3275 1631 3429 
Q 1922 3584 2338 3584 
Q 2397 3584 2469 3576 
Q 2541 3569 2628 3553 
L 2631 2963 
z
" transform="scale(0.015625)"/>
       <path id="DejaVuSans-20" transform="scale(0.015625)"/>
       <path id="DejaVuSans-69" d="M 603 3500 
L 1178 3500 
L 1178 0 
L 603 0 
L 603 3500 
z
M 603 4863 
L 1178 4863 
L 1178 4134 
L 603 4134 
L 603 4863 
z
" transform="scale(0.015625)"/>
       <path id="DejaVuSans-6e" d="M 3513 2113 
L 3513 0 
L 2938 0 
L 2938 2094 
Q 2938 2591 2744 2837 
Q 2550 3084 2163 3084 
Q 1697 3084 1428 2787 
Q 1159 2491 1159 1978 
L 1159 0 
L 581 0 
L 581 3500 
L 1159 3500 
L 1159 2956 
Q 1366 3272 1645 3428 
Q 1925 3584 2291 3584 
Q 2894 3584 3203 3211 
Q 3513 2838 3513 2113 
z
" transform="scale(0.015625)"/>
       <path id="DejaVuSans-6c" d="M 603 4863 
L 1178 4863 
L 1178 0 
L 603 0 
L 603 4863 
z
" transform="scale(0.015625)"/>
       <path id="DejaVuSans-7a" d="M 353 3500 
L 3084 3500 
L 3084 2975 
L 922 459 
L 3084 459 
L 3084 0 
L 275 0 
L 275 525 
L 2438 3041 
L 353 3041 
L 353 3500 
z
" transform="scale(0.015625)"/>
       <path id="DejaVuSans-74" d="M 1172 4494 
L 1172 3500 
L 2356 3500 
L 2356 3053 
L 1172 3053 
L 1172 1153 
Q 1172 725 1289 603 
Q 1406 481 1766 481 
L 2356 481 
L 2356 0 
L 1766 0 
Q 1100 0 847 248 
Q 594 497 594 1153 
L 594 3053 
L 172 3053 
L 172 3500 
L 594 3500 
L 594 4494 
L 1172 4494 
z
" transform="scale(0.015625)"/>
       <path id="DejaVuSans-6f" d="M 1959 3097 
Q 1497 3097 1228 2736 
Q 959 2375 959 1747 
Q 959 1119 1226 758 
Q 1494 397 1959 397 
Q 2419 397 2687 759 
Q 2956 1122 2956 1747 
Q 2956 2369 2687 2733 
Q 2419 3097 1959 3097 
z
M 1959 3584 
Q 2709 3584 3137 3096 
Q 3566 2609 3566 1747 
Q 3566 888 3137 398 
Q 2709 -91 1959 -91 
Q 1206 -91 779 398 
Q 353 888 353 1747 
Q 353 2609 779 3096 
Q 1206 3584 1959 3584 
z
" transform="scale(0.015625)"/>
      </defs>
      <use xlink:href="#DejaVuSans-59"/>
      <use xlink:href="#DejaVuSans-65" x="47.833984"/>
      <use xlink:href="#DejaVuSans-61" x="109.357422"/>
      <use xlink:href="#DejaVuSans-72" x="170.636719"/>
      <use xlink:href="#DejaVuSans-20" x="211.75"/>
      <use xlink:href="#DejaVuSans-69" x="243.537109"/>
      <use xlink:href="#DejaVuSans-6e" x="271.320312"/>
      <use xlink:href="#DejaVuSans-20" x="334.699219"/>
      <use xlink:href="#DejaVuSans-72" x="366.486328"/>
      <use xlink:href="#DejaVuSans-65" x="405.349609"/>
      <use xlink:href="#DejaVuSans-61" x="466.873047"/>
      <use xlink:href="#DejaVuSans-6c" x="528.152344"/>
      <use xlink:href="#DejaVuSans-69" x="555.935547"/>
      <use xlink:href="#DejaVuSans-7a" x="583.71875"/>
      <use xlink:href="#DejaVuSans-61" x="636.208984"/>
      <use xlink:href="#DejaVuSans-74" x="697.488281"/>
      <use xlink:href="#DejaVuSans-69" x="736.697266"/>
      <use xlink:href="#DejaVuSans-6f" x="764.480469"/>
      <use xlink:href="#DejaVuSans-6e" x="825.662109"/>
     </g>
    </g>
   </g>
   <g id="matplotlib.axis_2">
    <g id="ytick_1">
     <g id="line2d_7">
      <defs>
       <path id="m031e4e61a2" d="M 0 0 
L -3.5 0 
" style="stroke: #000000; stroke-width: 0.8"/>
      </defs>
      <g>
       <use xlink:href="#m031e4e61a2" x="54" y="405.697128" style="stroke: #000000; stroke-width: 0.8"/>
      </g>
     </g>
     <g id="text_8">
      <!-- 4000 -->
      <g transform="translate(11.37 411.016034) scale(0.14 -0.14)">
       <use xlink:href="#DejaVuSans-34"/>
       <use xlink:href="#DejaVuSans-30" x="63.623047"/>
       <use xlink:href="#DejaVuSans-30" x="127.246094"/>
       <use xlink:href="#DejaVuSans-30" x="190.869141"/>
      </g>
     </g>
    </g>
    <g id="ytick_2">
     <g id="line2d_8">
      <g>
       <use xlink:href="#m031e4e61a2" x="54" y="340.487421" style="stroke: #000000; stroke-width: 0.8"/>
      </g>
     </g>
     <g id="text_9">
      <!-- 6000 -->
      <g transform="translate(11.37 345.806327) scale(0.14 -0.14)">
       <use xlink:href="#DejaVuSans-36"/>
       <use xlink:href="#DejaVuSans-30" x="63.623047"/>
       <use xlink:href="#DejaVuSans-30" x="127.246094"/>
       <use xlink:href="#DejaVuSans-30" x="190.869141"/>
      </g>
     </g>
    </g>
    <g id="ytick_3">
     <g id="line2d_9">
      <g>
       <use xlink:href="#m031e4e61a2" x="54" y="275.277713" style="stroke: #000000; stroke-width: 0.8"/>
      </g>
     </g>
     <g id="text_10">
      <!-- 8000 -->
      <g transform="translate(11.37 280.59662) scale(0.14 -0.14)">
       <use xlink:href="#DejaVuSans-38"/>
       <use xlink:href="#DejaVuSans-30" x="63.623047"/>
       <use xlink:href="#DejaVuSans-30" x="127.246094"/>
       <use xlink:href="#DejaVuSans-30" x="190.869141"/>
      </g>
     </g>
    </g>
    <g id="ytick_4">
     <g id="line2d_10">
      <g>
       <use xlink:href="#m031e4e61a2" x="54" y="210.068006" style="stroke: #000000; stroke-width: 0.8"/>
      </g>
     </g>
     <g id="text_11">
      <!-- 10000 -->
      <g transform="translate(2.4625 215.386912) scale(0.14 -0.14)">
       <use xlink:href="#DejaVuSans-31"/>
       <use xlink:href="#DejaVuSans-30" x="63.623047"/>
       <use xlink:href="#DejaVuSans-30" x="127.246094"/>
       <use xlink:href="#DejaVuSans-30" x="190.869141"/>
       <use xlink:href="#DejaVuSans-30" x="254.492188"/>
      </g>
     </g>
    </g>
    <g id="ytick_5">
     <g id="line2d_11">
      <g>
       <use xlink:href="#m031e4e61a2" x="54" y="144.858298" style="stroke: #000000; stroke-width: 0.8"/>
      </g>
     </g>
     <g id="text_12">
      <!-- 12000 -->
      <g transform="translate(2.4625 150.177205) scale(0.14 -0.14)">
       <use xlink:href="#DejaVuSans-31"/>
       <use xlink:href="#DejaVuSans-32" x="63.623047"/>
       <use xlink:href="#DejaVuSans-30" x="127.246094"/>
       <use xlink:href="#DejaVuSans-30" x="190.869141"/>
       <use xlink:href="#DejaVuSans-30" x="254.492188"/>
      </g>
     </g>
    </g>
    <g id="ytick_6">
     <g id="line2d_12">
      <g>
       <use xlink:href="#m031e4e61a2" x="54" y="79.648591" style="stroke: #000000; stroke-width: 0.8"/>
      </g>
     </g>
     <g id="text_13">
      <!-- 14000 -->
      <g transform="translate(2.4625 84.967497) scale(0.14 -0.14)">
       <use xlink:href="#DejaVuSans-31"/>
       <use xlink:href="#DejaVuSans-34" x="63.623047"/>
       <use xlink:href="#DejaVuSans-30" x="127.246094"/>
       <use xlink:href="#DejaVuSans-30" x="190.869141"/>
       <use xlink:href="#DejaVuSans-30" x="254.492188"/>
      </g>
     </g>
    </g>
    <g id="text_14">
     <!-- Annual flow (Million $m^3$) -->
     <g transform="translate(-4.865 362.68) rotate(-90) scale(0.16 -0.16)">
      <defs>
       <path id="DejaVuSans-41" d="M 2188 4044 
L 1331 1722 
L 3047 1722 
L 2188 4044 
z
M 1831 4666 
L 2547 4666 
L 4325 0 
L 3669 0 
L 3244 1197 
L 1141 1197 
L 716 0 
L 50 0 
L 1831 4666 
z
" transform="scale(0.015625)"/>
       <path id="DejaVuSans-75" d="M 544 1381 
L 544 3500 
L 1119 3500 
L 1119 1403 
Q 1119 906 1312 657 
Q 1506 409 1894 409 
Q 2359 409 2629 706 
Q 2900 1003 2900 1516 
L 2900 3500 
L 3475 3500 
L 3475 0 
L 2900 0 
L 2900 538 
Q 2691 219 2414 64 
Q 2138 -91 1772 -91 
Q 1169 -91 856 284 
Q 544 659 544 1381 
z
M 1991 3584 
L 1991 3584 
z
" transform="scale(0.015625)"/>
       <path id="DejaVuSans-66" d="M 2375 4863 
L 2375 4384 
L 1825 4384 
Q 1516 4384 1395 4259 
Q 1275 4134 1275 3809 
L 1275 3500 
L 2222 3500 
L 2222 3053 
L 1275 3053 
L 1275 0 
L 697 0 
L 697 3053 
L 147 3053 
L 147 3500 
L 697 3500 
L 697 3744 
Q 697 4328 969 4595 
Q 1241 4863 1831 4863 
L 2375 4863 
z
" transform="scale(0.015625)"/>
       <path id="DejaVuSans-77" d="M 269 3500 
L 844 3500 
L 1563 769 
L 2278 3500 
L 2956 3500 
L 3675 769 
L 4391 3500 
L 4966 3500 
L 4050 0 
L 3372 0 
L 2619 2869 
L 1863 0 
L 1184 0 
L 269 3500 
z
" transform="scale(0.015625)"/>
       <path id="DejaVuSans-28" d="M 1984 4856 
Q 1566 4138 1362 3434 
Q 1159 2731 1159 2009 
Q 1159 1288 1364 580 
Q 1569 -128 1984 -844 
L 1484 -844 
Q 1016 -109 783 600 
Q 550 1309 550 2009 
Q 550 2706 781 3412 
Q 1013 4119 1484 4856 
L 1984 4856 
z
" transform="scale(0.015625)"/>
       <path id="DejaVuSans-4d" d="M 628 4666 
L 1569 4666 
L 2759 1491 
L 3956 4666 
L 4897 4666 
L 4897 0 
L 4281 0 
L 4281 4097 
L 3078 897 
L 2444 897 
L 1241 4097 
L 1241 0 
L 628 0 
L 628 4666 
z
" transform="scale(0.015625)"/>
       <path id="DejaVuSans-Oblique-6d" d="M 5747 2113 
L 5338 0 
L 4763 0 
L 5166 2094 
Q 5191 2228 5203 2325 
Q 5216 2422 5216 2491 
Q 5216 2772 5059 2928 
Q 4903 3084 4622 3084 
Q 4203 3084 3875 2770 
Q 3547 2456 3450 1953 
L 3066 0 
L 2491 0 
L 2900 2094 
Q 2925 2209 2937 2307 
Q 2950 2406 2950 2484 
Q 2950 2769 2794 2926 
Q 2638 3084 2363 3084 
Q 1938 3084 1609 2770 
Q 1281 2456 1184 1953 
L 800 0 
L 225 0 
L 909 3500 
L 1484 3500 
L 1375 2956 
Q 1609 3263 1923 3423 
Q 2238 3584 2597 3584 
Q 2978 3584 3223 3384 
Q 3469 3184 3519 2828 
Q 3781 3197 4126 3390 
Q 4472 3584 4856 3584 
Q 5306 3584 5551 3325 
Q 5797 3066 5797 2591 
Q 5797 2488 5784 2364 
Q 5772 2241 5747 2113 
z
" transform="scale(0.015625)"/>
       <path id="DejaVuSans-33" d="M 2597 2516 
Q 3050 2419 3304 2112 
Q 3559 1806 3559 1356 
Q 3559 666 3084 287 
Q 2609 -91 1734 -91 
Q 1441 -91 1130 -33 
Q 819 25 488 141 
L 488 750 
Q 750 597 1062 519 
Q 1375 441 1716 441 
Q 2309 441 2620 675 
Q 2931 909 2931 1356 
Q 2931 1769 2642 2001 
Q 2353 2234 1838 2234 
L 1294 2234 
L 1294 2753 
L 1863 2753 
Q 2328 2753 2575 2939 
Q 2822 3125 2822 3475 
Q 2822 3834 2567 4026 
Q 2313 4219 1838 4219 
Q 1578 4219 1281 4162 
Q 984 4106 628 3988 
L 628 4550 
Q 988 4650 1302 4700 
Q 1616 4750 1894 4750 
Q 2613 4750 3031 4423 
Q 3450 4097 3450 3541 
Q 3450 3153 3228 2886 
Q 3006 2619 2597 2516 
z
" transform="scale(0.015625)"/>
       <path id="DejaVuSans-29" d="M 513 4856 
L 1013 4856 
Q 1481 4119 1714 3412 
Q 1947 2706 1947 2009 
Q 1947 1309 1714 600 
Q 1481 -109 1013 -844 
L 513 -844 
Q 928 -128 1133 580 
Q 1338 1288 1338 2009 
Q 1338 2731 1133 3434 
Q 928 4138 513 4856 
z
" transform="scale(0.015625)"/>
      </defs>
      <use xlink:href="#DejaVuSans-41" transform="translate(0 0.765625)"/>
      <use xlink:href="#DejaVuSans-6e" transform="translate(68.408203 0.765625)"/>
      <use xlink:href="#DejaVuSans-6e" transform="translate(131.787109 0.765625)"/>
      <use xlink:href="#DejaVuSans-75" transform="translate(195.166016 0.765625)"/>
      <use xlink:href="#DejaVuSans-61" transform="translate(258.544922 0.765625)"/>
      <use xlink:href="#DejaVuSans-6c" transform="translate(319.824219 0.765625)"/>
      <use xlink:href="#DejaVuSans-20" transform="translate(347.607422 0.765625)"/>
      <use xlink:href="#DejaVuSans-66" transform="translate(379.394531 0.765625)"/>
      <use xlink:href="#DejaVuSans-6c" transform="translate(414.599609 0.765625)"/>
      <use xlink:href="#DejaVuSans-6f" transform="translate(442.382812 0.765625)"/>
      <use xlink:href="#DejaVuSans-77" transform="translate(503.564453 0.765625)"/>
      <use xlink:href="#DejaVuSans-20" transform="translate(585.351562 0.765625)"/>
      <use xlink:href="#DejaVuSans-28" transform="translate(617.138672 0.765625)"/>
      <use xlink:href="#DejaVuSans-4d" transform="translate(656.152344 0.765625)"/>
      <use xlink:href="#DejaVuSans-69" transform="translate(742.431641 0.765625)"/>
      <use xlink:href="#DejaVuSans-6c" transform="translate(770.214844 0.765625)"/>
      <use xlink:href="#DejaVuSans-6c" transform="translate(797.998047 0.765625)"/>
      <use xlink:href="#DejaVuSans-69" transform="translate(825.78125 0.765625)"/>
      <use xlink:href="#DejaVuSans-6f" transform="translate(853.564453 0.765625)"/>
      <use xlink:href="#DejaVuSans-6e" transform="translate(914.746094 0.765625)"/>
      <use xlink:href="#DejaVuSans-20" transform="translate(978.125 0.765625)"/>
      <use xlink:href="#DejaVuSans-Oblique-6d" transform="translate(1009.912109 0.765625)"/>
      <use xlink:href="#DejaVuSans-33" transform="translate(1111.974115 39.046875) scale(0.7)"/>
      <use xlink:href="#DejaVuSans-29" transform="translate(1159.244622 0.765625)"/>
     </g>
    </g>
   </g>
   <g id="line2d_13">
    <path d="M 69.218182 293.319392 
L 72.116883 357.311457 
L 75.015584 246.433274 
L 77.914286 374.523016 
L 80.812987 354.705484 
L 83.711688 385.265309 
L 86.61039 380.458836 
L 89.509091 348.900289 
L 92.407792 370.187972 
L 95.306494 409.71658 
L 98.205195 377.366714 
L 101.103896 425.583347 
L 104.002597 173.192754 
L 106.901299 415.629115 
L 109.8 173.825496 
L 112.698701 254.40221 
L 115.597403 308.79826 
L 118.496104 325.59389 
L 121.394805 261.971263 
L 124.293506 322.005565 
L 127.192208 343.75796 
L 130.090909 376.492064 
L 132.98961 281.285795 
L 135.888312 330.23897 
L 138.787013 428.15067 
L 141.685714 319.93734 
L 144.584416 307.327185 
L 147.483117 293.184019 
L 150.381818 395.416084 
L 153.280519 310.011944 
L 156.179221 336.335339 
L 159.077922 361.217138 
L 161.976623 311.315151 
L 164.875325 234.418137 
L 167.774026 437.987226 
L 170.672727 340.589747 
L 173.571429 387.392493 
L 176.47013 359.62726 
L 179.368831 372.157624 
L 182.267532 292.9438 
L 185.166234 350.385562 
L 188.064935 247.630268 
L 190.963636 160.686642 
L 193.862338 385.68144 
L 196.761039 226.565149 
L 199.65974 153.371321 
L 202.558442 154.804954 
L 205.457143 391.180699 
L 208.355844 245.935221 
L 211.254545 94.941818 
L 214.153247 233.422151 
L 217.051948 282.040355 
L 219.950649 361.735582 
L 222.849351 319.860444 
L 225.748052 312.927028 
L 228.646753 265.541933 
L 231.545455 438.578182 
L 234.444156 368.020571 
L 237.342857 203.023598 
L 240.241558 245.209577 
L 243.14026 358.077037 
L 246.038961 397.046984 
L 248.937662 152.584908 
L 251.836364 158.046082 
L 254.735065 257.76761 
L 257.633766 287.540258 
L 260.532468 236.533577 
L 263.431169 392.889701 
L 266.32987 364.844716 
L 269.228571 365.428071 
L 272.127273 231.315961 
L 275.025974 274.439812 
L 277.924675 399.947067 
L 280.823377 349.091886 
L 283.722078 368.113594 
L 286.620779 285.741772 
L 289.519481 365.252039 
L 292.418182 280.249752 
L 295.316883 289.912527 
L 298.215584 240.928827 
L 301.114286 370.203938 
L 304.012987 360.352462 
L 306.911688 321.276622 
L 309.81039 360.070819 
L 312.709091 303.828906 
L 315.607792 312.962862 
L 318.506494 154.436482 
L 321.405195 292.648966 
L 324.303896 398.603361 
L 327.202597 307.952486 
L 330.101299 278.616318 
L 333 347.681699 
L 335.898701 380.016765 
L 338.797403 361.612034 
L 341.696104 394.272178 
L 344.594805 399.296429 
L 347.493506 398.954499 
L 350.392208 268.349556 
L 353.290909 328.745453 
L 356.18961 313.255123 
L 359.088312 287.381761 
L 361.987013 102.482759 
L 364.885714 158.717835 
L 367.784416 342.772712 
L 370.683117 127.806388 
" clip-path="url(#pcee8be95ac)" style="fill: none; stroke: #001219; stroke-width: 3; stroke-linecap: square"/>
   </g>
   <g id="LineCollection_1">
    <path d="M 69.218182 310.588363 
L 373.581818 310.588363 
" clip-path="url(#pcee8be95ac)" style="fill: none; stroke: #005f73; stroke-width: 2"/>
   </g>
   <g id="LineCollection_2">
    <path d="M 69.218182 344.259579 
L 373.581818 344.259579 
" clip-path="url(#pcee8be95ac)" style="fill: none; stroke-dasharray: 7.4,3.2; stroke-dashoffset: 0; stroke: #005f73; stroke-width: 2"/>
   </g>
   <g id="line2d_14">
    <path d="M 83.711688 354.380675 
L 86.61039 366.404693 
L 89.509091 349.666665 
L 92.407792 365.048005 
L 95.306494 346.802981 
L 98.205195 337.684382 
L 101.103896 330.733027 
L 104.002597 325.745136 
L 106.901299 317.842372 
L 109.8 313.462236 
L 112.698701 307.466203 
L 115.597403 307.386647 
L 118.496104 294.268736 
L 121.394805 308.545424 
L 124.293506 309.683985 
L 127.192208 322.966877 
L 130.090909 327.778049 
L 132.98961 326.35876 
L 135.888312 332.705946 
L 138.787013 337.073367 
L 141.685714 338.376256 
L 144.584416 339.963461 
L 147.483117 334.038181 
L 150.381818 329.777378 
L 153.280519 339.572855 
L 156.179221 331.612706 
L 159.077922 337.745027 
L 161.976623 342.499466 
L 164.875325 349.679055 
L 167.774026 340.363196 
L 170.672727 344.033525 
L 173.571429 335.969366 
L 176.47013 317.73934 
L 179.368831 324.499957 
L 182.267532 323.786237 
L 185.166234 297.912003 
L 188.064935 281.022363 
L 190.963636 281.36667 
L 193.862338 271.031257 
L 196.761039 245.829662 
L 199.65974 240.41856 
L 202.558442 234.205379 
L 205.457143 244.578613 
L 208.355844 259.048973 
L 211.254545 252.435079 
L 214.153247 255.978248 
L 217.051948 281.90628 
L 219.950649 301.28954 
L 222.849351 284.184381 
L 225.748052 284.118193 
L 228.646753 308.039722 
L 231.545455 322.914709 
L 234.444156 311.145987 
L 237.342857 292.628712 
L 240.241558 286.983834 
L 243.14026 284.676062 
L 246.038961 282.038982 
L 248.937662 277.88545 
L 251.836364 277.596571 
L 254.735065 292.3607 
L 257.633766 291.097588 
L 260.532468 283.494463 
L 263.431169 283.75791 
L 266.32987 301.622109 
L 269.228571 320.719424 
L 272.127273 323.262277 
L 275.025974 330.327096 
L 277.924675 334.301302 
L 280.823377 324.939796 
L 283.722078 313.674819 
L 286.620779 314.10879 
L 289.519481 325.839364 
L 292.418182 330.097232 
L 295.316883 326.472224 
L 298.215584 322.357492 
L 301.114286 317.343844 
L 304.012987 305.406881 
L 306.911688 298.80668 
L 309.81039 309.565956 
L 312.709091 311.20598 
L 315.607792 314.632098 
L 318.506494 312.584513 
L 321.405195 314.372237 
L 324.303896 318.039305 
L 327.202597 321.148504 
L 330.101299 329.827264 
L 333 337.644604 
L 335.898701 348.000231 
L 338.797403 351.28191 
L 341.696104 343.522933 
L 344.594805 341.653044 
L 347.493506 325.640801 
L 350.392208 308.462281 
L 353.290909 305.076267 
L 356.18961 283.821489 
" clip-path="url(#pcee8be95ac)" style="fill: none; stroke: #808080; stroke-width: 3; stroke-linecap: square"/>
   </g>
   <g id="line2d_15">
    <path d="M 83.711688 354.380675 
L 86.61039 366.404693 
L 89.509091 349.666665 
L 92.407792 365.048005 
L 95.306494 346.802981 
L 98.205195 337.684382 
L 101.103896 330.733027 
L 104.002597 325.745136 
L 106.901299 317.842372 
L 109.8 313.462236 
L 112.698701 307.466203 
L 115.597403 307.386647 
L 118.496104 294.268736 
L 121.394805 308.545424 
L 124.293506 309.683985 
L 127.192208 322.966877 
L 130.090909 327.778049 
L 132.98961 326.35876 
L 135.888312 332.705946 
L 138.787013 337.073367 
L 141.685714 338.376256 
L 144.584416 339.963461 
L 147.483117 334.038181 
L 150.381818 329.777378 
L 153.280519 339.572855 
L 156.179221 331.612706 
L 159.077922 337.745027 
L 161.976623 342.499466 
L 164.875325 349.679055 
L 167.774026 340.363196 
L 170.672727 344.033525 
L 173.571429 335.969366 
L 176.47013 317.73934 
L 179.368831 324.499957 
L 182.267532 323.786237 
L 185.166234 297.912003 
L 188.064935 281.022363 
L 190.963636 281.36667 
L 193.862338 271.031257 
L 196.761039 245.829662 
L 199.65974 240.41856 
L 202.558442 234.205379 
L 205.457143 244.578613 
L 208.355844 259.048973 
L 211.254545 252.435079 
L 214.153247 255.978248 
L 217.051948 281.90628 
L 219.950649 301.28954 
L 222.849351 284.184381 
L 225.748052 284.118193 
L 228.646753 308.039722 
L 231.545455 322.914709 
L 234.444156 311.145987 
L 237.342857 292.628712 
L 240.241558 286.983834 
L 243.14026 284.676062 
L 246.038961 282.038982 
L 248.937662 277.88545 
L 251.836364 277.596571 
L 254.735065 292.3607 
L 257.633766 291.097588 
L 260.532468 283.494463 
L 263.431169 283.75791 
L 266.32987 301.622109 
L 269.228571 320.719424 
L 272.127273 323.262277 
L 275.025974 330.327096 
L 277.924675 334.301302 
L 280.823377 324.939796 
L 283.722078 313.674819 
L 286.620779 314.10879 
L 289.519481 325.839364 
L 292.418182 330.097232 
L 295.316883 326.472224 
L 298.215584 322.357492 
L 301.114286 317.343844 
L 304.012987 305.406881 
L 306.911688 298.80668 
L 309.81039 309.565956 
L 312.709091 311.20598 
L 315.607792 314.632098 
L 318.506494 312.584513 
L 321.405195 314.372237 
L 324.303896 318.039305 
L 327.202597 321.148504 
L 330.101299 329.827264 
L 333 337.644604 
L 335.898701 348.000231 
L 338.797403 351.28191 
L 341.696104 343.522933 
L 344.594805 341.653044 
L 347.493506 325.640801 
L 350.392208 308.462281 
L 353.290909 305.076267 
L 356.18961 283.821489 
" clip-path="url(#pcee8be95ac)" style="fill: none; stroke: #808080; stroke-width: 3; stroke-linecap: square"/>
   </g>
   <g id="line2d_16">
    <path d="M 83.711688 354.380675 
L 86.61039 366.404693 
L 89.509091 349.666665 
L 92.407792 365.048005 
L 95.306494 346.802981 
L 98.205195 337.684382 
L 101.103896 330.733027 
L 104.002597 325.745136 
L 106.901299 317.842372 
L 109.8 313.462236 
L 112.698701 307.466203 
L 115.597403 307.386647 
L 118.496104 294.268736 
L 121.394805 308.545424 
L 124.293506 309.683985 
L 127.192208 322.966877 
L 130.090909 327.778049 
L 132.98961 326.35876 
L 135.888312 332.705946 
L 138.787013 337.073367 
L 141.685714 338.376256 
L 144.584416 339.963461 
L 147.483117 334.038181 
L 150.381818 329.777378 
L 153.280519 339.572855 
L 156.179221 331.612706 
L 159.077922 337.745027 
L 161.976623 342.499466 
L 164.875325 349.679055 
L 167.774026 340.363196 
L 170.672727 344.033525 
L 173.571429 335.969366 
L 176.47013 317.73934 
L 179.368831 324.499957 
L 182.267532 323.786237 
L 185.166234 297.912003 
L 188.064935 281.022363 
L 190.963636 281.36667 
L 193.862338 271.031257 
L 196.761039 245.829662 
L 199.65974 240.41856 
L 202.558442 234.205379 
L 205.457143 244.578613 
L 208.355844 259.048973 
L 211.254545 252.435079 
L 214.153247 255.978248 
L 217.051948 281.90628 
L 219.950649 301.28954 
L 222.849351 284.184381 
L 225.748052 284.118193 
L 228.646753 308.039722 
L 231.545455 322.914709 
L 234.444156 311.145987 
L 237.342857 292.628712 
L 240.241558 286.983834 
L 243.14026 284.676062 
L 246.038961 282.038982 
L 248.937662 277.88545 
L 251.836364 277.596571 
L 254.735065 292.3607 
L 257.633766 291.097588 
L 260.532468 283.494463 
L 263.431169 283.75791 
L 266.32987 301.622109 
L 269.228571 320.719424 
L 272.127273 323.262277 
L 275.025974 330.327096 
L 277.924675 334.301302 
L 280.823377 324.939796 
L 283.722078 313.674819 
L 286.620779 314.10879 
L 289.519481 325.839364 
L 292.418182 330.097232 
L 295.316883 326.472224 
L 298.215584 322.357492 
L 301.114286 317.343844 
L 304.012987 305.406881 
L 306.911688 298.80668 
L 309.81039 309.565956 
L 312.709091 311.20598 
L 315.607792 314.632098 
L 318.506494 312.584513 
L 321.405195 314.372237 
L 324.303896 318.039305 
L 327.202597 321.148504 
L 330.101299 329.827264 
L 333 337.644604 
L 335.898701 348.000231 
L 338.797403 351.28191 
L 341.696104 343.522933 
L 344.594805 341.653044 
L 347.493506 325.640801 
L 350.392208 308.462281 
L 353.290909 305.076267 
L 356.18961 283.821489 
" clip-path="url(#pcee8be95ac)" style="fill: none; stroke: #808080; stroke-width: 3; stroke-linecap: square"/>
   </g>
   <g id="line2d_17">
    <path d="M 83.711688 354.380675 
L 86.61039 366.404693 
L 89.509091 349.666665 
L 92.407792 365.048005 
L 95.306494 346.802981 
L 98.205195 337.684382 
L 101.103896 330.733027 
L 104.002597 325.745136 
L 106.901299 317.842372 
L 109.8 313.462236 
L 112.698701 307.466203 
L 115.597403 307.386647 
L 118.496104 294.268736 
L 121.394805 308.545424 
L 124.293506 309.683985 
L 127.192208 322.966877 
L 130.090909 327.778049 
L 132.98961 326.35876 
L 135.888312 332.705946 
L 138.787013 337.073367 
L 141.685714 338.376256 
L 144.584416 339.963461 
L 147.483117 334.038181 
L 150.381818 329.777378 
L 153.280519 339.572855 
L 156.179221 331.612706 
L 159.077922 337.745027 
L 161.976623 342.499466 
L 164.875325 349.679055 
L 167.774026 340.363196 
L 170.672727 344.033525 
L 173.571429 335.969366 
L 176.47013 317.73934 
L 179.368831 324.499957 
L 182.267532 323.786237 
L 185.166234 297.912003 
L 188.064935 281.022363 
L 190.963636 281.36667 
L 193.862338 271.031257 
L 196.761039 245.829662 
L 199.65974 240.41856 
L 202.558442 234.205379 
L 205.457143 244.578613 
L 208.355844 259.048973 
L 211.254545 252.435079 
L 214.153247 255.978248 
L 217.051948 281.90628 
L 219.950649 301.28954 
L 222.849351 284.184381 
L 225.748052 284.118193 
L 228.646753 308.039722 
L 231.545455 322.914709 
L 234.444156 311.145987 
L 237.342857 292.628712 
L 240.241558 286.983834 
L 243.14026 284.676062 
L 246.038961 282.038982 
L 248.937662 277.88545 
L 251.836364 277.596571 
L 254.735065 292.3607 
L 257.633766 291.097588 
L 260.532468 283.494463 
L 263.431169 283.75791 
L 266.32987 301.622109 
L 269.228571 320.719424 
L 272.127273 323.262277 
L 275.025974 330.327096 
L 277.924675 334.301302 
L 280.823377 324.939796 
L 283.722078 313.674819 
L 286.620779 314.10879 
L 289.519481 325.839364 
L 292.418182 330.097232 
L 295.316883 326.472224 
L 298.215584 322.357492 
L 301.114286 317.343844 
L 304.012987 305.406881 
L 306.911688 298.80668 
L 309.81039 309.565956 
L 312.709091 311.20598 
L 315.607792 314.632098 
L 318.506494 312.584513 
L 321.405195 314.372237 
L 324.303896 318.039305 
L 327.202597 321.148504 
L 330.101299 329.827264 
L 333 337.644604 
L 335.898701 348.000231 
L 338.797403 351.28191 
L 341.696104 343.522933 
L 344.594805 341.653044 
L 347.493506 325.640801 
L 350.392208 308.462281 
L 353.290909 305.076267 
L 356.18961 283.821489 
" clip-path="url(#pcee8be95ac)" style="fill: none; stroke: #808080; stroke-width: 3; stroke-linecap: square"/>
   </g>
   <g id="line2d_18">
    <path d="M 83.711688 354.380675 
L 86.61039 366.404693 
L 89.509091 349.666665 
L 92.407792 365.048005 
L 95.306494 346.802981 
L 98.205195 337.684382 
L 101.103896 330.733027 
L 104.002597 325.745136 
L 106.901299 317.842372 
L 109.8 313.462236 
L 112.698701 307.466203 
L 115.597403 307.386647 
L 118.496104 294.268736 
L 121.394805 308.545424 
L 124.293506 309.683985 
L 127.192208 322.966877 
L 130.090909 327.778049 
L 132.98961 326.35876 
L 135.888312 332.705946 
L 138.787013 337.073367 
L 141.685714 338.376256 
L 144.584416 339.963461 
L 147.483117 334.038181 
L 150.381818 329.777378 
L 153.280519 339.572855 
L 156.179221 331.612706 
L 159.077922 337.745027 
L 161.976623 342.499466 
L 164.875325 349.679055 
L 167.774026 340.363196 
L 170.672727 344.033525 
L 173.571429 335.969366 
L 176.47013 317.73934 
L 179.368831 324.499957 
L 182.267532 323.786237 
L 185.166234 297.912003 
L 188.064935 281.022363 
L 190.963636 281.36667 
L 193.862338 271.031257 
L 196.761039 245.829662 
L 199.65974 240.41856 
L 202.558442 234.205379 
L 205.457143 244.578613 
L 208.355844 259.048973 
L 211.254545 252.435079 
L 214.153247 255.978248 
L 217.051948 281.90628 
L 219.950649 301.28954 
L 222.849351 284.184381 
L 225.748052 284.118193 
L 228.646753 308.039722 
L 231.545455 322.914709 
L 234.444156 311.145987 
L 237.342857 292.628712 
L 240.241558 286.983834 
L 243.14026 284.676062 
L 246.038961 282.038982 
L 248.937662 277.88545 
L 251.836364 277.596571 
L 254.735065 292.3607 
L 257.633766 291.097588 
L 260.532468 283.494463 
L 263.431169 283.75791 
L 266.32987 301.622109 
L 269.228571 320.719424 
L 272.127273 323.262277 
L 275.025974 330.327096 
L 277.924675 334.301302 
L 280.823377 324.939796 
L 283.722078 313.674819 
L 286.620779 314.10879 
L 289.519481 325.839364 
L 292.418182 330.097232 
L 295.316883 326.472224 
L 298.215584 322.357492 
L 301.114286 317.343844 
L 304.012987 305.406881 
L 306.911688 298.80668 
L 309.81039 309.565956 
L 312.709091 311.20598 
L 315.607792 314.632098 
L 318.506494 312.584513 
L 321.405195 314.372237 
L 324.303896 318.039305 
L 327.202597 321.148504 
L 330.101299 329.827264 
L 333 337.644604 
L 335.898701 348.000231 
L 338.797403 351.28191 
L 341.696104 343.522933 
L 344.594805 341.653044 
L 347.493506 325.640801 
L 350.392208 308.462281 
L 353.290909 305.076267 
L 356.18961 283.821489 
" clip-path="url(#pcee8be95ac)" style="fill: none; stroke: #808080; stroke-width: 3; stroke-linecap: square"/>
   </g>
   <g id="line2d_19">
    <path d="M 83.711688 354.380675 
L 86.61039 366.404693 
L 89.509091 349.666665 
L 92.407792 365.048005 
L 95.306494 346.802981 
L 98.205195 337.684382 
L 101.103896 330.733027 
L 104.002597 325.745136 
L 106.901299 317.842372 
L 109.8 313.462236 
L 112.698701 307.466203 
L 115.597403 307.386647 
L 118.496104 294.268736 
L 121.394805 308.545424 
L 124.293506 309.683985 
L 127.192208 322.966877 
L 130.090909 327.778049 
L 132.98961 326.35876 
L 135.888312 332.705946 
L 138.787013 337.073367 
L 141.685714 338.376256 
L 144.584416 339.963461 
L 147.483117 334.038181 
L 150.381818 329.777378 
L 153.280519 339.572855 
L 156.179221 331.612706 
L 159.077922 337.745027 
L 161.976623 342.499466 
L 164.875325 349.679055 
L 167.774026 340.363196 
L 170.672727 344.033525 
L 173.571429 335.969366 
L 176.47013 317.73934 
L 179.368831 324.499957 
L 182.267532 323.786237 
L 185.166234 297.912003 
L 188.064935 281.022363 
L 190.963636 281.36667 
L 193.862338 271.031257 
L 196.761039 245.829662 
L 199.65974 240.41856 
L 202.558442 234.205379 
L 205.457143 244.578613 
L 208.355844 259.048973 
L 211.254545 252.435079 
L 214.153247 255.978248 
L 217.051948 281.90628 
L 219.950649 301.28954 
L 222.849351 284.184381 
L 225.748052 284.118193 
L 228.646753 308.039722 
L 231.545455 322.914709 
L 234.444156 311.145987 
L 237.342857 292.628712 
L 240.241558 286.983834 
L 243.14026 284.676062 
L 246.038961 282.038982 
L 248.937662 277.88545 
L 251.836364 277.596571 
L 254.735065 292.3607 
L 257.633766 291.097588 
L 260.532468 283.494463 
L 263.431169 283.75791 
L 266.32987 301.622109 
L 269.228571 320.719424 
L 272.127273 323.262277 
L 275.025974 330.327096 
L 277.924675 334.301302 
L 280.823377 324.939796 
L 283.722078 313.674819 
L 286.620779 314.10879 
L 289.519481 325.839364 
L 292.418182 330.097232 
L 295.316883 326.472224 
L 298.215584 322.357492 
L 301.114286 317.343844 
L 304.012987 305.406881 
L 306.911688 298.80668 
L 309.81039 309.565956 
L 312.709091 311.20598 
L 315.607792 314.632098 
L 318.506494 312.584513 
L 321.405195 314.372237 
L 324.303896 318.039305 
L 327.202597 321.148504 
L 330.101299 329.827264 
L 333 337.644604 
L 335.898701 348.000231 
L 338.797403 351.28191 
L 341.696104 343.522933 
L 344.594805 341.653044 
L 347.493506 325.640801 
L 350.392208 308.462281 
L 353.290909 305.076267 
L 356.18961 283.821489 
" clip-path="url(#pcee8be95ac)" style="fill: none; stroke: #808080; stroke-width: 3; stroke-linecap: square"/>
   </g>
   <g id="line2d_20">
    <path d="M 83.711688 354.380675 
L 86.61039 366.404693 
L 89.509091 349.666665 
L 92.407792 365.048005 
L 95.306494 346.802981 
L 98.205195 337.684382 
L 101.103896 330.733027 
L 104.002597 325.745136 
L 106.901299 317.842372 
L 109.8 313.462236 
L 112.698701 307.466203 
L 115.597403 307.386647 
L 118.496104 294.268736 
L 121.394805 308.545424 
L 124.293506 309.683985 
L 127.192208 322.966877 
L 130.090909 327.778049 
L 132.98961 326.35876 
L 135.888312 332.705946 
L 138.787013 337.073367 
L 141.685714 338.376256 
L 144.584416 339.963461 
L 147.483117 334.038181 
L 150.381818 329.777378 
L 153.280519 339.572855 
L 156.179221 331.612706 
L 159.077922 337.745027 
L 161.976623 342.499466 
L 164.875325 349.679055 
L 167.774026 340.363196 
L 170.672727 344.033525 
L 173.571429 335.969366 
L 176.47013 317.73934 
L 179.368831 324.499957 
L 182.267532 323.786237 
L 185.166234 297.912003 
L 188.064935 281.022363 
L 190.963636 281.36667 
L 193.862338 271.031257 
L 196.761039 245.829662 
L 199.65974 240.41856 
L 202.558442 234.205379 
L 205.457143 244.578613 
L 208.355844 259.048973 
L 211.254545 252.435079 
L 214.153247 255.978248 
L 217.051948 281.90628 
L 219.950649 301.28954 
L 222.849351 284.184381 
L 225.748052 284.118193 
L 228.646753 308.039722 
L 231.545455 322.914709 
L 234.444156 311.145987 
L 237.342857 292.628712 
L 240.241558 286.983834 
L 243.14026 284.676062 
L 246.038961 282.038982 
L 248.937662 277.88545 
L 251.836364 277.596571 
L 254.735065 292.3607 
L 257.633766 291.097588 
L 260.532468 283.494463 
L 263.431169 283.75791 
L 266.32987 301.622109 
L 269.228571 320.719424 
L 272.127273 323.262277 
L 275.025974 330.327096 
L 277.924675 334.301302 
L 280.823377 324.939796 
L 283.722078 313.674819 
L 286.620779 314.10879 
L 289.519481 325.839364 
L 292.418182 330.097232 
L 295.316883 326.472224 
L 298.215584 322.357492 
L 301.114286 317.343844 
L 304.012987 305.406881 
L 306.911688 298.80668 
L 309.81039 309.565956 
L 312.709091 311.20598 
L 315.607792 314.632098 
L 318.506494 312.584513 
L 321.405195 314.372237 
L 324.303896 318.039305 
L 327.202597 321.148504 
L 330.101299 329.827264 
L 333 337.644604 
L 335.898701 348.000231 
L 338.797403 351.28191 
L 341.696104 343.522933 
L 344.594805 341.653044 
L 347.493506 325.640801 
L 350.392208 308.462281 
L 353.290909 305.076267 
L 356.18961 283.821489 
" clip-path="url(#pcee8be95ac)" style="fill: none; stroke: #808080; stroke-width: 3; stroke-linecap: square"/>
   </g>
   <g id="line2d_21">
    <path d="M 83.711688 354.380675 
L 86.61039 366.404693 
L 89.509091 349.666665 
L 92.407792 365.048005 
L 95.306494 346.802981 
L 98.205195 337.684382 
L 101.103896 330.733027 
L 104.002597 325.745136 
L 106.901299 317.842372 
L 109.8 313.462236 
L 112.698701 307.466203 
L 115.597403 307.386647 
L 118.496104 294.268736 
L 121.394805 308.545424 
L 124.293506 309.683985 
L 127.192208 322.966877 
L 130.090909 327.778049 
L 132.98961 326.35876 
L 135.888312 332.705946 
L 138.787013 337.073367 
L 141.685714 338.376256 
L 144.584416 339.963461 
L 147.483117 334.038181 
L 150.381818 329.777378 
L 153.280519 339.572855 
L 156.179221 331.612706 
L 159.077922 337.745027 
L 161.976623 342.499466 
L 164.875325 349.679055 
L 167.774026 340.363196 
L 170.672727 344.033525 
L 173.571429 335.969366 
L 176.47013 317.73934 
L 179.368831 324.499957 
L 182.267532 323.786237 
L 185.166234 297.912003 
L 188.064935 281.022363 
L 190.963636 281.36667 
L 193.862338 271.031257 
L 196.761039 245.829662 
L 199.65974 240.41856 
L 202.558442 234.205379 
L 205.457143 244.578613 
L 208.355844 259.048973 
L 211.254545 252.435079 
L 214.153247 255.978248 
L 217.051948 281.90628 
L 219.950649 301.28954 
L 222.849351 284.184381 
L 225.748052 284.118193 
L 228.646753 308.039722 
L 231.545455 322.914709 
L 234.444156 311.145987 
L 237.342857 292.628712 
L 240.241558 286.983834 
L 243.14026 284.676062 
L 246.038961 282.038982 
L 248.937662 277.88545 
L 251.836364 277.596571 
L 254.735065 292.3607 
L 257.633766 291.097588 
L 260.532468 283.494463 
L 263.431169 283.75791 
L 266.32987 301.622109 
L 269.228571 320.719424 
L 272.127273 323.262277 
L 275.025974 330.327096 
L 277.924675 334.301302 
L 280.823377 324.939796 
L 283.722078 313.674819 
L 286.620779 314.10879 
L 289.519481 325.839364 
L 292.418182 330.097232 
L 295.316883 326.472224 
L 298.215584 322.357492 
L 301.114286 317.343844 
L 304.012987 305.406881 
L 306.911688 298.80668 
L 309.81039 309.565956 
L 312.709091 311.20598 
L 315.607792 314.632098 
L 318.506494 312.584513 
L 321.405195 314.372237 
L 324.303896 318.039305 
L 327.202597 321.148504 
L 330.101299 329.827264 
L 333 337.644604 
L 335.898701 348.000231 
L 338.797403 351.28191 
L 341.696104 343.522933 
L 344.594805 341.653044 
L 347.493506 325.640801 
L 350.392208 308.462281 
L 353.290909 305.076267 
L 356.18961 283.821489 
" clip-path="url(#pcee8be95ac)" style="fill: none; stroke: #808080; stroke-width: 3; stroke-linecap: square"/>
   </g>
   <g id="patch_11">
    <path d="M 54 455.76 
L 54 77.76 
" style="fill: none; stroke: #000000; stroke-width: 0.8; stroke-linejoin: miter; stroke-linecap: square"/>
   </g>
   <g id="patch_12">
    <path d="M 388.8 455.76 
L 388.8 77.76 
" style="fill: none; stroke: #000000; stroke-width: 0.8; stroke-linejoin: miter; stroke-linecap: square"/>
   </g>
   <g id="patch_13">
    <path d="M 54 455.76 
L 388.8 455.76 
" style="fill: none; stroke: #000000; stroke-width: 0.8; stroke-linejoin: miter; stroke-linecap: square"/>
   </g>
   <g id="patch_14">
    <path d="M 54 77.76 
L 388.8 77.76 
" style="fill: none; stroke: #000000; stroke-width: 0.8; stroke-linejoin: miter; stroke-linecap: square"/>
   </g>
  </g>
 </g>
 <defs>
  <clipPath id="pcee8be95ac">
   <rect x="54" y="77.76" width="334.8" height="378"/>
  </clipPath>
 </defs>
</svg>
